M48
; DRILL file {KiCad (7.0.0)} date Wed Apr 26 14:40:17 2023
; FORMAT={-:-/ absolute / metric / decimal}
; #@! TF.CreationDate,2023-04-26T14:40:17+01:00
; #@! TF.GenerationSoftware,Kicad,Pcbnew,(7.0.0)
; #@! TF.FileFunction,Plated,1,2,PTH
FMAT,2
METRIC
; #@! TA.AperFunction,Plated,PTH,ViaDrill
T1C0.300
; #@! TA.AperFunction,Plated,PTH,ViaDrill
T2C0.400
; #@! TA.AperFunction,Plated,PTH,ViaDrill
T3C0.600
; #@! TA.AperFunction,Plated,PTH,ViaDrill
T4C0.800
; #@! TA.AperFunction,Plated,PTH,ComponentDrill
T5C1.000
%
G90
G05
T1
X133.361Y-96.496
X136.861Y-95.996
X141.061Y-96.336
X142.561Y-106.636
X143.961Y-106.636
X144.761Y-103.236
X145.361Y-106.696
X147.561Y-122.296
X147.761Y-116.336
X147.761Y-118.896
X148.961Y-121.236
X149.761Y-121.236
X151.461Y-97.236
X151.761Y-103.256
X153.661Y-103.256
X155.561Y-98.436
X156.361Y-124.836
X156.961Y-94.036
X158.561Y-89.396
X162.531Y-123.576
T2
X139.761Y-114.636
X145.861Y-93.996
T3
X134.561Y-98.536
X142.661Y-90.836
X142.661Y-93.836
T4
X138.761Y-107.736
T5
X134.591Y-123.576
X137.131Y-123.576
X139.671Y-123.576
X142.211Y-113.416
X142.211Y-115.956
X142.211Y-118.496
X142.211Y-121.036
X142.211Y-123.576
X147.291Y-99.446
X147.291Y-101.986
X147.291Y-104.526
X147.291Y-107.066
X147.291Y-109.606
X148.561Y-93.096
X148.561Y-95.636
X148.561Y-113.416
X149.831Y-99.446
X149.831Y-101.986
X149.831Y-104.526
X149.831Y-107.066
X149.831Y-109.606
X158.721Y-105.796
X158.721Y-108.336
X158.721Y-110.876
X161.261Y-105.796
X161.261Y-108.336
X161.261Y-110.876
X161.261Y-113.416
X161.261Y-115.956
X161.261Y-118.496
X161.261Y-121.036
T0
M30
