G04 #@! TF.GenerationSoftware,KiCad,Pcbnew,(7.0.0)*
G04 #@! TF.CreationDate,2023-04-26T14:40:12+01:00*
G04 #@! TF.ProjectId,Tims_I2C_AI_DC_Motor_Driver 2P 2N,54696d73-5f49-4324-935f-41495f44435f,rev?*
G04 #@! TF.SameCoordinates,Original*
G04 #@! TF.FileFunction,Copper,L2,Bot*
G04 #@! TF.FilePolarity,Positive*
%FSLAX46Y46*%
G04 Gerber Fmt 4.6, Leading zero omitted, Abs format (unit mm)*
G04 Created by KiCad (PCBNEW (7.0.0)) date 2023-04-26 14:40:12*
%MOMM*%
%LPD*%
G01*
G04 APERTURE LIST*
G04 Aperture macros list*
%AMRoundRect*
0 Rectangle with rounded corners*
0 $1 Rounding radius*
0 $2 $3 $4 $5 $6 $7 $8 $9 X,Y pos of 4 corners*
0 Add a 4 corners polygon primitive as box body*
4,1,4,$2,$3,$4,$5,$6,$7,$8,$9,$2,$3,0*
0 Add four circle primitives for the rounded corners*
1,1,$1+$1,$2,$3*
1,1,$1+$1,$4,$5*
1,1,$1+$1,$6,$7*
1,1,$1+$1,$8,$9*
0 Add four rect primitives between the rounded corners*
20,1,$1+$1,$2,$3,$4,$5,0*
20,1,$1+$1,$4,$5,$6,$7,0*
20,1,$1+$1,$6,$7,$8,$9,0*
20,1,$1+$1,$8,$9,$2,$3,0*%
G04 Aperture macros list end*
G04 #@! TA.AperFunction,ComponentPad*
%ADD10R,1.700000X1.700000*%
G04 #@! TD*
G04 #@! TA.AperFunction,ComponentPad*
%ADD11O,1.700000X1.700000*%
G04 #@! TD*
G04 #@! TA.AperFunction,SMDPad,CuDef*
%ADD12R,1.500000X2.000000*%
G04 #@! TD*
G04 #@! TA.AperFunction,SMDPad,CuDef*
%ADD13R,3.800000X2.000000*%
G04 #@! TD*
G04 #@! TA.AperFunction,SMDPad,CuDef*
%ADD14RoundRect,0.243750X-0.456250X0.243750X-0.456250X-0.243750X0.456250X-0.243750X0.456250X0.243750X0*%
G04 #@! TD*
G04 #@! TA.AperFunction,SMDPad,CuDef*
%ADD15RoundRect,0.250000X0.475000X-0.250000X0.475000X0.250000X-0.475000X0.250000X-0.475000X-0.250000X0*%
G04 #@! TD*
G04 #@! TA.AperFunction,SMDPad,CuDef*
%ADD16RoundRect,0.250000X-0.450000X0.262500X-0.450000X-0.262500X0.450000X-0.262500X0.450000X0.262500X0*%
G04 #@! TD*
G04 #@! TA.AperFunction,ViaPad*
%ADD17C,0.800000*%
G04 #@! TD*
G04 #@! TA.AperFunction,ViaPad*
%ADD18C,0.600000*%
G04 #@! TD*
G04 #@! TA.AperFunction,ViaPad*
%ADD19C,1.200000*%
G04 #@! TD*
G04 #@! TA.AperFunction,ViaPad*
%ADD20C,1.400000*%
G04 #@! TD*
G04 #@! TA.AperFunction,Conductor*
%ADD21C,1.000000*%
G04 #@! TD*
G04 #@! TA.AperFunction,Conductor*
%ADD22C,0.400000*%
G04 #@! TD*
G04 APERTURE END LIST*
D10*
X147290999Y-107065999D03*
D11*
X149830999Y-107065999D03*
D10*
X147290999Y-99445999D03*
D11*
X149830999Y-99445999D03*
D10*
X161260999Y-108335999D03*
D11*
X158720999Y-108335999D03*
D10*
X161260999Y-105795999D03*
D11*
X158720999Y-105795999D03*
D10*
X147290999Y-109605999D03*
D11*
X149830999Y-109605999D03*
D10*
X148560999Y-113415999D03*
X148560999Y-93095999D03*
D11*
X148560999Y-95635999D03*
D10*
X147290999Y-104525999D03*
D11*
X149830999Y-104525999D03*
D10*
X147290999Y-101985999D03*
D11*
X149830999Y-101985999D03*
D10*
X161260999Y-110875999D03*
D11*
X158720999Y-110875999D03*
D12*
X138640999Y-103305999D03*
X140940999Y-103305999D03*
D13*
X140940999Y-109605999D03*
D12*
X143240999Y-103305999D03*
D10*
X142210999Y-121035999D03*
D11*
X142210999Y-118495999D03*
X142210999Y-115955999D03*
X142210999Y-113415999D03*
D10*
X142210999Y-123575999D03*
D11*
X139670999Y-123575999D03*
D10*
X134590999Y-123575999D03*
D11*
X137130999Y-123575999D03*
D14*
X143161000Y-99198500D03*
X143161000Y-101073500D03*
D15*
X138661000Y-101186000D03*
X138661000Y-99286000D03*
D10*
X161260999Y-121035999D03*
D11*
X161260999Y-118495999D03*
X161260999Y-115955999D03*
X161260999Y-113415999D03*
D16*
X140861000Y-98123500D03*
X140861000Y-99948500D03*
D17*
X139761000Y-114636000D03*
D18*
X142561000Y-106636000D03*
D19*
X134561000Y-98536000D03*
D20*
X138761000Y-107736000D03*
D18*
X147561000Y-122296000D03*
D19*
X142661000Y-90836000D03*
X142661000Y-93836000D03*
D18*
X145361000Y-106696000D03*
X136861000Y-95996000D03*
X153661000Y-103256000D03*
X148961000Y-121236000D03*
X162531000Y-123576000D03*
X151761000Y-103256000D03*
X155561000Y-98436000D03*
X156361000Y-124836000D03*
X149761000Y-121236000D03*
X143961000Y-106636000D03*
X144761000Y-103236000D03*
D17*
X145861000Y-93996000D03*
D18*
X141061000Y-96336000D03*
X133361000Y-96496000D03*
X158561000Y-89396000D03*
X156961000Y-94036000D03*
X151461000Y-97236000D03*
X147761000Y-116336000D03*
X147761000Y-118896000D03*
D21*
X147291000Y-109606000D02*
X142961000Y-109606000D01*
X142211000Y-115956000D02*
X143261000Y-115196000D01*
X139671000Y-110876000D02*
X140941000Y-109606000D01*
X139671000Y-114546000D02*
X139671000Y-110876000D01*
X142961000Y-109606000D02*
X140941000Y-109606000D01*
X139671000Y-114726000D02*
X139761000Y-114636000D01*
X139671000Y-115936000D02*
X139671000Y-114726000D01*
X160261000Y-115196000D02*
X161261000Y-115956000D01*
D22*
X142561000Y-106636000D02*
X142561000Y-109206000D01*
D21*
X143261000Y-115196000D02*
X160261000Y-115196000D01*
X139671000Y-123576000D02*
X139671000Y-115936000D01*
X142211000Y-115956000D02*
X139691000Y-115956000D01*
X140941000Y-103306000D02*
X140941000Y-109606000D01*
D22*
X142561000Y-109206000D02*
X142961000Y-109606000D01*
D21*
X139691000Y-115956000D02*
X139671000Y-115936000D01*
X139761000Y-114636000D02*
X139671000Y-114546000D01*
X135661000Y-125736000D02*
X141261000Y-125736000D01*
D22*
X140411000Y-99286000D02*
X138661000Y-99286000D01*
D21*
X134591000Y-124666000D02*
X135661000Y-125736000D01*
X134561000Y-98536000D02*
X134561000Y-98436000D01*
X144361000Y-111436000D02*
X149203081Y-111436000D01*
X157561000Y-103436000D02*
X160361000Y-103436000D01*
X149203081Y-111436000D02*
X149831000Y-110808081D01*
X138761000Y-107736000D02*
X138761000Y-103426000D01*
X134561958Y-99336000D02*
X134561000Y-98536000D01*
X138761000Y-103426000D02*
X138641000Y-103306000D01*
X134591000Y-123576000D02*
X134561958Y-99336000D01*
D22*
X140861000Y-99948500D02*
X140861000Y-99736000D01*
D21*
X161261000Y-104336000D02*
X161261000Y-105796000D01*
D22*
X140861000Y-99736000D02*
X140411000Y-99286000D01*
D21*
X138661000Y-99286000D02*
X134611958Y-99286000D01*
D22*
X142211000Y-123576000D02*
X146281000Y-123576000D01*
D21*
X149831000Y-110808081D02*
X149831000Y-109606000D01*
X134591000Y-123576000D02*
X134591000Y-124666000D01*
D22*
X146281000Y-123576000D02*
X147561000Y-122296000D01*
D21*
X160361000Y-103436000D02*
X161261000Y-104336000D01*
X141261000Y-125736000D02*
X142211000Y-124786000D01*
X142211000Y-113416000D02*
X144361000Y-111436000D01*
X142211000Y-124786000D02*
X142211000Y-123576000D01*
X151391000Y-109606000D02*
X157561000Y-103436000D01*
X149831000Y-109606000D02*
X151391000Y-109606000D01*
X137131000Y-121106000D02*
X137131000Y-123576000D01*
X142731000Y-101436000D02*
X136161000Y-101436000D01*
X136161000Y-101436000D02*
X136161000Y-119966000D01*
X136161000Y-119966000D02*
X137131000Y-121106000D01*
X143241000Y-103306000D02*
X143261000Y-101236000D01*
D22*
X142548500Y-98123500D02*
X140861000Y-98123500D01*
X143161000Y-98736000D02*
X142548500Y-98123500D01*
X143161000Y-99198500D02*
X143161000Y-98736000D01*
D21*
X142661000Y-90836000D02*
X149361000Y-90836000D01*
X150311000Y-96426000D02*
X147291000Y-99446000D01*
X150311000Y-91786000D02*
X150311000Y-96426000D01*
X149361000Y-90836000D02*
X150311000Y-91786000D01*
X142661000Y-93836000D02*
X142661000Y-90836000D01*
D22*
X145841000Y-106216000D02*
X145361000Y-106696000D01*
X145841000Y-104346000D02*
X145841000Y-106216000D01*
X145841000Y-99276000D02*
X143661000Y-97096000D01*
X143661000Y-97096000D02*
X137961000Y-97096000D01*
X137961000Y-97096000D02*
X136861000Y-95996000D01*
X145841000Y-104346000D02*
X145841000Y-99276000D01*
X147291000Y-104526000D02*
X145841000Y-104526000D01*
X152391000Y-104526000D02*
X153661000Y-103256000D01*
X149831000Y-104526000D02*
X152391000Y-104526000D01*
X142211000Y-118496000D02*
X143561000Y-119836000D01*
X159761000Y-119836000D02*
X161261000Y-118496000D01*
X143561000Y-119836000D02*
X159761000Y-119836000D01*
X143561000Y-120436000D02*
X142961000Y-121036000D01*
X159761000Y-120436000D02*
X161261000Y-121036000D01*
X159761000Y-120436000D02*
X143561000Y-120436000D01*
X142961000Y-121036000D02*
X142211000Y-121036000D01*
X152825874Y-126436000D02*
X148961000Y-122571126D01*
X162531000Y-123576000D02*
X162531000Y-126436000D01*
X162531000Y-126436000D02*
X152825874Y-126436000D01*
X148961000Y-122571126D02*
X148961000Y-121236000D01*
X151761000Y-103256000D02*
X155561000Y-98436000D01*
X152161000Y-124836000D02*
X149761000Y-122436000D01*
X156361000Y-124836000D02*
X152161000Y-124836000D01*
X149761000Y-122436000D02*
X149761000Y-121236000D01*
X148361000Y-108336000D02*
X148561000Y-108028500D01*
X144761000Y-105236000D02*
X144761000Y-103236000D01*
X143961000Y-106636000D02*
X145161000Y-108336000D01*
X148561000Y-108028500D02*
X148561000Y-103256000D01*
X143961000Y-106636000D02*
X144761000Y-105236000D01*
X145161000Y-108336000D02*
X148361000Y-108336000D01*
X148561000Y-103256000D02*
X149831000Y-101986000D01*
X145861000Y-93996000D02*
X145861000Y-94836000D01*
X144361000Y-96336000D02*
X141061000Y-96336000D01*
X145861000Y-94836000D02*
X144361000Y-96336000D01*
X133361000Y-96496000D02*
X133361000Y-89396000D01*
X133361000Y-89396000D02*
X158561000Y-89396000D01*
X151461000Y-97236000D02*
X156961000Y-94036000D01*
X147761000Y-116336000D02*
X147761000Y-118636000D01*
X147761000Y-118636000D02*
X147761000Y-118896000D01*
G04 #@! TA.AperFunction,Conductor*
G36*
X151699000Y-90121113D02*
G01*
X151744387Y-90166500D01*
X151761000Y-90228500D01*
X151761000Y-96170447D01*
X151744491Y-96232267D01*
X151699358Y-96277626D01*
X151470596Y-96410723D01*
X151422122Y-96426764D01*
X151286876Y-96442002D01*
X151286867Y-96442003D01*
X151279953Y-96442783D01*
X151273383Y-96445081D01*
X151273378Y-96445083D01*
X151114553Y-96500658D01*
X151114547Y-96500660D01*
X151107985Y-96502957D01*
X151102097Y-96506656D01*
X151102092Y-96506659D01*
X150959619Y-96596181D01*
X150959614Y-96596184D01*
X150953719Y-96599889D01*
X150948794Y-96604813D01*
X150948790Y-96604817D01*
X150829817Y-96723790D01*
X150829813Y-96723794D01*
X150824889Y-96728719D01*
X150821184Y-96734614D01*
X150821181Y-96734619D01*
X150731659Y-96877092D01*
X150731656Y-96877097D01*
X150727957Y-96882985D01*
X150725660Y-96889547D01*
X150725658Y-96889553D01*
X150670083Y-97048378D01*
X150670081Y-97048383D01*
X150667783Y-97054953D01*
X150667003Y-97061867D01*
X150667002Y-97061876D01*
X150663568Y-97092359D01*
X150647384Y-97236000D01*
X150648164Y-97242923D01*
X150667002Y-97410123D01*
X150667003Y-97410130D01*
X150667783Y-97417047D01*
X150727957Y-97589015D01*
X150824889Y-97743281D01*
X150953719Y-97872111D01*
X151107985Y-97969043D01*
X151279953Y-98029217D01*
X151461000Y-98049616D01*
X151623116Y-98031350D01*
X151690802Y-98042850D01*
X151741994Y-98088598D01*
X151761000Y-98154570D01*
X151761000Y-100872000D01*
X151744387Y-100934000D01*
X151699000Y-100979387D01*
X151637000Y-100996000D01*
X150813391Y-100996000D01*
X150773128Y-100989281D01*
X150737228Y-100969853D01*
X150580623Y-100847960D01*
X150580615Y-100847955D01*
X150576576Y-100844811D01*
X150572069Y-100842372D01*
X150572060Y-100842366D01*
X150540068Y-100825053D01*
X150492562Y-100779471D01*
X150475086Y-100715996D01*
X150492565Y-100652522D01*
X150540067Y-100606946D01*
X150576576Y-100587189D01*
X150754240Y-100448906D01*
X150906722Y-100283268D01*
X151029860Y-100094791D01*
X151120296Y-99888616D01*
X151175564Y-99670368D01*
X151194156Y-99446000D01*
X151175564Y-99221632D01*
X151120296Y-99003384D01*
X151029860Y-98797209D01*
X150906722Y-98608732D01*
X150754240Y-98443094D01*
X150741597Y-98433253D01*
X150580623Y-98307960D01*
X150580615Y-98307955D01*
X150576576Y-98304811D01*
X150572071Y-98302373D01*
X150572065Y-98302369D01*
X150383080Y-98200096D01*
X150383074Y-98200093D01*
X150378574Y-98197658D01*
X150373733Y-98195996D01*
X150373726Y-98195993D01*
X150170488Y-98126222D01*
X150170487Y-98126221D01*
X150165635Y-98124556D01*
X150160585Y-98123713D01*
X150160576Y-98123711D01*
X149948631Y-98088344D01*
X149948622Y-98088343D01*
X149943569Y-98087500D01*
X149718431Y-98087500D01*
X149713378Y-98088343D01*
X149713368Y-98088344D01*
X149501423Y-98123711D01*
X149501411Y-98123713D01*
X149496365Y-98124556D01*
X149491515Y-98126220D01*
X149491511Y-98126222D01*
X149288273Y-98195993D01*
X149288262Y-98195997D01*
X149283426Y-98197658D01*
X149278929Y-98200091D01*
X149278919Y-98200096D01*
X149089934Y-98302369D01*
X149089922Y-98302376D01*
X149085424Y-98304811D01*
X149081389Y-98307951D01*
X149081376Y-98307960D01*
X148911801Y-98439948D01*
X148911795Y-98439952D01*
X148907760Y-98443094D01*
X148904294Y-98446858D01*
X148904294Y-98446859D01*
X148838092Y-98518773D01*
X148785468Y-98552626D01*
X148723014Y-98556474D01*
X148666633Y-98529336D01*
X148630681Y-98478122D01*
X148587452Y-98362222D01*
X148579037Y-98346810D01*
X148503501Y-98245907D01*
X148491092Y-98233498D01*
X148390189Y-98157962D01*
X148374777Y-98149547D01*
X148255641Y-98105111D01*
X148240667Y-98101573D01*
X148192114Y-98096353D01*
X148185518Y-98096000D01*
X147557326Y-98096000D01*
X147544450Y-98099450D01*
X147541000Y-98112326D01*
X147541000Y-99572000D01*
X147524387Y-99634000D01*
X147479000Y-99679387D01*
X147417000Y-99696000D01*
X147165000Y-99696000D01*
X147103000Y-99679387D01*
X147057613Y-99634000D01*
X147041000Y-99572000D01*
X147041000Y-98112326D01*
X147037549Y-98099450D01*
X147024674Y-98096000D01*
X146396482Y-98096000D01*
X146389885Y-98096353D01*
X146341332Y-98101573D01*
X146326358Y-98105111D01*
X146207222Y-98149547D01*
X146191810Y-98157962D01*
X146090907Y-98233498D01*
X146078497Y-98245908D01*
X146050540Y-98283254D01*
X145994606Y-98325124D01*
X145924915Y-98330108D01*
X145863593Y-98296623D01*
X144706564Y-97139594D01*
X144677027Y-97092359D01*
X144671150Y-97036960D01*
X144690120Y-96984579D01*
X144728107Y-96947728D01*
X144730226Y-96946775D01*
X144736132Y-96942147D01*
X144736138Y-96942144D01*
X144778157Y-96909223D01*
X144784165Y-96904801D01*
X144834273Y-96870215D01*
X144874657Y-96824629D01*
X144879759Y-96819209D01*
X146062969Y-95636000D01*
X147197844Y-95636000D01*
X147198268Y-95641117D01*
X147216011Y-95855248D01*
X147216012Y-95855256D01*
X147216436Y-95860368D01*
X147217693Y-95865335D01*
X147217695Y-95865342D01*
X147270445Y-96073645D01*
X147271704Y-96078616D01*
X147273764Y-96083312D01*
X147360080Y-96280096D01*
X147360083Y-96280101D01*
X147362140Y-96284791D01*
X147410969Y-96359529D01*
X147482474Y-96468977D01*
X147482477Y-96468981D01*
X147485278Y-96473268D01*
X147488752Y-96477041D01*
X147488753Y-96477043D01*
X147634288Y-96635135D01*
X147634291Y-96635138D01*
X147637760Y-96638906D01*
X147641801Y-96642051D01*
X147811376Y-96774039D01*
X147811381Y-96774042D01*
X147815424Y-96777189D01*
X147819931Y-96779628D01*
X147819934Y-96779630D01*
X147995193Y-96874475D01*
X148013426Y-96884342D01*
X148226365Y-96957444D01*
X148448431Y-96994500D01*
X148668436Y-96994500D01*
X148673569Y-96994500D01*
X148895635Y-96957444D01*
X149108574Y-96884342D01*
X149306576Y-96777189D01*
X149484240Y-96638906D01*
X149636722Y-96473268D01*
X149759860Y-96284791D01*
X149850296Y-96078616D01*
X149905564Y-95860368D01*
X149924156Y-95636000D01*
X149905564Y-95411632D01*
X149850296Y-95193384D01*
X149759860Y-94987209D01*
X149649529Y-94818335D01*
X149639525Y-94803022D01*
X149639523Y-94803020D01*
X149636722Y-94798732D01*
X149491506Y-94640987D01*
X149462735Y-94588239D01*
X149462142Y-94528152D01*
X149489869Y-94474841D01*
X149539404Y-94440826D01*
X149657204Y-94396889D01*
X149774261Y-94309261D01*
X149861889Y-94192204D01*
X149912989Y-94055201D01*
X149919500Y-93994638D01*
X149919500Y-92197362D01*
X149912989Y-92136799D01*
X149861889Y-91999796D01*
X149774261Y-91882739D01*
X149657204Y-91795111D01*
X149648896Y-91792012D01*
X149648894Y-91792011D01*
X149527463Y-91746719D01*
X149527458Y-91746717D01*
X149520201Y-91744011D01*
X149512497Y-91743182D01*
X149512494Y-91743182D01*
X149462924Y-91737853D01*
X149462918Y-91737852D01*
X149459638Y-91737500D01*
X147662362Y-91737500D01*
X147659082Y-91737852D01*
X147659075Y-91737853D01*
X147609505Y-91743182D01*
X147609500Y-91743182D01*
X147601799Y-91744011D01*
X147594543Y-91746717D01*
X147594536Y-91746719D01*
X147473105Y-91792011D01*
X147473099Y-91792013D01*
X147464796Y-91795111D01*
X147457698Y-91800423D01*
X147457695Y-91800426D01*
X147354835Y-91877426D01*
X147354831Y-91877429D01*
X147347739Y-91882739D01*
X147342429Y-91889831D01*
X147342426Y-91889835D01*
X147265426Y-91992695D01*
X147265423Y-91992698D01*
X147260111Y-91999796D01*
X147257013Y-92008099D01*
X147257011Y-92008105D01*
X147211719Y-92129536D01*
X147211717Y-92129543D01*
X147209011Y-92136799D01*
X147208182Y-92144500D01*
X147208182Y-92144505D01*
X147202853Y-92194075D01*
X147202500Y-92197362D01*
X147202500Y-93994638D01*
X147209011Y-94055201D01*
X147211717Y-94062458D01*
X147211719Y-94062463D01*
X147255360Y-94179467D01*
X147260111Y-94192204D01*
X147347739Y-94309261D01*
X147464796Y-94396889D01*
X147582595Y-94440826D01*
X147632130Y-94474841D01*
X147659857Y-94528152D01*
X147659264Y-94588238D01*
X147630490Y-94640991D01*
X147488753Y-94794956D01*
X147488747Y-94794963D01*
X147485278Y-94798732D01*
X147482481Y-94803012D01*
X147482474Y-94803022D01*
X147364942Y-94982920D01*
X147362140Y-94987209D01*
X147360085Y-94991892D01*
X147360080Y-94991903D01*
X147282981Y-95167675D01*
X147271704Y-95193384D01*
X147270446Y-95198349D01*
X147270445Y-95198354D01*
X147217695Y-95406657D01*
X147217693Y-95406666D01*
X147216436Y-95411632D01*
X147216012Y-95416741D01*
X147216011Y-95416751D01*
X147203686Y-95565500D01*
X147197844Y-95636000D01*
X146062969Y-95636000D01*
X146344217Y-95354752D01*
X146349637Y-95349650D01*
X146395215Y-95309273D01*
X146429813Y-95259147D01*
X146434207Y-95253176D01*
X146471775Y-95205226D01*
X146476033Y-95195762D01*
X146487061Y-95176211D01*
X146492954Y-95167675D01*
X146514548Y-95110732D01*
X146517394Y-95103861D01*
X146542388Y-95048330D01*
X146544256Y-95038129D01*
X146550289Y-95016492D01*
X146553965Y-95006801D01*
X146561302Y-94946365D01*
X146562429Y-94938964D01*
X146572048Y-94886476D01*
X146572048Y-94886475D01*
X146573401Y-94879093D01*
X146569726Y-94818335D01*
X146569500Y-94810848D01*
X146569500Y-94614113D01*
X146575569Y-94575795D01*
X146593182Y-94541228D01*
X146595692Y-94537772D01*
X146600040Y-94532944D01*
X146695527Y-94367556D01*
X146754542Y-94185928D01*
X146774504Y-93996000D01*
X146754542Y-93806072D01*
X146695527Y-93624444D01*
X146600040Y-93459056D01*
X146472253Y-93317134D01*
X146467003Y-93313319D01*
X146466999Y-93313316D01*
X146323006Y-93208699D01*
X146323004Y-93208697D01*
X146317752Y-93204882D01*
X146311821Y-93202241D01*
X146311817Y-93202239D01*
X146149226Y-93129849D01*
X146149219Y-93129846D01*
X146143288Y-93127206D01*
X146136935Y-93125855D01*
X146136927Y-93125853D01*
X145962849Y-93088852D01*
X145962846Y-93088851D01*
X145956487Y-93087500D01*
X145765513Y-93087500D01*
X145759154Y-93088851D01*
X145759150Y-93088852D01*
X145585072Y-93125853D01*
X145585061Y-93125856D01*
X145578712Y-93127206D01*
X145572782Y-93129845D01*
X145572773Y-93129849D01*
X145410182Y-93202239D01*
X145410174Y-93202243D01*
X145404248Y-93204882D01*
X145398999Y-93208695D01*
X145398993Y-93208699D01*
X145255000Y-93313316D01*
X145254991Y-93313323D01*
X145249747Y-93317134D01*
X145245403Y-93321957D01*
X145245400Y-93321961D01*
X145157527Y-93419555D01*
X145121960Y-93459056D01*
X145118714Y-93464676D01*
X145118711Y-93464682D01*
X145029721Y-93618817D01*
X145029718Y-93618822D01*
X145026473Y-93624444D01*
X145024467Y-93630616D01*
X145024465Y-93630622D01*
X144969465Y-93799892D01*
X144969463Y-93799901D01*
X144967458Y-93806072D01*
X144966780Y-93812522D01*
X144966778Y-93812532D01*
X144948778Y-93983795D01*
X144947496Y-93996000D01*
X144948175Y-94002460D01*
X144966778Y-94179467D01*
X144966779Y-94179475D01*
X144967458Y-94185928D01*
X144969463Y-94192100D01*
X144969465Y-94192107D01*
X145024465Y-94361377D01*
X145026473Y-94367556D01*
X145029720Y-94373180D01*
X145029721Y-94373182D01*
X145089072Y-94475981D01*
X145105213Y-94527174D01*
X145098207Y-94580391D01*
X145069366Y-94625662D01*
X144103849Y-95591181D01*
X144063621Y-95618061D01*
X144016168Y-95627500D01*
X141685000Y-95627500D01*
X141623000Y-95610887D01*
X141577613Y-95565500D01*
X141561000Y-95503500D01*
X141561000Y-90228500D01*
X141577613Y-90166500D01*
X141623000Y-90121113D01*
X141685000Y-90104500D01*
X151637000Y-90104500D01*
X151699000Y-90121113D01*
G37*
G04 #@! TD.AperFunction*
G04 #@! TA.AperFunction,Conductor*
G36*
X141129000Y-103072613D02*
G01*
X141174387Y-103118000D01*
X141191000Y-103180000D01*
X141191000Y-104789674D01*
X141194450Y-104802549D01*
X141207326Y-104806000D01*
X141735518Y-104806000D01*
X141742114Y-104805646D01*
X141790667Y-104800426D01*
X141805641Y-104796888D01*
X141924777Y-104752452D01*
X141940190Y-104744037D01*
X142009596Y-104692079D01*
X142057549Y-104670179D01*
X142110266Y-104670179D01*
X142158218Y-104692077D01*
X142244796Y-104756889D01*
X142381799Y-104807989D01*
X142442362Y-104814500D01*
X142445672Y-104814500D01*
X143928500Y-104814500D01*
X143990500Y-104831113D01*
X144035887Y-104876500D01*
X144052500Y-104938500D01*
X144052500Y-105014918D01*
X144036162Y-105076439D01*
X143554554Y-105919252D01*
X143512865Y-105962724D01*
X143459621Y-105996179D01*
X143459612Y-105996186D01*
X143453719Y-105999889D01*
X143448794Y-106004813D01*
X143448790Y-106004817D01*
X143329817Y-106123790D01*
X143329813Y-106123794D01*
X143324889Y-106128719D01*
X143321184Y-106134614D01*
X143321181Y-106134619D01*
X143231659Y-106277092D01*
X143231656Y-106277097D01*
X143227957Y-106282985D01*
X143225660Y-106289547D01*
X143225658Y-106289553D01*
X143170083Y-106448378D01*
X143170081Y-106448383D01*
X143167783Y-106454953D01*
X143167003Y-106461867D01*
X143167002Y-106461876D01*
X143148164Y-106629077D01*
X143147384Y-106636000D01*
X143148164Y-106642923D01*
X143167002Y-106810123D01*
X143167003Y-106810130D01*
X143167783Y-106817047D01*
X143227957Y-106989015D01*
X143231658Y-106994905D01*
X143231659Y-106994907D01*
X143321181Y-107137380D01*
X143324889Y-107143281D01*
X143453719Y-107272111D01*
X143592764Y-107359479D01*
X143628095Y-107392963D01*
X143721541Y-107525345D01*
X144528408Y-108668406D01*
X144550605Y-108699851D01*
X144559090Y-108713721D01*
X144573633Y-108741430D01*
X144598735Y-108769765D01*
X144602688Y-108774227D01*
X144605262Y-108777283D01*
X144606894Y-108779594D01*
X144609390Y-108782353D01*
X144609401Y-108782366D01*
X144632722Y-108808138D01*
X144633593Y-108809110D01*
X144687727Y-108870215D01*
X144690834Y-108872359D01*
X144693368Y-108875160D01*
X144699592Y-108879360D01*
X144699593Y-108879361D01*
X144761032Y-108920823D01*
X144762104Y-108921554D01*
X144829325Y-108967954D01*
X144832855Y-108969292D01*
X144835985Y-108971405D01*
X144912754Y-108999599D01*
X144913673Y-108999942D01*
X144990199Y-109028965D01*
X144993951Y-109029420D01*
X144997492Y-109030721D01*
X145064671Y-109038162D01*
X145078520Y-109039696D01*
X145079795Y-109039843D01*
X145118141Y-109044500D01*
X145120982Y-109044500D01*
X145124926Y-109044837D01*
X145168501Y-109049664D01*
X145199508Y-109045568D01*
X145215748Y-109044500D01*
X145817000Y-109044500D01*
X145879000Y-109061113D01*
X145924387Y-109106500D01*
X145941000Y-109168500D01*
X145941000Y-109339674D01*
X145944450Y-109352549D01*
X145957326Y-109356000D01*
X146761000Y-109356000D01*
X146761000Y-109856000D01*
X145957326Y-109856000D01*
X145944450Y-109859450D01*
X145941000Y-109872326D01*
X145941000Y-110303500D01*
X145924387Y-110365500D01*
X145879000Y-110410887D01*
X145817000Y-110427500D01*
X144440022Y-110427500D01*
X144422803Y-110426299D01*
X144408706Y-110424322D01*
X144408703Y-110424321D01*
X144402678Y-110423477D01*
X144396598Y-110423824D01*
X144396596Y-110423824D01*
X144335755Y-110427298D01*
X144328687Y-110427500D01*
X144311453Y-110427500D01*
X144308428Y-110427797D01*
X144308405Y-110427799D01*
X144285343Y-110430070D01*
X144280265Y-110430465D01*
X144210430Y-110434453D01*
X144210425Y-110434453D01*
X144204343Y-110434801D01*
X144198451Y-110436326D01*
X144198442Y-110436328D01*
X144193424Y-110437628D01*
X144174516Y-110440986D01*
X144169365Y-110441493D01*
X144169350Y-110441495D01*
X144163299Y-110442092D01*
X144157477Y-110443857D01*
X144157472Y-110443859D01*
X144090542Y-110464161D01*
X144085638Y-110465539D01*
X144017927Y-110483074D01*
X144017918Y-110483076D01*
X144012030Y-110484602D01*
X144006546Y-110487248D01*
X144006535Y-110487253D01*
X144001878Y-110489501D01*
X143983989Y-110496483D01*
X143979030Y-110497987D01*
X143979011Y-110497994D01*
X143973196Y-110499759D01*
X143906128Y-110535605D01*
X143901601Y-110537907D01*
X143838610Y-110568315D01*
X143838601Y-110568320D01*
X143833127Y-110570963D01*
X143828274Y-110574621D01*
X143828266Y-110574627D01*
X143824131Y-110577746D01*
X143807936Y-110588091D01*
X143803365Y-110590534D01*
X143803357Y-110590539D01*
X143797996Y-110593405D01*
X143793301Y-110597257D01*
X143793292Y-110597264D01*
X143739222Y-110641639D01*
X143735216Y-110644791D01*
X143716689Y-110658761D01*
X143716674Y-110658772D01*
X143714261Y-110660593D01*
X143712031Y-110662646D01*
X143712028Y-110662649D01*
X143701572Y-110672277D01*
X143696246Y-110676907D01*
X143649140Y-110715567D01*
X143649133Y-110715573D01*
X143644432Y-110719432D01*
X143640573Y-110724133D01*
X143640569Y-110724138D01*
X143631540Y-110735140D01*
X143619691Y-110747684D01*
X143541438Y-110819749D01*
X143486280Y-110849135D01*
X143423795Y-110847885D01*
X143369856Y-110816317D01*
X143338165Y-110762451D01*
X143337076Y-110713642D01*
X143334598Y-110713376D01*
X143340646Y-110657114D01*
X143341000Y-110650518D01*
X143341000Y-109872326D01*
X143337549Y-109859450D01*
X143324674Y-109856000D01*
X141207326Y-109856000D01*
X141194450Y-109859450D01*
X141191000Y-109872326D01*
X141191000Y-111089674D01*
X141194450Y-111102549D01*
X141207326Y-111106000D01*
X142885518Y-111106000D01*
X142892130Y-111105645D01*
X142901969Y-111104588D01*
X142962802Y-111113367D01*
X143011945Y-111150281D01*
X143037326Y-111206258D01*
X143032708Y-111267548D01*
X142999226Y-111319090D01*
X142233020Y-112024713D01*
X142194105Y-112049013D01*
X142149019Y-112057500D01*
X142098431Y-112057500D01*
X142093378Y-112058343D01*
X142093368Y-112058344D01*
X141881423Y-112093711D01*
X141881411Y-112093713D01*
X141876365Y-112094556D01*
X141871515Y-112096220D01*
X141871511Y-112096222D01*
X141668273Y-112165993D01*
X141668262Y-112165997D01*
X141663426Y-112167658D01*
X141658929Y-112170091D01*
X141658919Y-112170096D01*
X141469934Y-112272369D01*
X141469922Y-112272376D01*
X141465424Y-112274811D01*
X141461389Y-112277951D01*
X141461376Y-112277960D01*
X141291801Y-112409948D01*
X141291795Y-112409952D01*
X141287760Y-112413094D01*
X141284297Y-112416855D01*
X141284288Y-112416864D01*
X141138753Y-112574956D01*
X141138747Y-112574963D01*
X141135278Y-112578732D01*
X141132481Y-112583012D01*
X141132474Y-112583022D01*
X141014942Y-112762920D01*
X141012140Y-112767209D01*
X141010085Y-112771892D01*
X141010080Y-112771903D01*
X140923764Y-112968687D01*
X140921704Y-112973384D01*
X140920446Y-112978349D01*
X140920445Y-112978354D01*
X140867695Y-113186657D01*
X140867693Y-113186666D01*
X140866436Y-113191632D01*
X140866012Y-113196741D01*
X140866011Y-113196751D01*
X140848268Y-113410883D01*
X140847844Y-113416000D01*
X140848268Y-113421117D01*
X140866011Y-113635248D01*
X140866012Y-113635256D01*
X140866436Y-113640368D01*
X140867693Y-113645335D01*
X140867695Y-113645342D01*
X140920445Y-113853645D01*
X140921704Y-113858616D01*
X140923764Y-113863312D01*
X141010080Y-114060096D01*
X141010083Y-114060101D01*
X141012140Y-114064791D01*
X141071505Y-114155656D01*
X141132474Y-114248977D01*
X141132477Y-114248981D01*
X141135278Y-114253268D01*
X141138752Y-114257041D01*
X141138753Y-114257043D01*
X141284288Y-114415135D01*
X141284291Y-114415138D01*
X141287760Y-114418906D01*
X141291801Y-114422051D01*
X141461376Y-114554039D01*
X141461381Y-114554042D01*
X141465424Y-114557189D01*
X141508695Y-114580606D01*
X141554335Y-114623155D01*
X141573475Y-114682545D01*
X141561267Y-114743737D01*
X141520803Y-114791236D01*
X141344352Y-114914788D01*
X141336092Y-114921719D01*
X141176719Y-115081092D01*
X141169784Y-115089357D01*
X141040508Y-115273982D01*
X141035110Y-115283332D01*
X140939856Y-115487602D01*
X140936168Y-115497736D01*
X140884056Y-115692219D01*
X140883688Y-115703448D01*
X140894631Y-115706000D01*
X143527369Y-115706000D01*
X143539345Y-115703207D01*
X143549122Y-115681627D01*
X143554203Y-115660360D01*
X143599750Y-115613296D01*
X143662919Y-115596000D01*
X147058246Y-115596000D01*
X147114541Y-115609515D01*
X147158564Y-115647115D01*
X147180719Y-115700602D01*
X147176177Y-115758318D01*
X147145927Y-115807681D01*
X147129817Y-115823790D01*
X147129813Y-115823794D01*
X147124889Y-115828719D01*
X147121184Y-115834614D01*
X147121181Y-115834619D01*
X147031659Y-115977092D01*
X147031656Y-115977097D01*
X147027957Y-115982985D01*
X147025660Y-115989547D01*
X147025658Y-115989553D01*
X146970083Y-116148378D01*
X146970081Y-116148383D01*
X146967783Y-116154953D01*
X146967003Y-116161867D01*
X146967002Y-116161876D01*
X146959179Y-116231313D01*
X146947384Y-116336000D01*
X146948164Y-116342923D01*
X146967002Y-116510123D01*
X146967003Y-116510130D01*
X146967783Y-116517047D01*
X146970082Y-116523618D01*
X146970083Y-116523621D01*
X147006843Y-116628676D01*
X147027957Y-116689015D01*
X147031659Y-116694906D01*
X147033494Y-116697827D01*
X147034132Y-116700042D01*
X147034683Y-116701186D01*
X147034488Y-116701279D01*
X147052500Y-116763799D01*
X147052500Y-118468201D01*
X147034488Y-118530720D01*
X147034683Y-118530814D01*
X147034132Y-118531957D01*
X147033494Y-118534172D01*
X147027957Y-118542985D01*
X147025660Y-118549547D01*
X147025658Y-118549553D01*
X146970083Y-118708378D01*
X146970081Y-118708383D01*
X146967783Y-118714953D01*
X146967003Y-118721867D01*
X146967002Y-118721876D01*
X146948164Y-118889077D01*
X146947384Y-118896000D01*
X146948164Y-118902923D01*
X146957932Y-118989616D01*
X146946432Y-119057302D01*
X146900684Y-119108494D01*
X146834712Y-119127500D01*
X143904021Y-119127500D01*
X143856781Y-119118149D01*
X143816666Y-119091506D01*
X143583126Y-118859695D01*
X143550991Y-118804828D01*
X143550276Y-118741248D01*
X143555564Y-118720368D01*
X143574156Y-118496000D01*
X143555564Y-118271632D01*
X143500296Y-118053384D01*
X143409860Y-117847209D01*
X143286722Y-117658732D01*
X143134240Y-117493094D01*
X143121597Y-117483253D01*
X142960623Y-117357960D01*
X142960615Y-117357955D01*
X142956576Y-117354811D01*
X142952071Y-117352373D01*
X142952065Y-117352369D01*
X142913305Y-117331394D01*
X142867665Y-117288844D01*
X142848526Y-117229454D01*
X142860734Y-117168263D01*
X142901198Y-117120764D01*
X143077643Y-116997215D01*
X143085909Y-116990278D01*
X143245278Y-116830909D01*
X143252215Y-116822643D01*
X143381498Y-116638008D01*
X143386886Y-116628676D01*
X143482143Y-116424397D01*
X143485831Y-116414263D01*
X143537943Y-116219780D01*
X143538311Y-116208551D01*
X143527369Y-116206000D01*
X140894631Y-116206000D01*
X140883688Y-116208551D01*
X140884056Y-116219780D01*
X140936168Y-116414263D01*
X140939856Y-116424397D01*
X141035113Y-116628676D01*
X141040501Y-116638008D01*
X141169784Y-116822643D01*
X141176721Y-116830909D01*
X141336090Y-116990278D01*
X141344356Y-116997215D01*
X141520801Y-117120764D01*
X141561264Y-117168263D01*
X141573473Y-117229454D01*
X141554334Y-117288844D01*
X141508695Y-117331393D01*
X141469939Y-117352366D01*
X141469924Y-117352375D01*
X141465424Y-117354811D01*
X141461389Y-117357951D01*
X141461376Y-117357960D01*
X141291801Y-117489948D01*
X141291795Y-117489952D01*
X141287760Y-117493094D01*
X141284297Y-117496855D01*
X141284288Y-117496864D01*
X141138753Y-117654956D01*
X141138747Y-117654963D01*
X141135278Y-117658732D01*
X141132481Y-117663012D01*
X141132474Y-117663022D01*
X141014942Y-117842920D01*
X141012140Y-117847209D01*
X141010085Y-117851892D01*
X141010080Y-117851903D01*
X140923764Y-118048687D01*
X140921704Y-118053384D01*
X140920446Y-118058349D01*
X140920445Y-118058354D01*
X140867695Y-118266657D01*
X140867693Y-118266666D01*
X140866436Y-118271632D01*
X140866012Y-118276741D01*
X140866011Y-118276751D01*
X140848268Y-118490883D01*
X140847844Y-118496000D01*
X140848268Y-118501117D01*
X140866011Y-118715248D01*
X140866012Y-118715256D01*
X140866436Y-118720368D01*
X140867693Y-118725335D01*
X140867695Y-118725342D01*
X140887824Y-118804828D01*
X140921704Y-118938616D01*
X140923764Y-118943312D01*
X141010080Y-119140096D01*
X141010083Y-119140101D01*
X141012140Y-119144791D01*
X141071505Y-119235656D01*
X141132474Y-119328977D01*
X141132477Y-119328981D01*
X141135278Y-119333268D01*
X141280492Y-119491011D01*
X141309264Y-119543760D01*
X141309857Y-119603847D01*
X141282131Y-119657157D01*
X141232596Y-119691172D01*
X141123109Y-119732009D01*
X141123101Y-119732013D01*
X141114796Y-119735111D01*
X141107698Y-119740423D01*
X141107695Y-119740426D01*
X141004835Y-119817426D01*
X141004831Y-119817429D01*
X140997739Y-119822739D01*
X140992429Y-119829831D01*
X140992426Y-119829835D01*
X140915426Y-119932695D01*
X140915423Y-119932698D01*
X140910111Y-119939796D01*
X140907013Y-119948099D01*
X140907011Y-119948105D01*
X140861719Y-120069536D01*
X140861717Y-120069543D01*
X140859011Y-120076799D01*
X140858182Y-120084500D01*
X140858182Y-120084505D01*
X140852853Y-120134075D01*
X140852500Y-120137362D01*
X140852500Y-121934638D01*
X140859011Y-121995201D01*
X140861717Y-122002458D01*
X140861719Y-122002463D01*
X140907011Y-122123894D01*
X140910111Y-122132204D01*
X140915425Y-122139303D01*
X140915426Y-122139304D01*
X140984584Y-122231688D01*
X141006483Y-122279640D01*
X141006483Y-122332356D01*
X140984585Y-122380309D01*
X140915425Y-122472696D01*
X140915422Y-122472700D01*
X140910111Y-122479796D01*
X140907013Y-122488099D01*
X140907011Y-122488105D01*
X140861778Y-122609380D01*
X140826798Y-122659759D01*
X140771954Y-122687212D01*
X140710661Y-122685023D01*
X140657915Y-122653727D01*
X140545909Y-122541721D01*
X140537643Y-122534784D01*
X140353008Y-122405501D01*
X140343676Y-122400113D01*
X140139397Y-122304856D01*
X140129263Y-122301168D01*
X139934780Y-122249056D01*
X139923551Y-122248688D01*
X139921000Y-122259631D01*
X139921000Y-123196000D01*
X139421000Y-123196000D01*
X139421000Y-122259631D01*
X139418448Y-122248688D01*
X139407219Y-122249056D01*
X139212736Y-122301168D01*
X139202602Y-122304856D01*
X138998332Y-122400110D01*
X138988982Y-122405508D01*
X138804357Y-122534784D01*
X138796092Y-122541719D01*
X138636719Y-122701092D01*
X138629788Y-122709352D01*
X138506132Y-122885952D01*
X138460928Y-122925274D01*
X138402564Y-122938812D01*
X138344665Y-122923405D01*
X138300748Y-122882649D01*
X138209529Y-122743027D01*
X138209523Y-122743019D01*
X138206722Y-122738732D01*
X138172268Y-122701305D01*
X138147983Y-122662402D01*
X138139500Y-122617326D01*
X138139500Y-121204878D01*
X138139900Y-121194921D01*
X138140023Y-121193384D01*
X138141107Y-121187383D01*
X138139519Y-121098136D01*
X138139500Y-121095932D01*
X138139500Y-121059489D01*
X138139500Y-121056453D01*
X138139190Y-121053316D01*
X138139109Y-121052481D01*
X138138530Y-121042514D01*
X138137683Y-120994854D01*
X138137575Y-120988757D01*
X138130433Y-120955919D01*
X138128200Y-120941728D01*
X138125505Y-120914363D01*
X138124908Y-120908299D01*
X138109296Y-120856832D01*
X138106788Y-120847185D01*
X138095361Y-120794637D01*
X138081950Y-120763824D01*
X138076997Y-120750359D01*
X138067241Y-120718196D01*
X138041886Y-120670760D01*
X138037545Y-120661789D01*
X138018518Y-120618070D01*
X138016087Y-120612483D01*
X137996931Y-120584889D01*
X137989441Y-120572641D01*
X137973595Y-120542996D01*
X137969730Y-120538286D01*
X137969727Y-120538282D01*
X137939467Y-120501411D01*
X137933457Y-120493455D01*
X137931191Y-120490191D01*
X137905619Y-120460137D01*
X137904260Y-120458511D01*
X137847568Y-120389432D01*
X137842863Y-120385571D01*
X137841761Y-120384469D01*
X137835002Y-120377144D01*
X137222382Y-119657157D01*
X137199059Y-119629746D01*
X137177125Y-119592203D01*
X137169500Y-119549392D01*
X137169500Y-110650518D01*
X138541000Y-110650518D01*
X138541353Y-110657114D01*
X138546573Y-110705667D01*
X138550111Y-110720641D01*
X138594547Y-110839777D01*
X138602962Y-110855189D01*
X138678498Y-110956092D01*
X138690907Y-110968501D01*
X138791810Y-111044037D01*
X138807222Y-111052452D01*
X138926358Y-111096888D01*
X138941332Y-111100426D01*
X138989885Y-111105646D01*
X138996482Y-111106000D01*
X140674674Y-111106000D01*
X140687549Y-111102549D01*
X140691000Y-111089674D01*
X140691000Y-109872326D01*
X140687549Y-109859450D01*
X140674674Y-109856000D01*
X138557326Y-109856000D01*
X138544450Y-109859450D01*
X138541000Y-109872326D01*
X138541000Y-110650518D01*
X137169500Y-110650518D01*
X137169500Y-104513956D01*
X137188238Y-104448413D01*
X137238788Y-104402679D01*
X137305874Y-104390575D01*
X137369220Y-104415760D01*
X137409682Y-104470622D01*
X137440111Y-104552204D01*
X137527739Y-104669261D01*
X137644796Y-104756889D01*
X137653106Y-104759988D01*
X137653109Y-104759990D01*
X137671835Y-104766975D01*
X137714070Y-104793414D01*
X137742488Y-104834344D01*
X137752500Y-104883156D01*
X137752500Y-107030236D01*
X137746761Y-107067524D01*
X137730077Y-107101355D01*
X137720272Y-107115357D01*
X137713515Y-107125008D01*
X137713511Y-107125013D01*
X137710411Y-107129442D01*
X137708123Y-107134348D01*
X137708121Y-107134352D01*
X137623331Y-107316183D01*
X137623326Y-107316194D01*
X137621044Y-107321090D01*
X137619644Y-107326312D01*
X137619643Y-107326317D01*
X137592118Y-107429043D01*
X137566314Y-107525345D01*
X137565842Y-107530734D01*
X137565841Y-107530743D01*
X137548356Y-107730605D01*
X137547884Y-107736000D01*
X137548356Y-107741395D01*
X137565841Y-107941256D01*
X137565842Y-107941263D01*
X137566314Y-107946655D01*
X137621044Y-108150910D01*
X137623328Y-108155809D01*
X137623331Y-108155816D01*
X137670005Y-108255907D01*
X137710411Y-108342558D01*
X137713518Y-108346995D01*
X137713519Y-108346997D01*
X137731182Y-108372222D01*
X137831699Y-108515776D01*
X137981224Y-108665301D01*
X138154442Y-108786589D01*
X138298893Y-108853947D01*
X138336750Y-108871601D01*
X138346090Y-108875956D01*
X138429590Y-108898330D01*
X138449094Y-108903556D01*
X138496706Y-108928342D01*
X138529382Y-108970926D01*
X138541000Y-109023331D01*
X138541000Y-109339674D01*
X138544450Y-109352549D01*
X138557326Y-109356000D01*
X140674674Y-109356000D01*
X140687549Y-109352549D01*
X140691000Y-109339674D01*
X141191000Y-109339674D01*
X141194450Y-109352549D01*
X141207326Y-109356000D01*
X143324674Y-109356000D01*
X143337549Y-109352549D01*
X143341000Y-109339674D01*
X143341000Y-108561482D01*
X143340646Y-108554885D01*
X143335426Y-108506332D01*
X143331888Y-108491358D01*
X143287452Y-108372222D01*
X143279037Y-108356810D01*
X143203501Y-108255907D01*
X143191092Y-108243498D01*
X143090189Y-108167962D01*
X143074777Y-108159547D01*
X142955641Y-108115111D01*
X142940667Y-108111573D01*
X142892114Y-108106353D01*
X142885518Y-108106000D01*
X141207326Y-108106000D01*
X141194450Y-108109450D01*
X141191000Y-108122326D01*
X141191000Y-109339674D01*
X140691000Y-109339674D01*
X140691000Y-108122326D01*
X140687549Y-108109450D01*
X140674674Y-108106000D01*
X140074590Y-108106000D01*
X140019749Y-108093214D01*
X139976218Y-108057492D01*
X139952975Y-108006201D01*
X139954566Y-107957432D01*
X139953345Y-107957217D01*
X139954285Y-107951882D01*
X139955686Y-107946655D01*
X139974116Y-107736000D01*
X139955686Y-107525345D01*
X139900956Y-107321090D01*
X139811589Y-107129442D01*
X139791922Y-107101355D01*
X139775239Y-107067524D01*
X139769500Y-107030236D01*
X139769500Y-104858940D01*
X139785746Y-104797580D01*
X139830226Y-104752298D01*
X139891286Y-104734960D01*
X139952926Y-104750107D01*
X139957222Y-104752452D01*
X140076358Y-104796888D01*
X140091332Y-104800426D01*
X140139885Y-104805646D01*
X140146482Y-104806000D01*
X140674674Y-104806000D01*
X140687549Y-104802549D01*
X140691000Y-104789674D01*
X140691000Y-103180000D01*
X140707613Y-103118000D01*
X140753000Y-103072613D01*
X140815000Y-103056000D01*
X141067000Y-103056000D01*
X141129000Y-103072613D01*
G37*
G04 #@! TD.AperFunction*
G04 #@! TA.AperFunction,Conductor*
G36*
X159872250Y-115613296D02*
G01*
X159917797Y-115660360D01*
X159922877Y-115681627D01*
X159932654Y-115703207D01*
X159944631Y-115706000D01*
X160761000Y-115706000D01*
X160761000Y-116206000D01*
X159944631Y-116206000D01*
X159933688Y-116208551D01*
X159934056Y-116219780D01*
X159986168Y-116414263D01*
X159989856Y-116424397D01*
X160085113Y-116628676D01*
X160090501Y-116638008D01*
X160219784Y-116822643D01*
X160226721Y-116830909D01*
X160386090Y-116990278D01*
X160394356Y-116997215D01*
X160570801Y-117120764D01*
X160611264Y-117168263D01*
X160623473Y-117229454D01*
X160604334Y-117288844D01*
X160558695Y-117331393D01*
X160519939Y-117352366D01*
X160519924Y-117352375D01*
X160515424Y-117354811D01*
X160511389Y-117357951D01*
X160511376Y-117357960D01*
X160341801Y-117489948D01*
X160341795Y-117489952D01*
X160337760Y-117493094D01*
X160334297Y-117496855D01*
X160334288Y-117496864D01*
X160188753Y-117654956D01*
X160188747Y-117654963D01*
X160185278Y-117658732D01*
X160182481Y-117663012D01*
X160182474Y-117663022D01*
X160064942Y-117842920D01*
X160062140Y-117847209D01*
X160060085Y-117851892D01*
X160060080Y-117851903D01*
X159973764Y-118048687D01*
X159971704Y-118053384D01*
X159970446Y-118058349D01*
X159970445Y-118058354D01*
X159917695Y-118266657D01*
X159917693Y-118266666D01*
X159916436Y-118271632D01*
X159916012Y-118276741D01*
X159916011Y-118276751D01*
X159898268Y-118490883D01*
X159897844Y-118496000D01*
X159902282Y-118549553D01*
X159913398Y-118683703D01*
X159904998Y-118739880D01*
X159872432Y-118786417D01*
X159790405Y-118859695D01*
X159525911Y-119095975D01*
X159487514Y-119119351D01*
X159443303Y-119127500D01*
X148687288Y-119127500D01*
X148621316Y-119108494D01*
X148575568Y-119057302D01*
X148564068Y-118989616D01*
X148573836Y-118902923D01*
X148574616Y-118896000D01*
X148554217Y-118714953D01*
X148494043Y-118542985D01*
X148488505Y-118534172D01*
X148487867Y-118531957D01*
X148487317Y-118530814D01*
X148487511Y-118530720D01*
X148469500Y-118468201D01*
X148469500Y-116763799D01*
X148487511Y-116701279D01*
X148487317Y-116701186D01*
X148487867Y-116700042D01*
X148488506Y-116697827D01*
X148494043Y-116689015D01*
X148554217Y-116517047D01*
X148574616Y-116336000D01*
X148554217Y-116154953D01*
X148494043Y-115982985D01*
X148397111Y-115828719D01*
X148376073Y-115807681D01*
X148345823Y-115758318D01*
X148341281Y-115700602D01*
X148363436Y-115647115D01*
X148407459Y-115609515D01*
X148463754Y-115596000D01*
X159809081Y-115596000D01*
X159872250Y-115613296D01*
G37*
G04 #@! TD.AperFunction*
G04 #@! TA.AperFunction,Conductor*
G36*
X132813370Y-88710203D02*
G01*
X132857795Y-88749559D01*
X132878841Y-88805052D01*
X132871688Y-88863970D01*
X132837974Y-88912814D01*
X132832399Y-88917752D01*
X132832393Y-88917758D01*
X132826785Y-88922727D01*
X132822527Y-88928894D01*
X132822522Y-88928901D01*
X132806517Y-88952088D01*
X132797286Y-88963870D01*
X132778609Y-88984952D01*
X132778605Y-88984957D01*
X132773633Y-88990570D01*
X132770150Y-88997204D01*
X132770145Y-88997213D01*
X132757052Y-89022160D01*
X132749309Y-89034968D01*
X132739242Y-89049553D01*
X132729046Y-89064325D01*
X132726386Y-89071337D01*
X132726384Y-89071342D01*
X132716394Y-89097682D01*
X132710254Y-89111325D01*
X132697157Y-89136280D01*
X132697153Y-89136288D01*
X132693675Y-89142917D01*
X132691882Y-89150187D01*
X132691880Y-89150195D01*
X132685137Y-89177553D01*
X132680684Y-89191842D01*
X132670695Y-89218181D01*
X132670692Y-89218191D01*
X132668035Y-89225199D01*
X132667131Y-89232641D01*
X132667129Y-89232651D01*
X132663733Y-89260615D01*
X132661036Y-89275336D01*
X132654294Y-89302689D01*
X132654292Y-89302697D01*
X132652500Y-89309972D01*
X132652500Y-89317473D01*
X132652500Y-96068201D01*
X132634488Y-96130720D01*
X132634683Y-96130814D01*
X132634132Y-96131957D01*
X132633494Y-96134172D01*
X132627957Y-96142985D01*
X132625660Y-96149547D01*
X132625658Y-96149553D01*
X132570083Y-96308378D01*
X132570081Y-96308383D01*
X132567783Y-96314953D01*
X132567003Y-96321867D01*
X132567002Y-96321876D01*
X132555514Y-96423843D01*
X132547384Y-96496000D01*
X132548164Y-96502923D01*
X132567002Y-96670123D01*
X132567003Y-96670130D01*
X132567783Y-96677047D01*
X132570082Y-96683618D01*
X132570083Y-96683621D01*
X132601814Y-96774304D01*
X132627957Y-96849015D01*
X132631658Y-96854905D01*
X132631659Y-96854907D01*
X132707495Y-96975599D01*
X132724889Y-97003281D01*
X132853719Y-97132111D01*
X133007985Y-97229043D01*
X133179953Y-97289217D01*
X133361000Y-97309616D01*
X133542047Y-97289217D01*
X133714015Y-97229043D01*
X133868281Y-97132111D01*
X133997111Y-97003281D01*
X134094043Y-96849015D01*
X134154217Y-96677047D01*
X134174616Y-96496000D01*
X134154217Y-96314953D01*
X134094043Y-96142985D01*
X134088505Y-96134172D01*
X134087867Y-96131957D01*
X134087317Y-96130814D01*
X134087511Y-96130720D01*
X134069500Y-96068201D01*
X134069500Y-93096000D01*
X134430678Y-93096000D01*
X134431207Y-93101709D01*
X134448973Y-93293439D01*
X134449924Y-93303696D01*
X134507006Y-93504319D01*
X134509558Y-93509445D01*
X134509560Y-93509449D01*
X134597426Y-93685908D01*
X134597428Y-93685912D01*
X134599981Y-93691038D01*
X134603430Y-93695605D01*
X134603433Y-93695610D01*
X134722224Y-93852915D01*
X134722228Y-93852920D01*
X134725682Y-93857493D01*
X134729922Y-93861358D01*
X134875593Y-93994155D01*
X134875596Y-93994157D01*
X134879829Y-93998016D01*
X135057172Y-94107823D01*
X135251673Y-94183173D01*
X135456707Y-94221500D01*
X135659564Y-94221500D01*
X135665293Y-94221500D01*
X135870327Y-94183173D01*
X136064828Y-94107823D01*
X136242171Y-93998016D01*
X136396318Y-93857493D01*
X136522019Y-93691038D01*
X136614994Y-93504319D01*
X136672076Y-93303696D01*
X136691322Y-93096000D01*
X136672076Y-92888304D01*
X136614994Y-92687681D01*
X136522019Y-92500962D01*
X136518566Y-92496389D01*
X136399775Y-92339084D01*
X136399771Y-92339080D01*
X136396318Y-92334507D01*
X136291036Y-92238530D01*
X136246406Y-92197844D01*
X136246401Y-92197840D01*
X136242171Y-92193984D01*
X136237305Y-92190971D01*
X136237301Y-92190968D01*
X136069699Y-92087193D01*
X136069698Y-92087192D01*
X136064828Y-92084177D01*
X136059490Y-92082109D01*
X136059486Y-92082107D01*
X135875674Y-92010898D01*
X135875669Y-92010896D01*
X135870327Y-92008827D01*
X135864692Y-92007773D01*
X135864690Y-92007773D01*
X135670923Y-91971552D01*
X135670918Y-91971551D01*
X135665293Y-91970500D01*
X135456707Y-91970500D01*
X135451082Y-91971551D01*
X135451076Y-91971552D01*
X135257309Y-92007773D01*
X135257304Y-92007774D01*
X135251673Y-92008827D01*
X135246333Y-92010895D01*
X135246325Y-92010898D01*
X135062513Y-92082107D01*
X135062504Y-92082110D01*
X135057172Y-92084177D01*
X135052305Y-92087190D01*
X135052300Y-92087193D01*
X134884698Y-92190968D01*
X134884689Y-92190974D01*
X134879829Y-92193984D01*
X134875603Y-92197836D01*
X134875593Y-92197844D01*
X134729922Y-92330641D01*
X134729917Y-92330645D01*
X134725682Y-92334507D01*
X134722233Y-92339073D01*
X134722224Y-92339084D01*
X134603433Y-92496389D01*
X134603426Y-92496399D01*
X134599981Y-92500962D01*
X134597431Y-92506082D01*
X134597426Y-92506091D01*
X134509560Y-92682550D01*
X134509556Y-92682558D01*
X134507006Y-92687681D01*
X134505437Y-92693193D01*
X134505437Y-92693195D01*
X134501269Y-92707846D01*
X134449924Y-92888304D01*
X134449395Y-92894009D01*
X134449395Y-92894011D01*
X134431466Y-93087500D01*
X134430678Y-93096000D01*
X134069500Y-93096000D01*
X134069500Y-90228500D01*
X134086113Y-90166500D01*
X134131500Y-90121113D01*
X134193500Y-90104500D01*
X140637000Y-90104500D01*
X140699000Y-90121113D01*
X140744387Y-90166500D01*
X140761000Y-90228500D01*
X140761000Y-95501113D01*
X140745528Y-95561094D01*
X140702972Y-95606107D01*
X140559619Y-95696181D01*
X140559614Y-95696184D01*
X140553719Y-95699889D01*
X140548794Y-95704813D01*
X140548790Y-95704817D01*
X140429817Y-95823790D01*
X140429813Y-95823794D01*
X140424889Y-95828719D01*
X140421184Y-95834614D01*
X140421181Y-95834619D01*
X140331659Y-95977092D01*
X140331656Y-95977097D01*
X140327957Y-95982985D01*
X140325660Y-95989547D01*
X140325658Y-95989553D01*
X140270083Y-96148378D01*
X140270081Y-96148383D01*
X140267783Y-96154953D01*
X140267003Y-96161867D01*
X140267002Y-96161876D01*
X140253988Y-96277384D01*
X140233221Y-96333352D01*
X140188709Y-96373130D01*
X140130768Y-96387500D01*
X138305832Y-96387500D01*
X138258379Y-96378061D01*
X138218151Y-96351181D01*
X137659317Y-95792347D01*
X137629956Y-95745620D01*
X137596341Y-95649553D01*
X137594043Y-95642985D01*
X137497111Y-95488719D01*
X137368281Y-95359889D01*
X137355915Y-95352119D01*
X137219907Y-95266659D01*
X137219905Y-95266658D01*
X137214015Y-95262957D01*
X137207449Y-95260659D01*
X137207446Y-95260658D01*
X137048621Y-95205083D01*
X137048618Y-95205082D01*
X137042047Y-95202783D01*
X137035130Y-95202003D01*
X137035123Y-95202002D01*
X136867923Y-95183164D01*
X136861000Y-95182384D01*
X136854077Y-95183164D01*
X136686876Y-95202002D01*
X136686867Y-95202003D01*
X136679953Y-95202783D01*
X136673383Y-95205081D01*
X136673378Y-95205083D01*
X136514553Y-95260658D01*
X136514547Y-95260660D01*
X136507985Y-95262957D01*
X136502097Y-95266656D01*
X136502092Y-95266659D01*
X136359619Y-95356181D01*
X136359614Y-95356184D01*
X136353719Y-95359889D01*
X136348794Y-95364813D01*
X136348790Y-95364817D01*
X136229817Y-95483790D01*
X136229813Y-95483794D01*
X136224889Y-95488719D01*
X136221184Y-95494614D01*
X136221181Y-95494619D01*
X136131659Y-95637092D01*
X136131656Y-95637097D01*
X136127957Y-95642985D01*
X136125660Y-95649547D01*
X136125658Y-95649553D01*
X136070083Y-95808378D01*
X136070081Y-95808383D01*
X136067783Y-95814953D01*
X136067003Y-95821867D01*
X136067002Y-95821876D01*
X136049514Y-95977092D01*
X136047384Y-95996000D01*
X136048164Y-96002923D01*
X136067002Y-96170123D01*
X136067003Y-96170130D01*
X136067783Y-96177047D01*
X136070082Y-96183618D01*
X136070083Y-96183621D01*
X136123402Y-96336000D01*
X136127957Y-96349015D01*
X136131658Y-96354905D01*
X136131659Y-96354907D01*
X136215964Y-96489077D01*
X136224889Y-96503281D01*
X136353719Y-96632111D01*
X136507985Y-96729043D01*
X136610621Y-96764956D01*
X136657347Y-96794317D01*
X137442223Y-97579193D01*
X137447342Y-97584630D01*
X137487727Y-97630215D01*
X137493896Y-97634473D01*
X137493897Y-97634474D01*
X137537822Y-97664793D01*
X137543851Y-97669229D01*
X137591774Y-97706775D01*
X137601239Y-97711035D01*
X137620780Y-97722055D01*
X137629325Y-97727954D01*
X137669740Y-97743281D01*
X137686233Y-97749536D01*
X137693155Y-97752403D01*
X137748671Y-97777389D01*
X137756049Y-97778741D01*
X137758880Y-97779260D01*
X137780497Y-97785285D01*
X137790199Y-97788965D01*
X137850626Y-97796302D01*
X137858011Y-97797425D01*
X137917908Y-97808402D01*
X137978681Y-97804726D01*
X137986169Y-97804500D01*
X139528500Y-97804500D01*
X139590500Y-97821113D01*
X139635887Y-97866500D01*
X139652500Y-97928500D01*
X139652500Y-98251211D01*
X139635433Y-98313991D01*
X139588931Y-98359489D01*
X139525793Y-98375181D01*
X139467993Y-98358104D01*
X139467816Y-98358486D01*
X139465277Y-98357302D01*
X139463401Y-98356748D01*
X139461270Y-98355433D01*
X139448267Y-98349370D01*
X139295125Y-98298624D01*
X139281958Y-98295805D01*
X139189109Y-98286319D01*
X139182832Y-98286000D01*
X138927326Y-98286000D01*
X138914450Y-98289450D01*
X138911000Y-98302326D01*
X138911000Y-99412000D01*
X138894387Y-99474000D01*
X138849000Y-99519387D01*
X138787000Y-99536000D01*
X137452327Y-99536000D01*
X137439451Y-99539450D01*
X137436001Y-99552326D01*
X137436001Y-99582829D01*
X137436321Y-99589111D01*
X137445805Y-99681959D01*
X137448623Y-99695122D01*
X137499370Y-99848267D01*
X137505432Y-99861266D01*
X137589890Y-99998194D01*
X137598794Y-100009455D01*
X137712548Y-100123209D01*
X137725421Y-100133388D01*
X137761640Y-100179883D01*
X137772301Y-100237849D01*
X137754996Y-100294190D01*
X137722755Y-100326916D01*
X137724163Y-100328697D01*
X137718495Y-100333177D01*
X137712348Y-100336970D01*
X137707240Y-100342077D01*
X137707236Y-100342081D01*
X137658137Y-100391181D01*
X137617909Y-100418061D01*
X137570456Y-100427500D01*
X136216640Y-100427500D01*
X136204486Y-100426903D01*
X136167061Y-100423217D01*
X136161000Y-100422620D01*
X136154939Y-100423217D01*
X136111453Y-100427500D01*
X135969363Y-100441494D01*
X135969355Y-100441495D01*
X135963299Y-100442092D01*
X135957475Y-100443858D01*
X135957468Y-100443860D01*
X135779023Y-100497991D01*
X135779019Y-100497992D01*
X135773196Y-100499759D01*
X135767830Y-100502626D01*
X135767823Y-100502630D01*
X135603372Y-100590531D01*
X135603368Y-100590533D01*
X135597996Y-100593405D01*
X135593288Y-100597268D01*
X135593283Y-100597272D01*
X135449138Y-100715569D01*
X135449133Y-100715573D01*
X135444432Y-100719432D01*
X135440573Y-100724133D01*
X135440569Y-100724138D01*
X135322272Y-100868283D01*
X135322268Y-100868288D01*
X135318405Y-100872996D01*
X135315533Y-100878368D01*
X135315531Y-100878372D01*
X135227630Y-101042823D01*
X135227626Y-101042830D01*
X135224759Y-101048196D01*
X135222992Y-101054019D01*
X135222991Y-101054023D01*
X135168860Y-101232468D01*
X135168858Y-101232475D01*
X135167092Y-101238299D01*
X135166495Y-101244355D01*
X135166494Y-101244363D01*
X135159967Y-101310638D01*
X135147620Y-101436000D01*
X135148217Y-101442061D01*
X135151903Y-101479486D01*
X135152500Y-101491640D01*
X135152500Y-119867122D01*
X135152100Y-119877079D01*
X135151976Y-119878616D01*
X135150893Y-119884617D01*
X135151001Y-119890710D01*
X135151001Y-119890715D01*
X135152480Y-119973863D01*
X135152500Y-119976068D01*
X135152500Y-120015547D01*
X135152798Y-120018572D01*
X135152799Y-120018593D01*
X135152893Y-120019545D01*
X135153468Y-120029471D01*
X135154316Y-120077151D01*
X135154316Y-120077157D01*
X135154425Y-120083243D01*
X135155719Y-120089193D01*
X135161563Y-120116071D01*
X135163796Y-120130257D01*
X135166493Y-120157633D01*
X135166495Y-120157645D01*
X135167092Y-120163701D01*
X135168859Y-120169526D01*
X135182702Y-120215164D01*
X135185207Y-120224803D01*
X135195342Y-120271405D01*
X135195345Y-120271417D01*
X135196639Y-120277363D01*
X135199069Y-120282948D01*
X135199070Y-120282949D01*
X135210043Y-120308164D01*
X135215003Y-120321646D01*
X135222990Y-120347973D01*
X135224759Y-120353804D01*
X135227628Y-120359172D01*
X135227632Y-120359181D01*
X135250115Y-120401244D01*
X135254455Y-120410212D01*
X135275913Y-120459517D01*
X135279389Y-120464524D01*
X135295067Y-120487109D01*
X135302562Y-120499365D01*
X135318405Y-120529004D01*
X135322268Y-120533711D01*
X135322270Y-120533714D01*
X135352527Y-120570581D01*
X135358537Y-120578536D01*
X135360809Y-120581809D01*
X135362777Y-120584122D01*
X135362784Y-120584131D01*
X135386360Y-120611838D01*
X135387756Y-120613508D01*
X135444432Y-120682568D01*
X135449136Y-120686428D01*
X135450237Y-120687529D01*
X135456996Y-120694854D01*
X135799183Y-121097012D01*
X136071493Y-121417047D01*
X136092940Y-121442252D01*
X136114875Y-121479797D01*
X136122500Y-121522608D01*
X136122500Y-122436851D01*
X136105591Y-122499362D01*
X136059475Y-122544824D01*
X135996729Y-122560838D01*
X135934466Y-122543038D01*
X135889668Y-122496277D01*
X135879041Y-122476815D01*
X135803501Y-122375907D01*
X135791092Y-122363498D01*
X135690189Y-122287962D01*
X135674777Y-122279547D01*
X135555641Y-122235111D01*
X135540667Y-122231573D01*
X135492114Y-122226353D01*
X135485518Y-122226000D01*
X134857326Y-122226000D01*
X134844450Y-122229450D01*
X134841000Y-122242326D01*
X134841000Y-124909674D01*
X134844450Y-124922549D01*
X134857326Y-124926000D01*
X135485518Y-124926000D01*
X135492114Y-124925646D01*
X135540667Y-124920426D01*
X135555641Y-124916888D01*
X135674777Y-124872452D01*
X135690189Y-124864037D01*
X135791092Y-124788501D01*
X135803501Y-124776092D01*
X135879037Y-124675189D01*
X135887452Y-124659777D01*
X135930681Y-124543877D01*
X135966633Y-124492663D01*
X136023014Y-124465525D01*
X136085469Y-124469373D01*
X136138092Y-124503227D01*
X136204288Y-124575135D01*
X136204291Y-124575138D01*
X136207760Y-124578906D01*
X136211801Y-124582051D01*
X136381376Y-124714039D01*
X136381381Y-124714042D01*
X136385424Y-124717189D01*
X136389931Y-124719628D01*
X136389934Y-124719630D01*
X136517197Y-124788501D01*
X136583426Y-124824342D01*
X136796365Y-124897444D01*
X137018431Y-124934500D01*
X137238436Y-124934500D01*
X137243569Y-124934500D01*
X137465635Y-124897444D01*
X137678574Y-124824342D01*
X137876576Y-124717189D01*
X138054240Y-124578906D01*
X138206722Y-124413268D01*
X138297190Y-124274795D01*
X138341982Y-124233561D01*
X138401000Y-124218616D01*
X138460018Y-124233561D01*
X138504809Y-124274795D01*
X138592470Y-124408972D01*
X138592478Y-124408982D01*
X138595278Y-124413268D01*
X138598752Y-124417041D01*
X138598753Y-124417043D01*
X138744288Y-124575135D01*
X138744291Y-124575138D01*
X138747760Y-124578906D01*
X138751801Y-124582051D01*
X138921376Y-124714039D01*
X138921381Y-124714042D01*
X138925424Y-124717189D01*
X138929931Y-124719628D01*
X138929934Y-124719630D01*
X139057197Y-124788501D01*
X139123426Y-124824342D01*
X139336365Y-124897444D01*
X139558431Y-124934500D01*
X139778436Y-124934500D01*
X139783569Y-124934500D01*
X140005635Y-124897444D01*
X140218574Y-124824342D01*
X140416576Y-124717189D01*
X140594240Y-124578906D01*
X140663911Y-124503223D01*
X140716530Y-124469373D01*
X140778984Y-124465525D01*
X140835366Y-124492663D01*
X140871318Y-124543876D01*
X140914548Y-124659779D01*
X140922962Y-124675189D01*
X140998498Y-124776092D01*
X141010907Y-124788501D01*
X141111810Y-124864037D01*
X141127222Y-124872452D01*
X141246358Y-124916888D01*
X141261332Y-124920426D01*
X141309885Y-124925646D01*
X141316482Y-124926000D01*
X141944674Y-124926000D01*
X141957549Y-124922549D01*
X141961000Y-124909674D01*
X142461000Y-124909674D01*
X142464450Y-124922549D01*
X142477326Y-124926000D01*
X143105518Y-124926000D01*
X143112114Y-124925646D01*
X143160667Y-124920426D01*
X143175641Y-124916888D01*
X143294777Y-124872452D01*
X143310189Y-124864037D01*
X143411092Y-124788501D01*
X143423501Y-124776092D01*
X143499037Y-124675189D01*
X143507452Y-124659777D01*
X143551888Y-124540641D01*
X143555426Y-124525667D01*
X143560646Y-124477114D01*
X143561000Y-124470518D01*
X143561000Y-123842326D01*
X143557549Y-123829450D01*
X143544674Y-123826000D01*
X142477326Y-123826000D01*
X142464450Y-123829450D01*
X142461000Y-123842326D01*
X142461000Y-124909674D01*
X141961000Y-124909674D01*
X141961000Y-123576885D01*
X142211000Y-123576000D01*
X142308948Y-123326000D01*
X143544674Y-123326000D01*
X143557549Y-123322549D01*
X143561000Y-123309674D01*
X143561000Y-122681482D01*
X143560646Y-122674885D01*
X143555426Y-122626332D01*
X143551888Y-122611358D01*
X143507452Y-122492222D01*
X143499035Y-122476805D01*
X143432107Y-122387402D01*
X143410207Y-122339449D01*
X143410207Y-122286733D01*
X143432104Y-122238783D01*
X143511889Y-122132204D01*
X143562989Y-121995201D01*
X143569500Y-121934638D01*
X143569500Y-121480832D01*
X143578939Y-121433379D01*
X143605819Y-121393151D01*
X143818151Y-121180819D01*
X143858379Y-121153939D01*
X143905832Y-121144500D01*
X148026262Y-121144500D01*
X148084203Y-121158870D01*
X148128716Y-121198649D01*
X148149481Y-121254615D01*
X148153661Y-121291712D01*
X148167002Y-121410122D01*
X148167003Y-121410128D01*
X148167783Y-121417047D01*
X148170082Y-121423618D01*
X148170083Y-121423621D01*
X148176602Y-121442252D01*
X148227957Y-121589015D01*
X148231659Y-121594906D01*
X148233494Y-121597827D01*
X148234132Y-121600042D01*
X148234683Y-121601186D01*
X148234488Y-121601279D01*
X148252500Y-121663799D01*
X148252500Y-122545963D01*
X148252274Y-122553450D01*
X148249050Y-122606731D01*
X148249050Y-122606738D01*
X148248598Y-122614219D01*
X148249949Y-122621595D01*
X148249950Y-122621601D01*
X148259569Y-122674095D01*
X148260696Y-122681495D01*
X148268035Y-122741927D01*
X148270691Y-122748932D01*
X148270693Y-122748938D01*
X148271713Y-122751626D01*
X148277737Y-122773235D01*
X148279611Y-122783455D01*
X148282685Y-122790287D01*
X148282688Y-122790294D01*
X148304597Y-122838974D01*
X148307463Y-122845892D01*
X148329046Y-122902801D01*
X148333305Y-122908971D01*
X148334942Y-122911343D01*
X148345962Y-122930882D01*
X148347143Y-122933507D01*
X148347147Y-122933514D01*
X148350225Y-122940352D01*
X148354849Y-122946255D01*
X148354851Y-122946257D01*
X148387761Y-122988263D01*
X148392199Y-122994294D01*
X148426785Y-123044399D01*
X148432397Y-123049371D01*
X148432400Y-123049374D01*
X148472351Y-123084767D01*
X148477805Y-123089901D01*
X152307097Y-126919193D01*
X152312216Y-126924630D01*
X152352601Y-126970215D01*
X152358770Y-126974473D01*
X152358771Y-126974474D01*
X152373860Y-126984889D01*
X152395340Y-126999716D01*
X152402696Y-127004793D01*
X152408725Y-127009229D01*
X152456648Y-127046775D01*
X152466104Y-127051030D01*
X152485668Y-127062065D01*
X152488024Y-127063692D01*
X152488027Y-127063693D01*
X152494199Y-127067954D01*
X152501212Y-127070613D01*
X152501213Y-127070614D01*
X152551129Y-127089544D01*
X152558043Y-127092408D01*
X152613545Y-127117388D01*
X152623749Y-127119258D01*
X152645369Y-127125284D01*
X152655073Y-127128965D01*
X152715523Y-127136305D01*
X152722890Y-127137425D01*
X152782781Y-127148401D01*
X152843538Y-127144726D01*
X152851026Y-127144500D01*
X162609524Y-127144500D01*
X162617028Y-127144500D01*
X162651675Y-127135959D01*
X162666386Y-127133264D01*
X162701801Y-127128965D01*
X162735172Y-127116308D01*
X162749434Y-127111864D01*
X162784083Y-127103325D01*
X162815663Y-127086749D01*
X162829319Y-127080604D01*
X162839154Y-127076873D01*
X162862675Y-127067954D01*
X162892041Y-127047682D01*
X162904844Y-127039943D01*
X162936430Y-127023367D01*
X162963142Y-126999700D01*
X162974907Y-126990483D01*
X163004273Y-126970215D01*
X163027924Y-126943516D01*
X163038517Y-126932924D01*
X163065215Y-126909273D01*
X163085483Y-126879907D01*
X163094700Y-126868142D01*
X163118367Y-126841430D01*
X163134943Y-126809844D01*
X163142682Y-126797041D01*
X163162954Y-126767675D01*
X163175604Y-126734319D01*
X163181751Y-126720661D01*
X163198325Y-126689083D01*
X163206864Y-126654434D01*
X163211308Y-126640172D01*
X163223965Y-126606801D01*
X163228264Y-126571386D01*
X163230959Y-126556675D01*
X163239500Y-126522028D01*
X163239500Y-126349972D01*
X163239500Y-124003799D01*
X163257511Y-123941279D01*
X163257317Y-123941186D01*
X163257867Y-123940042D01*
X163258506Y-123937827D01*
X163264043Y-123929015D01*
X163324217Y-123757047D01*
X163344616Y-123576000D01*
X163324217Y-123394953D01*
X163264043Y-123222985D01*
X163167111Y-123068719D01*
X163038281Y-122939889D01*
X163028124Y-122933507D01*
X162889907Y-122846659D01*
X162889905Y-122846658D01*
X162884015Y-122842957D01*
X162877449Y-122840659D01*
X162877446Y-122840658D01*
X162718621Y-122785083D01*
X162718618Y-122785082D01*
X162712047Y-122782783D01*
X162705130Y-122782003D01*
X162705123Y-122782002D01*
X162537923Y-122763164D01*
X162531000Y-122762384D01*
X162524077Y-122763164D01*
X162356876Y-122782002D01*
X162356867Y-122782003D01*
X162349953Y-122782783D01*
X162343383Y-122785081D01*
X162343378Y-122785083D01*
X162184553Y-122840658D01*
X162184547Y-122840660D01*
X162177985Y-122842957D01*
X162172097Y-122846656D01*
X162172092Y-122846659D01*
X162029619Y-122936181D01*
X162029614Y-122936184D01*
X162023719Y-122939889D01*
X162018794Y-122944813D01*
X162018790Y-122944817D01*
X161899817Y-123063790D01*
X161899813Y-123063794D01*
X161894889Y-123068719D01*
X161891184Y-123074614D01*
X161891181Y-123074619D01*
X161801659Y-123217092D01*
X161801656Y-123217097D01*
X161797957Y-123222985D01*
X161795660Y-123229547D01*
X161795658Y-123229553D01*
X161740083Y-123388378D01*
X161740081Y-123388383D01*
X161737783Y-123394953D01*
X161737003Y-123401867D01*
X161737002Y-123401876D01*
X161718164Y-123569077D01*
X161717384Y-123576000D01*
X161718164Y-123582923D01*
X161737002Y-123750123D01*
X161737003Y-123750130D01*
X161737783Y-123757047D01*
X161740082Y-123763618D01*
X161740083Y-123763621D01*
X161763117Y-123829450D01*
X161797957Y-123929015D01*
X161801659Y-123934906D01*
X161803494Y-123937827D01*
X161804132Y-123940042D01*
X161804683Y-123941186D01*
X161804488Y-123941279D01*
X161822500Y-124003799D01*
X161822500Y-125603500D01*
X161805887Y-125665500D01*
X161760500Y-125710887D01*
X161698500Y-125727500D01*
X156892246Y-125727500D01*
X156831051Y-125711348D01*
X156785798Y-125667100D01*
X156768277Y-125606283D01*
X156783052Y-125544741D01*
X156826274Y-125498506D01*
X156832707Y-125494463D01*
X156868281Y-125472111D01*
X156997111Y-125343281D01*
X157094043Y-125189015D01*
X157154217Y-125017047D01*
X157174616Y-124836000D01*
X157154217Y-124654953D01*
X157094043Y-124482985D01*
X156997111Y-124328719D01*
X156868281Y-124199889D01*
X156738053Y-124118061D01*
X156719907Y-124106659D01*
X156719905Y-124106658D01*
X156714015Y-124102957D01*
X156707449Y-124100659D01*
X156707446Y-124100658D01*
X156548621Y-124045083D01*
X156548618Y-124045082D01*
X156542047Y-124042783D01*
X156535130Y-124042003D01*
X156535123Y-124042002D01*
X156367923Y-124023164D01*
X156361000Y-124022384D01*
X156354077Y-124023164D01*
X156186876Y-124042002D01*
X156186867Y-124042003D01*
X156179953Y-124042783D01*
X156173383Y-124045081D01*
X156173378Y-124045083D01*
X156014553Y-124100658D01*
X156014547Y-124100660D01*
X156007985Y-124102957D01*
X156002094Y-124106658D01*
X156002093Y-124106659D01*
X155999173Y-124108494D01*
X155996957Y-124109132D01*
X155995814Y-124109683D01*
X155995720Y-124109488D01*
X155933201Y-124127500D01*
X152505832Y-124127500D01*
X152458379Y-124118061D01*
X152418151Y-124091181D01*
X150505819Y-122178849D01*
X150478939Y-122138621D01*
X150469500Y-122091168D01*
X150469500Y-121663799D01*
X150487511Y-121601279D01*
X150487317Y-121601186D01*
X150487867Y-121600042D01*
X150488506Y-121597827D01*
X150494043Y-121589015D01*
X150554217Y-121417047D01*
X150572518Y-121254615D01*
X150593284Y-121198649D01*
X150637797Y-121158870D01*
X150695738Y-121144500D01*
X159600675Y-121144500D01*
X159646727Y-121153369D01*
X159824552Y-121224499D01*
X159865466Y-121251239D01*
X159892867Y-121291712D01*
X159902500Y-121339630D01*
X159902500Y-121934638D01*
X159909011Y-121995201D01*
X159911717Y-122002458D01*
X159911719Y-122002463D01*
X159944805Y-122091168D01*
X159960111Y-122132204D01*
X159965425Y-122139303D01*
X159965426Y-122139304D01*
X160032908Y-122229450D01*
X160047739Y-122249261D01*
X160164796Y-122336889D01*
X160301799Y-122387989D01*
X160362362Y-122394500D01*
X162156328Y-122394500D01*
X162159638Y-122394500D01*
X162220201Y-122387989D01*
X162357204Y-122336889D01*
X162474261Y-122249261D01*
X162561889Y-122132204D01*
X162612989Y-121995201D01*
X162619500Y-121934638D01*
X162619500Y-120137362D01*
X162612989Y-120076799D01*
X162561889Y-119939796D01*
X162474261Y-119822739D01*
X162357204Y-119735111D01*
X162348895Y-119732011D01*
X162348888Y-119732008D01*
X162239404Y-119691172D01*
X162189869Y-119657157D01*
X162162142Y-119603847D01*
X162162735Y-119543760D01*
X162191505Y-119491013D01*
X162336722Y-119333268D01*
X162459860Y-119144791D01*
X162550296Y-118938616D01*
X162605564Y-118720368D01*
X162624156Y-118496000D01*
X162605564Y-118271632D01*
X162550296Y-118053384D01*
X162459860Y-117847209D01*
X162336722Y-117658732D01*
X162184240Y-117493094D01*
X162171597Y-117483253D01*
X162010623Y-117357960D01*
X162010615Y-117357955D01*
X162006576Y-117354811D01*
X162002066Y-117352370D01*
X162002061Y-117352367D01*
X161970070Y-117335055D01*
X161922564Y-117289474D01*
X161905086Y-117226000D01*
X161922564Y-117162526D01*
X161970070Y-117116945D01*
X161970109Y-117116923D01*
X162006576Y-117097189D01*
X162184240Y-116958906D01*
X162336722Y-116793268D01*
X162459860Y-116604791D01*
X162550296Y-116398616D01*
X162605564Y-116180368D01*
X162624156Y-115956000D01*
X162605564Y-115731632D01*
X162550296Y-115513384D01*
X162459860Y-115307209D01*
X162336722Y-115118732D01*
X162184240Y-114953094D01*
X162171597Y-114943253D01*
X162010623Y-114817960D01*
X162010615Y-114817955D01*
X162006576Y-114814811D01*
X162002071Y-114812373D01*
X162002065Y-114812369D01*
X161963305Y-114791394D01*
X161917665Y-114748844D01*
X161898526Y-114689454D01*
X161910734Y-114628263D01*
X161951198Y-114580764D01*
X162127643Y-114457215D01*
X162135909Y-114450278D01*
X162295278Y-114290909D01*
X162302215Y-114282643D01*
X162431498Y-114098008D01*
X162436886Y-114088676D01*
X162532143Y-113884397D01*
X162535831Y-113874263D01*
X162587943Y-113679780D01*
X162588311Y-113668551D01*
X162577369Y-113666000D01*
X159944631Y-113666000D01*
X159933688Y-113668551D01*
X159934056Y-113679780D01*
X159986168Y-113874263D01*
X159989856Y-113884397D01*
X160048937Y-114011095D01*
X160060290Y-114071610D01*
X160041136Y-114130125D01*
X159996198Y-114172214D01*
X159936555Y-114187500D01*
X150043500Y-114187500D01*
X149981500Y-114170887D01*
X149936113Y-114125500D01*
X149919500Y-114063500D01*
X149919500Y-112520672D01*
X149919500Y-112517362D01*
X149912989Y-112456799D01*
X149861889Y-112319796D01*
X149774261Y-112202739D01*
X149733802Y-112172452D01*
X149664304Y-112120426D01*
X149664303Y-112120425D01*
X149657204Y-112115111D01*
X149648896Y-112112012D01*
X149648894Y-112112011D01*
X149527463Y-112066719D01*
X149527458Y-112066717D01*
X149520201Y-112064011D01*
X149512497Y-112063182D01*
X149512494Y-112063182D01*
X149462924Y-112057853D01*
X149462918Y-112057852D01*
X149459638Y-112057500D01*
X147662362Y-112057500D01*
X147659082Y-112057852D01*
X147659075Y-112057853D01*
X147609505Y-112063182D01*
X147609500Y-112063182D01*
X147601799Y-112064011D01*
X147594543Y-112066717D01*
X147594536Y-112066719D01*
X147473105Y-112112011D01*
X147473099Y-112112013D01*
X147464796Y-112115111D01*
X147457698Y-112120423D01*
X147457695Y-112120426D01*
X147354835Y-112197426D01*
X147354831Y-112197429D01*
X147347739Y-112202739D01*
X147342429Y-112209831D01*
X147342426Y-112209835D01*
X147265426Y-112312695D01*
X147265423Y-112312698D01*
X147260111Y-112319796D01*
X147257013Y-112328099D01*
X147257011Y-112328105D01*
X147211719Y-112449536D01*
X147211717Y-112449543D01*
X147209011Y-112456799D01*
X147208182Y-112464500D01*
X147208182Y-112464505D01*
X147202853Y-112514075D01*
X147202500Y-112517362D01*
X147202500Y-112520672D01*
X147202500Y-114063500D01*
X147185887Y-114125500D01*
X147140500Y-114170887D01*
X147078500Y-114187500D01*
X143535445Y-114187500D01*
X143475802Y-114172214D01*
X143430864Y-114130125D01*
X143411710Y-114071610D01*
X143423063Y-114011095D01*
X143482143Y-113884397D01*
X143485831Y-113874263D01*
X143537943Y-113679780D01*
X143538311Y-113668551D01*
X143527369Y-113666000D01*
X142461000Y-113666000D01*
X142461000Y-113296000D01*
X142604684Y-113166000D01*
X143527369Y-113166000D01*
X143538311Y-113163448D01*
X143537943Y-113152219D01*
X143485831Y-112957736D01*
X143482143Y-112947602D01*
X143386886Y-112743324D01*
X143381498Y-112733992D01*
X143328181Y-112657848D01*
X143306783Y-112602650D01*
X143313414Y-112543823D01*
X143346557Y-112494781D01*
X144525580Y-111428046D01*
X144564192Y-111404289D01*
X144608769Y-111396000D01*
X149144674Y-111396000D01*
X149161000Y-111396000D01*
X149161000Y-110977775D01*
X149176286Y-110918132D01*
X149218375Y-110873194D01*
X149276891Y-110854040D01*
X149337406Y-110865393D01*
X149362607Y-110877144D01*
X149372736Y-110880831D01*
X149567219Y-110932943D01*
X149578448Y-110933311D01*
X149581000Y-110922369D01*
X150081000Y-110922369D01*
X150083551Y-110933311D01*
X150094780Y-110932943D01*
X150289263Y-110880831D01*
X150299397Y-110877143D01*
X150301848Y-110876000D01*
X157357844Y-110876000D01*
X157358268Y-110881117D01*
X157376011Y-111095248D01*
X157376012Y-111095256D01*
X157376436Y-111100368D01*
X157377693Y-111105335D01*
X157377695Y-111105342D01*
X157387061Y-111142326D01*
X157431704Y-111318616D01*
X157433764Y-111323312D01*
X157520080Y-111520096D01*
X157520083Y-111520101D01*
X157522140Y-111524791D01*
X157581505Y-111615656D01*
X157642474Y-111708977D01*
X157642477Y-111708981D01*
X157645278Y-111713268D01*
X157648752Y-111717041D01*
X157648753Y-111717043D01*
X157794288Y-111875135D01*
X157794291Y-111875138D01*
X157797760Y-111878906D01*
X157801801Y-111882051D01*
X157971376Y-112014039D01*
X157971381Y-112014042D01*
X157975424Y-112017189D01*
X157979931Y-112019628D01*
X157979934Y-112019630D01*
X158166190Y-112120426D01*
X158173426Y-112124342D01*
X158386365Y-112197444D01*
X158608431Y-112234500D01*
X158828436Y-112234500D01*
X158833569Y-112234500D01*
X159055635Y-112197444D01*
X159268574Y-112124342D01*
X159466576Y-112017189D01*
X159644240Y-111878906D01*
X159713911Y-111803223D01*
X159766530Y-111769373D01*
X159828984Y-111765525D01*
X159885366Y-111792663D01*
X159921318Y-111843876D01*
X159964548Y-111959779D01*
X159972962Y-111975189D01*
X160048498Y-112076092D01*
X160060907Y-112088501D01*
X160161810Y-112164037D01*
X160177222Y-112172452D01*
X160300986Y-112218614D01*
X160351366Y-112253593D01*
X160378819Y-112308437D01*
X160376630Y-112369730D01*
X160345335Y-112422477D01*
X160226714Y-112541098D01*
X160219784Y-112549357D01*
X160090508Y-112733982D01*
X160085110Y-112743332D01*
X159989856Y-112947602D01*
X159986168Y-112957736D01*
X159934056Y-113152219D01*
X159933688Y-113163448D01*
X159944631Y-113166000D01*
X160994674Y-113166000D01*
X161007549Y-113162549D01*
X161011000Y-113149674D01*
X161511000Y-113149674D01*
X161514450Y-113162549D01*
X161527326Y-113166000D01*
X162577369Y-113166000D01*
X162588311Y-113163448D01*
X162587943Y-113152219D01*
X162535831Y-112957736D01*
X162532143Y-112947602D01*
X162436889Y-112743332D01*
X162431491Y-112733982D01*
X162302215Y-112549357D01*
X162295280Y-112541092D01*
X162176665Y-112422477D01*
X162145369Y-112369731D01*
X162143180Y-112308438D01*
X162170633Y-112253593D01*
X162221013Y-112218614D01*
X162344777Y-112172452D01*
X162360189Y-112164037D01*
X162461092Y-112088501D01*
X162473501Y-112076092D01*
X162549037Y-111975189D01*
X162557452Y-111959777D01*
X162601888Y-111840641D01*
X162605426Y-111825667D01*
X162610646Y-111777114D01*
X162611000Y-111770518D01*
X162611000Y-111142326D01*
X162607549Y-111129450D01*
X162594674Y-111126000D01*
X161527326Y-111126000D01*
X161514450Y-111129450D01*
X161511000Y-111142326D01*
X161511000Y-113149674D01*
X161011000Y-113149674D01*
X161011000Y-110609674D01*
X161511000Y-110609674D01*
X161514450Y-110622549D01*
X161527326Y-110626000D01*
X162594674Y-110626000D01*
X162607549Y-110622549D01*
X162611000Y-110609674D01*
X162611000Y-109981482D01*
X162610646Y-109974885D01*
X162605426Y-109926332D01*
X162601888Y-109911358D01*
X162557452Y-109792222D01*
X162549037Y-109776809D01*
X162476798Y-109680312D01*
X162454898Y-109632359D01*
X162454898Y-109579641D01*
X162476798Y-109531688D01*
X162549037Y-109435190D01*
X162557452Y-109419777D01*
X162601888Y-109300641D01*
X162605426Y-109285667D01*
X162610646Y-109237114D01*
X162611000Y-109230518D01*
X162611000Y-108602326D01*
X162607549Y-108589450D01*
X162594674Y-108586000D01*
X161527326Y-108586000D01*
X161514450Y-108589450D01*
X161511000Y-108602326D01*
X161511000Y-110609674D01*
X161011000Y-110609674D01*
X161011000Y-108069674D01*
X161511000Y-108069674D01*
X161514450Y-108082549D01*
X161527326Y-108086000D01*
X162594674Y-108086000D01*
X162607549Y-108082549D01*
X162611000Y-108069674D01*
X162611000Y-107441482D01*
X162610646Y-107434885D01*
X162605426Y-107386332D01*
X162601888Y-107371358D01*
X162557452Y-107252222D01*
X162549037Y-107236809D01*
X162476798Y-107140312D01*
X162454898Y-107092359D01*
X162454898Y-107039641D01*
X162476798Y-106991688D01*
X162549037Y-106895190D01*
X162557452Y-106879777D01*
X162601888Y-106760641D01*
X162605426Y-106745667D01*
X162610646Y-106697114D01*
X162611000Y-106690518D01*
X162611000Y-106062326D01*
X162607549Y-106049450D01*
X162594674Y-106046000D01*
X161527326Y-106046000D01*
X161514450Y-106049450D01*
X161511000Y-106062326D01*
X161511000Y-108069674D01*
X161011000Y-108069674D01*
X161011000Y-105529674D01*
X161511000Y-105529674D01*
X161514450Y-105542549D01*
X161527326Y-105546000D01*
X162594674Y-105546000D01*
X162607549Y-105542549D01*
X162611000Y-105529674D01*
X162611000Y-104901482D01*
X162610646Y-104894885D01*
X162605426Y-104846332D01*
X162601888Y-104831358D01*
X162557452Y-104712222D01*
X162549037Y-104696810D01*
X162473501Y-104595907D01*
X162461092Y-104583498D01*
X162360189Y-104507962D01*
X162344777Y-104499547D01*
X162225641Y-104455111D01*
X162210667Y-104451573D01*
X162162114Y-104446353D01*
X162155518Y-104446000D01*
X161527326Y-104446000D01*
X161514450Y-104449450D01*
X161511000Y-104462326D01*
X161511000Y-105529674D01*
X161011000Y-105529674D01*
X161011000Y-104462326D01*
X161007549Y-104449450D01*
X160994674Y-104446000D01*
X160366482Y-104446000D01*
X160359885Y-104446353D01*
X160311332Y-104451573D01*
X160296358Y-104455111D01*
X160177222Y-104499547D01*
X160161810Y-104507962D01*
X160060907Y-104583498D01*
X160048498Y-104595907D01*
X159972962Y-104696810D01*
X159964548Y-104712220D01*
X159921318Y-104828123D01*
X159885366Y-104879336D01*
X159828984Y-104906474D01*
X159766530Y-104902626D01*
X159713907Y-104868772D01*
X159647711Y-104796864D01*
X159647708Y-104796861D01*
X159644240Y-104793094D01*
X159631597Y-104783253D01*
X159470623Y-104657960D01*
X159470615Y-104657955D01*
X159466576Y-104654811D01*
X159462071Y-104652373D01*
X159462065Y-104652369D01*
X159273080Y-104550096D01*
X159273074Y-104550093D01*
X159268574Y-104547658D01*
X159263733Y-104545996D01*
X159263726Y-104545993D01*
X159060488Y-104476222D01*
X159060487Y-104476221D01*
X159055635Y-104474556D01*
X159050585Y-104473713D01*
X159050576Y-104473711D01*
X158838631Y-104438344D01*
X158838622Y-104438343D01*
X158833569Y-104437500D01*
X158608431Y-104437500D01*
X158603378Y-104438343D01*
X158603368Y-104438344D01*
X158391423Y-104473711D01*
X158391411Y-104473713D01*
X158386365Y-104474556D01*
X158381515Y-104476220D01*
X158381511Y-104476222D01*
X158178273Y-104545993D01*
X158178262Y-104545997D01*
X158173426Y-104547658D01*
X158168929Y-104550091D01*
X158168919Y-104550096D01*
X157979934Y-104652369D01*
X157979922Y-104652376D01*
X157975424Y-104654811D01*
X157971389Y-104657951D01*
X157971376Y-104657960D01*
X157801801Y-104789948D01*
X157801795Y-104789952D01*
X157797760Y-104793094D01*
X157794297Y-104796855D01*
X157794288Y-104796864D01*
X157648753Y-104954956D01*
X157648747Y-104954963D01*
X157645278Y-104958732D01*
X157642481Y-104963012D01*
X157642474Y-104963022D01*
X157526179Y-105141027D01*
X157522140Y-105147209D01*
X157520085Y-105151892D01*
X157520080Y-105151903D01*
X157482139Y-105238402D01*
X157431704Y-105353384D01*
X157430446Y-105358349D01*
X157430445Y-105358354D01*
X157377695Y-105566657D01*
X157377693Y-105566666D01*
X157376436Y-105571632D01*
X157376012Y-105576741D01*
X157376011Y-105576751D01*
X157360263Y-105766806D01*
X157357844Y-105796000D01*
X157358268Y-105801117D01*
X157376011Y-106015248D01*
X157376012Y-106015256D01*
X157376436Y-106020368D01*
X157377693Y-106025335D01*
X157377695Y-106025342D01*
X157430287Y-106233022D01*
X157431704Y-106238616D01*
X157433764Y-106243312D01*
X157520080Y-106440096D01*
X157520083Y-106440101D01*
X157522140Y-106444791D01*
X157581505Y-106535656D01*
X157642474Y-106628977D01*
X157642477Y-106628981D01*
X157645278Y-106633268D01*
X157648752Y-106637041D01*
X157648753Y-106637043D01*
X157794288Y-106795135D01*
X157794291Y-106795138D01*
X157797760Y-106798906D01*
X157801801Y-106802051D01*
X157971376Y-106934039D01*
X157971381Y-106934042D01*
X157975424Y-106937189D01*
X158011930Y-106956945D01*
X158059434Y-107002523D01*
X158076913Y-107065996D01*
X158059437Y-107129471D01*
X158011933Y-107175053D01*
X157979930Y-107192372D01*
X157979925Y-107192374D01*
X157975424Y-107194811D01*
X157971389Y-107197951D01*
X157971376Y-107197960D01*
X157801801Y-107329948D01*
X157801795Y-107329952D01*
X157797760Y-107333094D01*
X157794297Y-107336855D01*
X157794288Y-107336864D01*
X157648753Y-107494956D01*
X157648747Y-107494963D01*
X157645278Y-107498732D01*
X157642481Y-107503012D01*
X157642474Y-107503022D01*
X157524942Y-107682920D01*
X157522140Y-107687209D01*
X157520085Y-107691892D01*
X157520080Y-107691903D01*
X157433764Y-107888687D01*
X157431704Y-107893384D01*
X157430446Y-107898349D01*
X157430445Y-107898354D01*
X157377695Y-108106657D01*
X157377693Y-108106666D01*
X157376436Y-108111632D01*
X157376012Y-108116741D01*
X157376011Y-108116751D01*
X157365572Y-108242739D01*
X157357844Y-108336000D01*
X157358268Y-108341117D01*
X157376011Y-108555248D01*
X157376012Y-108555256D01*
X157376436Y-108560368D01*
X157377693Y-108565335D01*
X157377695Y-108565342D01*
X157419669Y-108731092D01*
X157431704Y-108778616D01*
X157433764Y-108783312D01*
X157520080Y-108980096D01*
X157520083Y-108980101D01*
X157522140Y-108984791D01*
X157581505Y-109075656D01*
X157642474Y-109168977D01*
X157642477Y-109168981D01*
X157645278Y-109173268D01*
X157648752Y-109177041D01*
X157648753Y-109177043D01*
X157794288Y-109335135D01*
X157794291Y-109335138D01*
X157797760Y-109338906D01*
X157819722Y-109356000D01*
X157971376Y-109474039D01*
X157971381Y-109474042D01*
X157975424Y-109477189D01*
X157979931Y-109479628D01*
X157979934Y-109479630D01*
X158011930Y-109496945D01*
X158059436Y-109542526D01*
X158076913Y-109606000D01*
X158059436Y-109669474D01*
X158011930Y-109715055D01*
X157979934Y-109732369D01*
X157979922Y-109732376D01*
X157975424Y-109734811D01*
X157971389Y-109737951D01*
X157971376Y-109737960D01*
X157801801Y-109869948D01*
X157801795Y-109869952D01*
X157797760Y-109873094D01*
X157794297Y-109876855D01*
X157794288Y-109876864D01*
X157648753Y-110034956D01*
X157648747Y-110034963D01*
X157645278Y-110038732D01*
X157642481Y-110043012D01*
X157642474Y-110043022D01*
X157524942Y-110222920D01*
X157522140Y-110227209D01*
X157520085Y-110231892D01*
X157520080Y-110231903D01*
X157433764Y-110428687D01*
X157431704Y-110433384D01*
X157430446Y-110438349D01*
X157430445Y-110438354D01*
X157377695Y-110646657D01*
X157377693Y-110646666D01*
X157376436Y-110651632D01*
X157376012Y-110656741D01*
X157376011Y-110656751D01*
X157359816Y-110852204D01*
X157357844Y-110876000D01*
X150301848Y-110876000D01*
X150503676Y-110781886D01*
X150513008Y-110776498D01*
X150697643Y-110647215D01*
X150705909Y-110640278D01*
X150865278Y-110480909D01*
X150872215Y-110472643D01*
X151001498Y-110288008D01*
X151006886Y-110278676D01*
X151102143Y-110074397D01*
X151105831Y-110064263D01*
X151157943Y-109869780D01*
X151158311Y-109858551D01*
X151147369Y-109856000D01*
X150097326Y-109856000D01*
X150084450Y-109859450D01*
X150081000Y-109872326D01*
X150081000Y-110922369D01*
X149581000Y-110922369D01*
X149581000Y-109480000D01*
X149597613Y-109418000D01*
X149643000Y-109372613D01*
X149705000Y-109356000D01*
X151147369Y-109356000D01*
X151158311Y-109353448D01*
X151157943Y-109342219D01*
X151105831Y-109147736D01*
X151102143Y-109137602D01*
X151006889Y-108933332D01*
X151001491Y-108923982D01*
X150872215Y-108739357D01*
X150865280Y-108731092D01*
X150705909Y-108571721D01*
X150697635Y-108564778D01*
X150521198Y-108441234D01*
X150480734Y-108393735D01*
X150468526Y-108332543D01*
X150487666Y-108273153D01*
X150533304Y-108230606D01*
X150576576Y-108207189D01*
X150754240Y-108068906D01*
X150906722Y-107903268D01*
X151029860Y-107714791D01*
X151120296Y-107508616D01*
X151175564Y-107290368D01*
X151194156Y-107066000D01*
X151175564Y-106841632D01*
X151120296Y-106623384D01*
X151029860Y-106417209D01*
X150906722Y-106228732D01*
X150814653Y-106128719D01*
X150757711Y-106066864D01*
X150757708Y-106066861D01*
X150754240Y-106063094D01*
X150705737Y-106025342D01*
X150580623Y-105927960D01*
X150580615Y-105927955D01*
X150576576Y-105924811D01*
X150572066Y-105922370D01*
X150572061Y-105922367D01*
X150540070Y-105905055D01*
X150492564Y-105859474D01*
X150475086Y-105796000D01*
X150492564Y-105732526D01*
X150540070Y-105686945D01*
X150540109Y-105686923D01*
X150576576Y-105667189D01*
X150754240Y-105528906D01*
X150906722Y-105363268D01*
X150933913Y-105321648D01*
X150954148Y-105290678D01*
X150998939Y-105249445D01*
X151057956Y-105234500D01*
X152365837Y-105234500D01*
X152373324Y-105234726D01*
X152434093Y-105238402D01*
X152493994Y-105227424D01*
X152501369Y-105226302D01*
X152561801Y-105218965D01*
X152570275Y-105215750D01*
X152571494Y-105215289D01*
X152593119Y-105209259D01*
X152603329Y-105207389D01*
X152658845Y-105182402D01*
X152665753Y-105179541D01*
X152672546Y-105176964D01*
X152722675Y-105157954D01*
X152731211Y-105152061D01*
X152750762Y-105141033D01*
X152760226Y-105136775D01*
X152767038Y-105131437D01*
X152808157Y-105099223D01*
X152814165Y-105094801D01*
X152864273Y-105060215D01*
X152904658Y-105014628D01*
X152909760Y-105009208D01*
X153864653Y-104054315D01*
X153911377Y-104024957D01*
X154014015Y-103989043D01*
X154168281Y-103892111D01*
X154297111Y-103763281D01*
X154394043Y-103609015D01*
X154454217Y-103437047D01*
X154474616Y-103256000D01*
X154454217Y-103074953D01*
X154394043Y-102902985D01*
X154297111Y-102748719D01*
X154168281Y-102619889D01*
X154014015Y-102522957D01*
X154007449Y-102520659D01*
X154007446Y-102520658D01*
X153848621Y-102465083D01*
X153848618Y-102465082D01*
X153842047Y-102462783D01*
X153835130Y-102462003D01*
X153835123Y-102462002D01*
X153667923Y-102443164D01*
X153661000Y-102442384D01*
X153654077Y-102443164D01*
X153654076Y-102443164D01*
X153565048Y-102453195D01*
X153507724Y-102446117D01*
X153459825Y-102413838D01*
X153431745Y-102363364D01*
X153429575Y-102305645D01*
X153453788Y-102253205D01*
X155851992Y-99211272D01*
X155901818Y-99175714D01*
X155901168Y-99174364D01*
X155907440Y-99171343D01*
X155914015Y-99169043D01*
X156068281Y-99072111D01*
X156197111Y-98943281D01*
X156294043Y-98789015D01*
X156354217Y-98617047D01*
X156374616Y-98436000D01*
X156354217Y-98254953D01*
X156294043Y-98082985D01*
X156197111Y-97928719D01*
X156068281Y-97799889D01*
X156062380Y-97796181D01*
X155919907Y-97706659D01*
X155919905Y-97706658D01*
X155914015Y-97702957D01*
X155907449Y-97700659D01*
X155907446Y-97700658D01*
X155748621Y-97645083D01*
X155748618Y-97645082D01*
X155742047Y-97642783D01*
X155735130Y-97642003D01*
X155735123Y-97642002D01*
X155567923Y-97623164D01*
X155561000Y-97622384D01*
X155554077Y-97623164D01*
X155386876Y-97642002D01*
X155386867Y-97642003D01*
X155379953Y-97642783D01*
X155373383Y-97645081D01*
X155373378Y-97645083D01*
X155214553Y-97700658D01*
X155214547Y-97700660D01*
X155207985Y-97702957D01*
X155202097Y-97706656D01*
X155202092Y-97706659D01*
X155059619Y-97796181D01*
X155059614Y-97796184D01*
X155053719Y-97799889D01*
X155048794Y-97804813D01*
X155048790Y-97804817D01*
X154929817Y-97923790D01*
X154929813Y-97923794D01*
X154924889Y-97928719D01*
X154921184Y-97934614D01*
X154921181Y-97934619D01*
X154831659Y-98077092D01*
X154831656Y-98077097D01*
X154827957Y-98082985D01*
X154825660Y-98089547D01*
X154825658Y-98089553D01*
X154770081Y-98248385D01*
X154767783Y-98254953D01*
X154767004Y-98261861D01*
X154767003Y-98261868D01*
X154766113Y-98269773D01*
X154740270Y-98332656D01*
X154706744Y-98375181D01*
X152782375Y-100816092D01*
X152734244Y-100853124D01*
X152674298Y-100862858D01*
X152616920Y-100842960D01*
X152575872Y-100798203D01*
X152561000Y-100739321D01*
X152561000Y-97487006D01*
X152577509Y-97425186D01*
X152622640Y-97379827D01*
X156951404Y-94861273D01*
X156999874Y-94845235D01*
X157142047Y-94829217D01*
X157314015Y-94769043D01*
X157468281Y-94672111D01*
X157597111Y-94543281D01*
X157694043Y-94389015D01*
X157754217Y-94217047D01*
X157774616Y-94036000D01*
X157754217Y-93854953D01*
X157694043Y-93682985D01*
X157597111Y-93528719D01*
X157468281Y-93399889D01*
X157314015Y-93302957D01*
X157307449Y-93300659D01*
X157307446Y-93300658D01*
X157148621Y-93245083D01*
X157148618Y-93245082D01*
X157142047Y-93242783D01*
X157135130Y-93242003D01*
X157135123Y-93242002D01*
X156967923Y-93223164D01*
X156961000Y-93222384D01*
X156954077Y-93223164D01*
X156786876Y-93242002D01*
X156786867Y-93242003D01*
X156779953Y-93242783D01*
X156773383Y-93245081D01*
X156773378Y-93245083D01*
X156614553Y-93300658D01*
X156614547Y-93300660D01*
X156607985Y-93302957D01*
X156602097Y-93306656D01*
X156602092Y-93306659D01*
X156459619Y-93396181D01*
X156459614Y-93396184D01*
X156453719Y-93399889D01*
X156448794Y-93404813D01*
X156448790Y-93404817D01*
X156329814Y-93523793D01*
X156329810Y-93523797D01*
X156324889Y-93528719D01*
X156321188Y-93534607D01*
X156321183Y-93534615D01*
X156283995Y-93593800D01*
X156241361Y-93635006D01*
X152747359Y-95667880D01*
X152685311Y-95684701D01*
X152623180Y-95668192D01*
X152577665Y-95622791D01*
X152561000Y-95560701D01*
X152561000Y-93096000D01*
X160430678Y-93096000D01*
X160431207Y-93101709D01*
X160448973Y-93293439D01*
X160449924Y-93303696D01*
X160507006Y-93504319D01*
X160509558Y-93509445D01*
X160509560Y-93509449D01*
X160597426Y-93685908D01*
X160597428Y-93685912D01*
X160599981Y-93691038D01*
X160603430Y-93695605D01*
X160603433Y-93695610D01*
X160722224Y-93852915D01*
X160722228Y-93852920D01*
X160725682Y-93857493D01*
X160729922Y-93861358D01*
X160875593Y-93994155D01*
X160875596Y-93994157D01*
X160879829Y-93998016D01*
X161057172Y-94107823D01*
X161251673Y-94183173D01*
X161456707Y-94221500D01*
X161659564Y-94221500D01*
X161665293Y-94221500D01*
X161870327Y-94183173D01*
X162064828Y-94107823D01*
X162242171Y-93998016D01*
X162396318Y-93857493D01*
X162522019Y-93691038D01*
X162614994Y-93504319D01*
X162672076Y-93303696D01*
X162691322Y-93096000D01*
X162672076Y-92888304D01*
X162614994Y-92687681D01*
X162522019Y-92500962D01*
X162518566Y-92496389D01*
X162399775Y-92339084D01*
X162399771Y-92339080D01*
X162396318Y-92334507D01*
X162291036Y-92238530D01*
X162246406Y-92197844D01*
X162246401Y-92197840D01*
X162242171Y-92193984D01*
X162237305Y-92190971D01*
X162237301Y-92190968D01*
X162069699Y-92087193D01*
X162069698Y-92087192D01*
X162064828Y-92084177D01*
X162059490Y-92082109D01*
X162059486Y-92082107D01*
X161875674Y-92010898D01*
X161875669Y-92010896D01*
X161870327Y-92008827D01*
X161864692Y-92007773D01*
X161864690Y-92007773D01*
X161670923Y-91971552D01*
X161670918Y-91971551D01*
X161665293Y-91970500D01*
X161456707Y-91970500D01*
X161451082Y-91971551D01*
X161451076Y-91971552D01*
X161257309Y-92007773D01*
X161257304Y-92007774D01*
X161251673Y-92008827D01*
X161246333Y-92010895D01*
X161246325Y-92010898D01*
X161062513Y-92082107D01*
X161062504Y-92082110D01*
X161057172Y-92084177D01*
X161052305Y-92087190D01*
X161052300Y-92087193D01*
X160884698Y-92190968D01*
X160884689Y-92190974D01*
X160879829Y-92193984D01*
X160875603Y-92197836D01*
X160875593Y-92197844D01*
X160729922Y-92330641D01*
X160729917Y-92330645D01*
X160725682Y-92334507D01*
X160722233Y-92339073D01*
X160722224Y-92339084D01*
X160603433Y-92496389D01*
X160603426Y-92496399D01*
X160599981Y-92500962D01*
X160597431Y-92506082D01*
X160597426Y-92506091D01*
X160509560Y-92682550D01*
X160509556Y-92682558D01*
X160507006Y-92687681D01*
X160505437Y-92693193D01*
X160505437Y-92693195D01*
X160501269Y-92707846D01*
X160449924Y-92888304D01*
X160449395Y-92894009D01*
X160449395Y-92894011D01*
X160431466Y-93087500D01*
X160430678Y-93096000D01*
X152561000Y-93096000D01*
X152561000Y-90228500D01*
X152577613Y-90166500D01*
X152623000Y-90121113D01*
X152685000Y-90104500D01*
X158133201Y-90104500D01*
X158195720Y-90122511D01*
X158195814Y-90122317D01*
X158196957Y-90122867D01*
X158199172Y-90123505D01*
X158207985Y-90129043D01*
X158379953Y-90189217D01*
X158561000Y-90209616D01*
X158742047Y-90189217D01*
X158914015Y-90129043D01*
X159068281Y-90032111D01*
X159197111Y-89903281D01*
X159294043Y-89749015D01*
X159354217Y-89577047D01*
X159374616Y-89396000D01*
X159354217Y-89214953D01*
X159294043Y-89042985D01*
X159197111Y-88888719D01*
X159198934Y-88887573D01*
X159176694Y-88833891D01*
X159188192Y-88766203D01*
X159233940Y-88715007D01*
X159299914Y-88696000D01*
X165337000Y-88696000D01*
X165399000Y-88712613D01*
X165444387Y-88758000D01*
X165461000Y-88820000D01*
X165461000Y-127372000D01*
X165444387Y-127434000D01*
X165399000Y-127479387D01*
X165337000Y-127496000D01*
X131785000Y-127496000D01*
X131723000Y-127479387D01*
X131677613Y-127434000D01*
X131661000Y-127372000D01*
X131661000Y-124470518D01*
X133241000Y-124470518D01*
X133241353Y-124477114D01*
X133246573Y-124525667D01*
X133250111Y-124540641D01*
X133294547Y-124659777D01*
X133302962Y-124675189D01*
X133378498Y-124776092D01*
X133390907Y-124788501D01*
X133491810Y-124864037D01*
X133507222Y-124872452D01*
X133626358Y-124916888D01*
X133641332Y-124920426D01*
X133689885Y-124925646D01*
X133696482Y-124926000D01*
X134324674Y-124926000D01*
X134337549Y-124922549D01*
X134341000Y-124909674D01*
X134341000Y-123842326D01*
X134337549Y-123829450D01*
X134324674Y-123826000D01*
X133257326Y-123826000D01*
X133244450Y-123829450D01*
X133241000Y-123842326D01*
X133241000Y-124470518D01*
X131661000Y-124470518D01*
X131661000Y-123309674D01*
X133241000Y-123309674D01*
X133244450Y-123322549D01*
X133257326Y-123326000D01*
X134324674Y-123326000D01*
X134337549Y-123322549D01*
X134341000Y-123309674D01*
X134341000Y-122242326D01*
X134337549Y-122229450D01*
X134324674Y-122226000D01*
X133696482Y-122226000D01*
X133689885Y-122226353D01*
X133641332Y-122231573D01*
X133626358Y-122235111D01*
X133507222Y-122279547D01*
X133491810Y-122287962D01*
X133390907Y-122363498D01*
X133378498Y-122375907D01*
X133302962Y-122476810D01*
X133294547Y-122492222D01*
X133250111Y-122611358D01*
X133246573Y-122626332D01*
X133241353Y-122674885D01*
X133241000Y-122681482D01*
X133241000Y-123309674D01*
X131661000Y-123309674D01*
X131661000Y-99019674D01*
X137436000Y-99019674D01*
X137439450Y-99032549D01*
X137452326Y-99036000D01*
X138394674Y-99036000D01*
X138407549Y-99032549D01*
X138411000Y-99019674D01*
X138411000Y-98302327D01*
X138407549Y-98289451D01*
X138394674Y-98286001D01*
X138139171Y-98286001D01*
X138132888Y-98286321D01*
X138040040Y-98295805D01*
X138026877Y-98298623D01*
X137873732Y-98349370D01*
X137860733Y-98355432D01*
X137723805Y-98439890D01*
X137712544Y-98448794D01*
X137598794Y-98562544D01*
X137589890Y-98573805D01*
X137505432Y-98710733D01*
X137499370Y-98723732D01*
X137448624Y-98876874D01*
X137445805Y-98890041D01*
X137436319Y-98982890D01*
X137436000Y-98989168D01*
X137436000Y-99019674D01*
X131661000Y-99019674D01*
X131661000Y-88820000D01*
X131677613Y-88758000D01*
X131723000Y-88712613D01*
X131785000Y-88696000D01*
X132755745Y-88696000D01*
X132813370Y-88710203D01*
G37*
G04 #@! TD.AperFunction*
M02*
