G04 #@! TF.GenerationSoftware,KiCad,Pcbnew,(7.0.0)*
G04 #@! TF.CreationDate,2023-04-26T14:40:12+01:00*
G04 #@! TF.ProjectId,Tims_I2C_AI_DC_Motor_Driver 2P 2N,54696d73-5f49-4324-935f-41495f44435f,rev?*
G04 #@! TF.SameCoordinates,Original*
G04 #@! TF.FileFunction,Soldermask,Top*
G04 #@! TF.FilePolarity,Negative*
%FSLAX46Y46*%
G04 Gerber Fmt 4.6, Leading zero omitted, Abs format (unit mm)*
G04 Created by KiCad (PCBNEW (7.0.0)) date 2023-04-26 14:40:12*
%MOMM*%
%LPD*%
G01*
G04 APERTURE LIST*
G04 Aperture macros list*
%AMRoundRect*
0 Rectangle with rounded corners*
0 $1 Rounding radius*
0 $2 $3 $4 $5 $6 $7 $8 $9 X,Y pos of 4 corners*
0 Add a 4 corners polygon primitive as box body*
4,1,4,$2,$3,$4,$5,$6,$7,$8,$9,$2,$3,0*
0 Add four circle primitives for the rounded corners*
1,1,$1+$1,$2,$3*
1,1,$1+$1,$4,$5*
1,1,$1+$1,$6,$7*
1,1,$1+$1,$8,$9*
0 Add four rect primitives between the rounded corners*
20,1,$1+$1,$2,$3,$4,$5,0*
20,1,$1+$1,$4,$5,$6,$7,0*
20,1,$1+$1,$6,$7,$8,$9,0*
20,1,$1+$1,$8,$9,$2,$3,0*%
G04 Aperture macros list end*
%ADD10RoundRect,0.150000X0.150000X-0.587500X0.150000X0.587500X-0.150000X0.587500X-0.150000X-0.587500X0*%
%ADD11RoundRect,0.150000X-0.150000X0.587500X-0.150000X-0.587500X0.150000X-0.587500X0.150000X0.587500X0*%
%ADD12R,1.700000X1.700000*%
%ADD13O,1.700000X1.700000*%
%ADD14RoundRect,0.250000X0.450000X-0.262500X0.450000X0.262500X-0.450000X0.262500X-0.450000X-0.262500X0*%
%ADD15RoundRect,0.250000X-0.450000X0.262500X-0.450000X-0.262500X0.450000X-0.262500X0.450000X0.262500X0*%
%ADD16RoundRect,0.250000X-0.262500X-0.450000X0.262500X-0.450000X0.262500X0.450000X-0.262500X0.450000X0*%
%ADD17RoundRect,0.180000X-0.637500X-0.100000X0.637500X-0.100000X0.637500X0.100000X-0.637500X0.100000X0*%
%ADD18C,1.000000*%
%ADD19RoundRect,0.250000X0.262500X0.450000X-0.262500X0.450000X-0.262500X-0.450000X0.262500X-0.450000X0*%
%ADD20RoundRect,0.250000X0.250000X0.475000X-0.250000X0.475000X-0.250000X-0.475000X0.250000X-0.475000X0*%
%ADD21RoundRect,0.243750X0.243750X0.456250X-0.243750X0.456250X-0.243750X-0.456250X0.243750X-0.456250X0*%
%ADD22RoundRect,0.150000X0.587500X0.150000X-0.587500X0.150000X-0.587500X-0.150000X0.587500X-0.150000X0*%
%ADD23RoundRect,0.250000X0.600000X-0.400000X0.600000X0.400000X-0.600000X0.400000X-0.600000X-0.400000X0*%
%ADD24RoundRect,0.243750X-0.456250X0.243750X-0.456250X-0.243750X0.456250X-0.243750X0.456250X0.243750X0*%
%ADD25RoundRect,0.250000X-0.250000X-0.475000X0.250000X-0.475000X0.250000X0.475000X-0.250000X0.475000X0*%
G04 APERTURE END LIST*
D10*
X157211000Y-95937500D03*
X159111000Y-95937500D03*
X158161000Y-94062500D03*
D11*
X139511000Y-100725000D03*
X137611000Y-100725000D03*
X138561000Y-102600000D03*
D10*
X139011000Y-92937500D03*
X140911000Y-92937500D03*
X139961000Y-91062500D03*
D12*
X147290999Y-107065999D03*
D13*
X149830999Y-107065999D03*
D12*
X147290999Y-99445999D03*
D13*
X149830999Y-99445999D03*
D12*
X161260999Y-108335999D03*
D13*
X158720999Y-108335999D03*
D14*
X158161000Y-101912500D03*
X158161000Y-100087500D03*
D12*
X161260999Y-105795999D03*
D13*
X158720999Y-105795999D03*
D15*
X142561000Y-107723500D03*
X142561000Y-109548500D03*
D16*
X155448500Y-91036000D03*
X157273500Y-91036000D03*
X153648500Y-93311000D03*
X155473500Y-93311000D03*
X141248500Y-101836000D03*
X143073500Y-101836000D03*
D12*
X147290999Y-109605999D03*
D13*
X149830999Y-109605999D03*
D17*
X145376000Y-115971000D03*
X145376000Y-116621000D03*
X145376000Y-117271000D03*
X145376000Y-117921000D03*
X145376000Y-118571000D03*
X145376000Y-119221000D03*
X145376000Y-119871000D03*
X145376000Y-120521000D03*
X145376000Y-121171000D03*
X145376000Y-121821000D03*
X151101000Y-121821000D03*
X151101000Y-121171000D03*
X151101000Y-120521000D03*
X151101000Y-119871000D03*
X151101000Y-119221000D03*
X151101000Y-118571000D03*
X151101000Y-117921000D03*
X151101000Y-117271000D03*
X151101000Y-116621000D03*
X151101000Y-115971000D03*
D18*
X138361000Y-118436000D03*
D16*
X157248500Y-115956000D03*
X159073500Y-115956000D03*
D19*
X159073500Y-118496000D03*
X157248500Y-118496000D03*
D20*
X151711000Y-124036000D03*
X149811000Y-124036000D03*
D10*
X141211000Y-97583500D03*
X143111000Y-97583500D03*
X142161000Y-95708500D03*
D21*
X148098500Y-126036000D03*
X146223500Y-126036000D03*
D22*
X155298500Y-101950000D03*
X155298500Y-100050000D03*
X153423500Y-101000000D03*
D11*
X154561000Y-97533500D03*
X153611000Y-95658500D03*
X155511000Y-95658500D03*
D15*
X138561000Y-94887500D03*
X138561000Y-96712500D03*
D16*
X157248500Y-113436000D03*
X159073500Y-113436000D03*
D12*
X148560999Y-113415999D03*
D19*
X159073500Y-121036000D03*
X157248500Y-121036000D03*
D16*
X149848500Y-126036000D03*
X151673500Y-126036000D03*
D18*
X159991000Y-124846000D03*
X154911000Y-124846000D03*
D23*
X151261000Y-95586000D03*
X151261000Y-92086000D03*
D12*
X148560999Y-93095999D03*
D13*
X148560999Y-95635999D03*
D24*
X155361000Y-113398500D03*
X155361000Y-115273500D03*
D16*
X157248500Y-98200000D03*
X159073500Y-98200000D03*
D19*
X143073500Y-99636000D03*
X141248500Y-99636000D03*
D24*
X155361000Y-118098500D03*
X155361000Y-119973500D03*
D23*
X145861000Y-95586000D03*
X145861000Y-92086000D03*
D12*
X147290999Y-104525999D03*
D13*
X149830999Y-104525999D03*
D12*
X147290999Y-101985999D03*
D13*
X149830999Y-101985999D03*
D25*
X146211000Y-124036000D03*
X148111000Y-124036000D03*
D15*
X138361000Y-113923500D03*
X138361000Y-115748500D03*
D19*
X139473500Y-98636000D03*
X137648500Y-98636000D03*
D18*
X157451000Y-124846000D03*
X162531000Y-124846000D03*
D12*
X161260999Y-110875999D03*
D13*
X158720999Y-110875999D03*
D12*
X142210999Y-121035999D03*
D13*
X142210999Y-118495999D03*
X142210999Y-115955999D03*
X142210999Y-113415999D03*
D12*
X142210999Y-123575999D03*
D13*
X139670999Y-123575999D03*
D12*
X134590999Y-123575999D03*
D13*
X137130999Y-123575999D03*
D12*
X161260999Y-121035999D03*
D13*
X161260999Y-118495999D03*
X161260999Y-115955999D03*
X161260999Y-113415999D03*
M02*
