G04 #@! TF.GenerationSoftware,KiCad,Pcbnew,(7.0.0)*
G04 #@! TF.CreationDate,2023-04-26T14:40:12+01:00*
G04 #@! TF.ProjectId,Tims_I2C_AI_DC_Motor_Driver 2P 2N,54696d73-5f49-4324-935f-41495f44435f,rev?*
G04 #@! TF.SameCoordinates,Original*
G04 #@! TF.FileFunction,Legend,Top*
G04 #@! TF.FilePolarity,Positive*
%FSLAX46Y46*%
G04 Gerber Fmt 4.6, Leading zero omitted, Abs format (unit mm)*
G04 Created by KiCad (PCBNEW (7.0.0)) date 2023-04-26 14:40:12*
%MOMM*%
%LPD*%
G01*
G04 APERTURE LIST*
%ADD10C,0.100000*%
%ADD11C,0.200000*%
%ADD12C,0.120000*%
G04 APERTURE END LIST*
D10*
X134701000Y-102796000D02*
X134701000Y-115496000D01*
X162785000Y-105796000D02*
X163801000Y-105796000D01*
X132161000Y-105336000D02*
X137241000Y-105336000D01*
X133431000Y-116766000D02*
X135971000Y-116766000D01*
X135971000Y-116766000D02*
X135971000Y-119306000D01*
X135971000Y-119306000D02*
X133431000Y-119306000D01*
X133431000Y-119306000D02*
X133431000Y-116766000D01*
G36*
X163293000Y-106050000D02*
G01*
X162785000Y-105796000D01*
X163293000Y-105542000D01*
X163293000Y-106050000D01*
G37*
X163293000Y-106050000D02*
X162785000Y-105796000D01*
X163293000Y-105542000D01*
X163293000Y-106050000D01*
X162785000Y-108336000D02*
X163801000Y-108336000D01*
X133431000Y-98986000D02*
X135971000Y-98986000D01*
X163061000Y-93096000D02*
G75*
G03*
X163061000Y-93096000I-1500000J0D01*
G01*
G36*
X163293000Y-108590000D02*
G01*
X162785000Y-108336000D01*
X163293000Y-108082000D01*
X163293000Y-108590000D01*
G37*
X163293000Y-108590000D02*
X162785000Y-108336000D01*
X163293000Y-108082000D01*
X163293000Y-108590000D01*
G36*
X163293000Y-111130000D02*
G01*
X162785000Y-110876000D01*
X163293000Y-110622000D01*
X163293000Y-111130000D01*
G37*
X163293000Y-111130000D02*
X162785000Y-110876000D01*
X163293000Y-110622000D01*
X163293000Y-111130000D01*
X133431000Y-96446000D02*
X135971000Y-96446000D01*
X135971000Y-96446000D02*
X135971000Y-101526000D01*
X135971000Y-101526000D02*
X133431000Y-101526000D01*
X133431000Y-101526000D02*
X133431000Y-96446000D01*
X132161000Y-107876000D02*
X137241000Y-107876000D01*
X132161000Y-110416000D02*
X137241000Y-110416000D01*
X132161000Y-102796000D02*
X137241000Y-102796000D01*
X137241000Y-102796000D02*
X137241000Y-115496000D01*
X137241000Y-115496000D02*
X132161000Y-115496000D01*
X132161000Y-115496000D02*
X132161000Y-102796000D01*
X162785000Y-110876000D02*
X163801000Y-110876000D01*
X163801000Y-105796000D02*
X163801000Y-112781000D01*
X137061000Y-93096000D02*
G75*
G03*
X137061000Y-93096000I-1500000J0D01*
G01*
X132161000Y-112956000D02*
X137241000Y-112956000D01*
X137912905Y-120370428D02*
X137912905Y-119770428D01*
X138127191Y-119827571D02*
X138151000Y-119799000D01*
X138151000Y-119799000D02*
X138198619Y-119770428D01*
X138198619Y-119770428D02*
X138317667Y-119770428D01*
X138317667Y-119770428D02*
X138365286Y-119799000D01*
X138365286Y-119799000D02*
X138389095Y-119827571D01*
X138389095Y-119827571D02*
X138412905Y-119884714D01*
X138412905Y-119884714D02*
X138412905Y-119941857D01*
X138412905Y-119941857D02*
X138389095Y-120027571D01*
X138389095Y-120027571D02*
X138103381Y-120370428D01*
X138103381Y-120370428D02*
X138412905Y-120370428D01*
X138912904Y-120313285D02*
X138889095Y-120341857D01*
X138889095Y-120341857D02*
X138817666Y-120370428D01*
X138817666Y-120370428D02*
X138770047Y-120370428D01*
X138770047Y-120370428D02*
X138698619Y-120341857D01*
X138698619Y-120341857D02*
X138651000Y-120284714D01*
X138651000Y-120284714D02*
X138627190Y-120227571D01*
X138627190Y-120227571D02*
X138603381Y-120113285D01*
X138603381Y-120113285D02*
X138603381Y-120027571D01*
X138603381Y-120027571D02*
X138627190Y-119913285D01*
X138627190Y-119913285D02*
X138651000Y-119856142D01*
X138651000Y-119856142D02*
X138698619Y-119799000D01*
X138698619Y-119799000D02*
X138770047Y-119770428D01*
X138770047Y-119770428D02*
X138817666Y-119770428D01*
X138817666Y-119770428D02*
X138889095Y-119799000D01*
X138889095Y-119799000D02*
X138912904Y-119827571D01*
X137781952Y-121342428D02*
X137615286Y-121056714D01*
X137496238Y-121342428D02*
X137496238Y-120742428D01*
X137496238Y-120742428D02*
X137686714Y-120742428D01*
X137686714Y-120742428D02*
X137734333Y-120771000D01*
X137734333Y-120771000D02*
X137758143Y-120799571D01*
X137758143Y-120799571D02*
X137781952Y-120856714D01*
X137781952Y-120856714D02*
X137781952Y-120942428D01*
X137781952Y-120942428D02*
X137758143Y-120999571D01*
X137758143Y-120999571D02*
X137734333Y-121028142D01*
X137734333Y-121028142D02*
X137686714Y-121056714D01*
X137686714Y-121056714D02*
X137496238Y-121056714D01*
X138186714Y-121313857D02*
X138139095Y-121342428D01*
X138139095Y-121342428D02*
X138043857Y-121342428D01*
X138043857Y-121342428D02*
X137996238Y-121313857D01*
X137996238Y-121313857D02*
X137972429Y-121256714D01*
X137972429Y-121256714D02*
X137972429Y-121028142D01*
X137972429Y-121028142D02*
X137996238Y-120971000D01*
X137996238Y-120971000D02*
X138043857Y-120942428D01*
X138043857Y-120942428D02*
X138139095Y-120942428D01*
X138139095Y-120942428D02*
X138186714Y-120971000D01*
X138186714Y-120971000D02*
X138210524Y-121028142D01*
X138210524Y-121028142D02*
X138210524Y-121085285D01*
X138210524Y-121085285D02*
X137972429Y-121142428D01*
X138401000Y-121313857D02*
X138448619Y-121342428D01*
X138448619Y-121342428D02*
X138543857Y-121342428D01*
X138543857Y-121342428D02*
X138591476Y-121313857D01*
X138591476Y-121313857D02*
X138615285Y-121256714D01*
X138615285Y-121256714D02*
X138615285Y-121228142D01*
X138615285Y-121228142D02*
X138591476Y-121171000D01*
X138591476Y-121171000D02*
X138543857Y-121142428D01*
X138543857Y-121142428D02*
X138472428Y-121142428D01*
X138472428Y-121142428D02*
X138424809Y-121113857D01*
X138424809Y-121113857D02*
X138401000Y-121056714D01*
X138401000Y-121056714D02*
X138401000Y-121028142D01*
X138401000Y-121028142D02*
X138424809Y-120971000D01*
X138424809Y-120971000D02*
X138472428Y-120942428D01*
X138472428Y-120942428D02*
X138543857Y-120942428D01*
X138543857Y-120942428D02*
X138591476Y-120971000D01*
X139020047Y-121313857D02*
X138972428Y-121342428D01*
X138972428Y-121342428D02*
X138877190Y-121342428D01*
X138877190Y-121342428D02*
X138829571Y-121313857D01*
X138829571Y-121313857D02*
X138805762Y-121256714D01*
X138805762Y-121256714D02*
X138805762Y-121028142D01*
X138805762Y-121028142D02*
X138829571Y-120971000D01*
X138829571Y-120971000D02*
X138877190Y-120942428D01*
X138877190Y-120942428D02*
X138972428Y-120942428D01*
X138972428Y-120942428D02*
X139020047Y-120971000D01*
X139020047Y-120971000D02*
X139043857Y-121028142D01*
X139043857Y-121028142D02*
X139043857Y-121085285D01*
X139043857Y-121085285D02*
X138805762Y-121142428D01*
X139186714Y-120942428D02*
X139377190Y-120942428D01*
X139258142Y-120742428D02*
X139258142Y-121256714D01*
X139258142Y-121256714D02*
X139281952Y-121313857D01*
X139281952Y-121313857D02*
X139329571Y-121342428D01*
X139329571Y-121342428D02*
X139377190Y-121342428D01*
D11*
X134962904Y-97131000D02*
X134867666Y-97083380D01*
X134867666Y-97083380D02*
X134724809Y-97083380D01*
X134724809Y-97083380D02*
X134581952Y-97131000D01*
X134581952Y-97131000D02*
X134486714Y-97226238D01*
X134486714Y-97226238D02*
X134439095Y-97321476D01*
X134439095Y-97321476D02*
X134391476Y-97511952D01*
X134391476Y-97511952D02*
X134391476Y-97654809D01*
X134391476Y-97654809D02*
X134439095Y-97845285D01*
X134439095Y-97845285D02*
X134486714Y-97940523D01*
X134486714Y-97940523D02*
X134581952Y-98035761D01*
X134581952Y-98035761D02*
X134724809Y-98083380D01*
X134724809Y-98083380D02*
X134820047Y-98083380D01*
X134820047Y-98083380D02*
X134962904Y-98035761D01*
X134962904Y-98035761D02*
X135010523Y-97988142D01*
X135010523Y-97988142D02*
X135010523Y-97654809D01*
X135010523Y-97654809D02*
X134820047Y-97654809D01*
D10*
X163420047Y-113065000D02*
X163372428Y-113036428D01*
X163372428Y-113036428D02*
X163300999Y-113036428D01*
X163300999Y-113036428D02*
X163229571Y-113065000D01*
X163229571Y-113065000D02*
X163181952Y-113122142D01*
X163181952Y-113122142D02*
X163158142Y-113179285D01*
X163158142Y-113179285D02*
X163134333Y-113293571D01*
X163134333Y-113293571D02*
X163134333Y-113379285D01*
X163134333Y-113379285D02*
X163158142Y-113493571D01*
X163158142Y-113493571D02*
X163181952Y-113550714D01*
X163181952Y-113550714D02*
X163229571Y-113607857D01*
X163229571Y-113607857D02*
X163300999Y-113636428D01*
X163300999Y-113636428D02*
X163348618Y-113636428D01*
X163348618Y-113636428D02*
X163420047Y-113607857D01*
X163420047Y-113607857D02*
X163443856Y-113579285D01*
X163443856Y-113579285D02*
X163443856Y-113379285D01*
X163443856Y-113379285D02*
X163348618Y-113379285D01*
X163658142Y-113636428D02*
X163658142Y-113036428D01*
X163658142Y-113036428D02*
X163943856Y-113636428D01*
X163943856Y-113636428D02*
X163943856Y-113036428D01*
X164181952Y-113636428D02*
X164181952Y-113036428D01*
X164181952Y-113036428D02*
X164301000Y-113036428D01*
X164301000Y-113036428D02*
X164372428Y-113065000D01*
X164372428Y-113065000D02*
X164420047Y-113122142D01*
X164420047Y-113122142D02*
X164443857Y-113179285D01*
X164443857Y-113179285D02*
X164467666Y-113293571D01*
X164467666Y-113293571D02*
X164467666Y-113379285D01*
X164467666Y-113379285D02*
X164443857Y-113493571D01*
X164443857Y-113493571D02*
X164420047Y-113550714D01*
X164420047Y-113550714D02*
X164372428Y-113607857D01*
X164372428Y-113607857D02*
X164301000Y-113636428D01*
X164301000Y-113636428D02*
X164181952Y-113636428D01*
X161709571Y-126971428D02*
X161709571Y-126371428D01*
X161709571Y-126371428D02*
X161995285Y-126971428D01*
X161995285Y-126971428D02*
X161995285Y-126371428D01*
X162519095Y-126971428D02*
X162352429Y-126685714D01*
X162233381Y-126971428D02*
X162233381Y-126371428D01*
X162233381Y-126371428D02*
X162423857Y-126371428D01*
X162423857Y-126371428D02*
X162471476Y-126400000D01*
X162471476Y-126400000D02*
X162495286Y-126428571D01*
X162495286Y-126428571D02*
X162519095Y-126485714D01*
X162519095Y-126485714D02*
X162519095Y-126571428D01*
X162519095Y-126571428D02*
X162495286Y-126628571D01*
X162495286Y-126628571D02*
X162471476Y-126657142D01*
X162471476Y-126657142D02*
X162423857Y-126685714D01*
X162423857Y-126685714D02*
X162233381Y-126685714D01*
X162709572Y-126942857D02*
X162781000Y-126971428D01*
X162781000Y-126971428D02*
X162900048Y-126971428D01*
X162900048Y-126971428D02*
X162947667Y-126942857D01*
X162947667Y-126942857D02*
X162971476Y-126914285D01*
X162971476Y-126914285D02*
X162995286Y-126857142D01*
X162995286Y-126857142D02*
X162995286Y-126800000D01*
X162995286Y-126800000D02*
X162971476Y-126742857D01*
X162971476Y-126742857D02*
X162947667Y-126714285D01*
X162947667Y-126714285D02*
X162900048Y-126685714D01*
X162900048Y-126685714D02*
X162804810Y-126657142D01*
X162804810Y-126657142D02*
X162757191Y-126628571D01*
X162757191Y-126628571D02*
X162733381Y-126600000D01*
X162733381Y-126600000D02*
X162709572Y-126542857D01*
X162709572Y-126542857D02*
X162709572Y-126485714D01*
X162709572Y-126485714D02*
X162733381Y-126428571D01*
X162733381Y-126428571D02*
X162757191Y-126400000D01*
X162757191Y-126400000D02*
X162804810Y-126371428D01*
X162804810Y-126371428D02*
X162923857Y-126371428D01*
X162923857Y-126371428D02*
X162995286Y-126400000D01*
X163138143Y-126371428D02*
X163423857Y-126371428D01*
X163281000Y-126971428D02*
X163281000Y-126371428D01*
X132792213Y-114347990D02*
X133011080Y-114129124D01*
X133011080Y-114129124D02*
X133054853Y-114408600D01*
X133054853Y-114408600D02*
X133105361Y-114358092D01*
X133105361Y-114358092D02*
X133159236Y-114344623D01*
X133159236Y-114344623D02*
X133196274Y-114347990D01*
X133196274Y-114347990D02*
X133253516Y-114371561D01*
X133253516Y-114371561D02*
X133354532Y-114472576D01*
X133354532Y-114472576D02*
X133378102Y-114529818D01*
X133378102Y-114529818D02*
X133381469Y-114566857D01*
X133381469Y-114566857D02*
X133368000Y-114620732D01*
X133368000Y-114620732D02*
X133266985Y-114721747D01*
X133266985Y-114721747D02*
X133213110Y-114735216D01*
X133213110Y-114735216D02*
X133176071Y-114731848D01*
X133546460Y-114361459D02*
X133583499Y-114364827D01*
X133583499Y-114364827D02*
X133586866Y-114401866D01*
X133586866Y-114401866D02*
X133549828Y-114398498D01*
X133549828Y-114398498D02*
X133546460Y-114361459D01*
X133546460Y-114361459D02*
X133586866Y-114401866D01*
X133297289Y-113842915D02*
X133516156Y-113624048D01*
X133516156Y-113624048D02*
X133559929Y-113903524D01*
X133559929Y-113903524D02*
X133610437Y-113853016D01*
X133610437Y-113853016D02*
X133664311Y-113839548D01*
X133664311Y-113839548D02*
X133701350Y-113842915D01*
X133701350Y-113842915D02*
X133758592Y-113866485D01*
X133758592Y-113866485D02*
X133859607Y-113967500D01*
X133859607Y-113967500D02*
X133883178Y-114024742D01*
X133883178Y-114024742D02*
X133886545Y-114061781D01*
X133886545Y-114061781D02*
X133873076Y-114115656D01*
X133873076Y-114115656D02*
X133772061Y-114216671D01*
X133772061Y-114216671D02*
X133718186Y-114230140D01*
X133718186Y-114230140D02*
X133681147Y-114226773D01*
X155633382Y-111067857D02*
X155704810Y-111096428D01*
X155704810Y-111096428D02*
X155823858Y-111096428D01*
X155823858Y-111096428D02*
X155871477Y-111067857D01*
X155871477Y-111067857D02*
X155895286Y-111039285D01*
X155895286Y-111039285D02*
X155919096Y-110982142D01*
X155919096Y-110982142D02*
X155919096Y-110925000D01*
X155919096Y-110925000D02*
X155895286Y-110867857D01*
X155895286Y-110867857D02*
X155871477Y-110839285D01*
X155871477Y-110839285D02*
X155823858Y-110810714D01*
X155823858Y-110810714D02*
X155728620Y-110782142D01*
X155728620Y-110782142D02*
X155681001Y-110753571D01*
X155681001Y-110753571D02*
X155657191Y-110725000D01*
X155657191Y-110725000D02*
X155633382Y-110667857D01*
X155633382Y-110667857D02*
X155633382Y-110610714D01*
X155633382Y-110610714D02*
X155657191Y-110553571D01*
X155657191Y-110553571D02*
X155681001Y-110525000D01*
X155681001Y-110525000D02*
X155728620Y-110496428D01*
X155728620Y-110496428D02*
X155847667Y-110496428D01*
X155847667Y-110496428D02*
X155919096Y-110525000D01*
X156061953Y-110496428D02*
X156347667Y-110496428D01*
X156204810Y-111096428D02*
X156204810Y-110496428D01*
X156490524Y-110925000D02*
X156728619Y-110925000D01*
X156442905Y-111096428D02*
X156609571Y-110496428D01*
X156609571Y-110496428D02*
X156776238Y-111096428D01*
X154196715Y-126371428D02*
X154506239Y-126371428D01*
X154506239Y-126371428D02*
X154339572Y-126600000D01*
X154339572Y-126600000D02*
X154411001Y-126600000D01*
X154411001Y-126600000D02*
X154458620Y-126628571D01*
X154458620Y-126628571D02*
X154482429Y-126657142D01*
X154482429Y-126657142D02*
X154506239Y-126714285D01*
X154506239Y-126714285D02*
X154506239Y-126857142D01*
X154506239Y-126857142D02*
X154482429Y-126914285D01*
X154482429Y-126914285D02*
X154458620Y-126942857D01*
X154458620Y-126942857D02*
X154411001Y-126971428D01*
X154411001Y-126971428D02*
X154268144Y-126971428D01*
X154268144Y-126971428D02*
X154220525Y-126942857D01*
X154220525Y-126942857D02*
X154196715Y-126914285D01*
X154720524Y-126914285D02*
X154744334Y-126942857D01*
X154744334Y-126942857D02*
X154720524Y-126971428D01*
X154720524Y-126971428D02*
X154696715Y-126942857D01*
X154696715Y-126942857D02*
X154720524Y-126914285D01*
X154720524Y-126914285D02*
X154720524Y-126971428D01*
X154911000Y-126371428D02*
X155220524Y-126371428D01*
X155220524Y-126371428D02*
X155053857Y-126600000D01*
X155053857Y-126600000D02*
X155125286Y-126600000D01*
X155125286Y-126600000D02*
X155172905Y-126628571D01*
X155172905Y-126628571D02*
X155196714Y-126657142D01*
X155196714Y-126657142D02*
X155220524Y-126714285D01*
X155220524Y-126714285D02*
X155220524Y-126857142D01*
X155220524Y-126857142D02*
X155196714Y-126914285D01*
X155196714Y-126914285D02*
X155172905Y-126942857D01*
X155172905Y-126942857D02*
X155125286Y-126971428D01*
X155125286Y-126971428D02*
X154982429Y-126971428D01*
X154982429Y-126971428D02*
X154934810Y-126942857D01*
X154934810Y-126942857D02*
X154911000Y-126914285D01*
X155387190Y-126571428D02*
X155506238Y-126971428D01*
X155506238Y-126971428D02*
X155625285Y-126571428D01*
X135684083Y-109744649D02*
X135515724Y-109913008D01*
X135515724Y-109913008D02*
X135091460Y-109488744D01*
X135801934Y-109626798D02*
X135377670Y-109202534D01*
X135970293Y-109458440D02*
X135546028Y-109034175D01*
X135546028Y-109034175D02*
X136172323Y-109256409D01*
X136172323Y-109256409D02*
X135748059Y-108832145D01*
X136448432Y-108535833D02*
X136519142Y-108505529D01*
X136519142Y-108505529D02*
X136556181Y-108508896D01*
X136556181Y-108508896D02*
X136613423Y-108532466D01*
X136613423Y-108532466D02*
X136674032Y-108593075D01*
X136674032Y-108593075D02*
X136697603Y-108650317D01*
X136697603Y-108650317D02*
X136700970Y-108687356D01*
X136700970Y-108687356D02*
X136687501Y-108741231D01*
X136687501Y-108741231D02*
X136552814Y-108875918D01*
X136552814Y-108875918D02*
X136128550Y-108451654D01*
X136128550Y-108451654D02*
X136246401Y-108333803D01*
X136246401Y-108333803D02*
X136300276Y-108320334D01*
X136300276Y-108320334D02*
X136337315Y-108323701D01*
X136337315Y-108323701D02*
X136394557Y-108347271D01*
X136394557Y-108347271D02*
X136434963Y-108387678D01*
X136434963Y-108387678D02*
X136458533Y-108444919D01*
X136458533Y-108444919D02*
X136461900Y-108481958D01*
X136461900Y-108481958D02*
X136448432Y-108535833D01*
X136448432Y-108535833D02*
X136330581Y-108653684D01*
X163193858Y-118687857D02*
X163265286Y-118716428D01*
X163265286Y-118716428D02*
X163384334Y-118716428D01*
X163384334Y-118716428D02*
X163431953Y-118687857D01*
X163431953Y-118687857D02*
X163455762Y-118659285D01*
X163455762Y-118659285D02*
X163479572Y-118602142D01*
X163479572Y-118602142D02*
X163479572Y-118545000D01*
X163479572Y-118545000D02*
X163455762Y-118487857D01*
X163455762Y-118487857D02*
X163431953Y-118459285D01*
X163431953Y-118459285D02*
X163384334Y-118430714D01*
X163384334Y-118430714D02*
X163289096Y-118402142D01*
X163289096Y-118402142D02*
X163241477Y-118373571D01*
X163241477Y-118373571D02*
X163217667Y-118345000D01*
X163217667Y-118345000D02*
X163193858Y-118287857D01*
X163193858Y-118287857D02*
X163193858Y-118230714D01*
X163193858Y-118230714D02*
X163217667Y-118173571D01*
X163217667Y-118173571D02*
X163241477Y-118145000D01*
X163241477Y-118145000D02*
X163289096Y-118116428D01*
X163289096Y-118116428D02*
X163408143Y-118116428D01*
X163408143Y-118116428D02*
X163479572Y-118145000D01*
X163693857Y-118716428D02*
X163693857Y-118116428D01*
X163693857Y-118116428D02*
X163812905Y-118116428D01*
X163812905Y-118116428D02*
X163884333Y-118145000D01*
X163884333Y-118145000D02*
X163931952Y-118202142D01*
X163931952Y-118202142D02*
X163955762Y-118259285D01*
X163955762Y-118259285D02*
X163979571Y-118373571D01*
X163979571Y-118373571D02*
X163979571Y-118459285D01*
X163979571Y-118459285D02*
X163955762Y-118573571D01*
X163955762Y-118573571D02*
X163931952Y-118630714D01*
X163931952Y-118630714D02*
X163884333Y-118687857D01*
X163884333Y-118687857D02*
X163812905Y-118716428D01*
X163812905Y-118716428D02*
X163693857Y-118716428D01*
X164170048Y-118545000D02*
X164408143Y-118545000D01*
X164122429Y-118716428D02*
X164289095Y-118116428D01*
X164289095Y-118116428D02*
X164455762Y-118716428D01*
X163205762Y-121227857D02*
X163277190Y-121256428D01*
X163277190Y-121256428D02*
X163396238Y-121256428D01*
X163396238Y-121256428D02*
X163443857Y-121227857D01*
X163443857Y-121227857D02*
X163467666Y-121199285D01*
X163467666Y-121199285D02*
X163491476Y-121142142D01*
X163491476Y-121142142D02*
X163491476Y-121085000D01*
X163491476Y-121085000D02*
X163467666Y-121027857D01*
X163467666Y-121027857D02*
X163443857Y-120999285D01*
X163443857Y-120999285D02*
X163396238Y-120970714D01*
X163396238Y-120970714D02*
X163301000Y-120942142D01*
X163301000Y-120942142D02*
X163253381Y-120913571D01*
X163253381Y-120913571D02*
X163229571Y-120885000D01*
X163229571Y-120885000D02*
X163205762Y-120827857D01*
X163205762Y-120827857D02*
X163205762Y-120770714D01*
X163205762Y-120770714D02*
X163229571Y-120713571D01*
X163229571Y-120713571D02*
X163253381Y-120685000D01*
X163253381Y-120685000D02*
X163301000Y-120656428D01*
X163301000Y-120656428D02*
X163420047Y-120656428D01*
X163420047Y-120656428D02*
X163491476Y-120685000D01*
X163991475Y-121199285D02*
X163967666Y-121227857D01*
X163967666Y-121227857D02*
X163896237Y-121256428D01*
X163896237Y-121256428D02*
X163848618Y-121256428D01*
X163848618Y-121256428D02*
X163777190Y-121227857D01*
X163777190Y-121227857D02*
X163729571Y-121170714D01*
X163729571Y-121170714D02*
X163705761Y-121113571D01*
X163705761Y-121113571D02*
X163681952Y-120999285D01*
X163681952Y-120999285D02*
X163681952Y-120913571D01*
X163681952Y-120913571D02*
X163705761Y-120799285D01*
X163705761Y-120799285D02*
X163729571Y-120742142D01*
X163729571Y-120742142D02*
X163777190Y-120685000D01*
X163777190Y-120685000D02*
X163848618Y-120656428D01*
X163848618Y-120656428D02*
X163896237Y-120656428D01*
X163896237Y-120656428D02*
X163967666Y-120685000D01*
X163967666Y-120685000D02*
X163991475Y-120713571D01*
X164443856Y-121256428D02*
X164205761Y-121256428D01*
X164205761Y-121256428D02*
X164205761Y-120656428D01*
X133050047Y-104286428D02*
X133050047Y-103686428D01*
X133050047Y-103686428D02*
X133216714Y-104115000D01*
X133216714Y-104115000D02*
X133383380Y-103686428D01*
X133383380Y-103686428D02*
X133383380Y-104286428D01*
X133597667Y-104115000D02*
X133835762Y-104115000D01*
X133550048Y-104286428D02*
X133716714Y-103686428D01*
X133716714Y-103686428D02*
X133883381Y-104286428D01*
X133407190Y-111963571D02*
X133359571Y-111935000D01*
X133359571Y-111935000D02*
X133311952Y-111877857D01*
X133311952Y-111877857D02*
X133240524Y-111792142D01*
X133240524Y-111792142D02*
X133192905Y-111763571D01*
X133192905Y-111763571D02*
X133145286Y-111763571D01*
X133169095Y-111906428D02*
X133121476Y-111877857D01*
X133121476Y-111877857D02*
X133073857Y-111820714D01*
X133073857Y-111820714D02*
X133050048Y-111706428D01*
X133050048Y-111706428D02*
X133050048Y-111506428D01*
X133050048Y-111506428D02*
X133073857Y-111392142D01*
X133073857Y-111392142D02*
X133121476Y-111335000D01*
X133121476Y-111335000D02*
X133169095Y-111306428D01*
X133169095Y-111306428D02*
X133264333Y-111306428D01*
X133264333Y-111306428D02*
X133311952Y-111335000D01*
X133311952Y-111335000D02*
X133359571Y-111392142D01*
X133359571Y-111392142D02*
X133383381Y-111506428D01*
X133383381Y-111506428D02*
X133383381Y-111706428D01*
X133383381Y-111706428D02*
X133359571Y-111820714D01*
X133359571Y-111820714D02*
X133311952Y-111877857D01*
X133311952Y-111877857D02*
X133264333Y-111906428D01*
X133264333Y-111906428D02*
X133169095Y-111906428D01*
X133573858Y-111735000D02*
X133811953Y-111735000D01*
X133526239Y-111906428D02*
X133692905Y-111306428D01*
X133692905Y-111306428D02*
X133859572Y-111906428D01*
X133091428Y-101109809D02*
X132491428Y-101109809D01*
X132491428Y-101109809D02*
X132920000Y-100943142D01*
X132920000Y-100943142D02*
X132491428Y-100776476D01*
X132491428Y-100776476D02*
X133091428Y-100776476D01*
X133091428Y-100466951D02*
X133062857Y-100514570D01*
X133062857Y-100514570D02*
X133034285Y-100538380D01*
X133034285Y-100538380D02*
X132977142Y-100562189D01*
X132977142Y-100562189D02*
X132805714Y-100562189D01*
X132805714Y-100562189D02*
X132748571Y-100538380D01*
X132748571Y-100538380D02*
X132720000Y-100514570D01*
X132720000Y-100514570D02*
X132691428Y-100466951D01*
X132691428Y-100466951D02*
X132691428Y-100395523D01*
X132691428Y-100395523D02*
X132720000Y-100347904D01*
X132720000Y-100347904D02*
X132748571Y-100324094D01*
X132748571Y-100324094D02*
X132805714Y-100300285D01*
X132805714Y-100300285D02*
X132977142Y-100300285D01*
X132977142Y-100300285D02*
X133034285Y-100324094D01*
X133034285Y-100324094D02*
X133062857Y-100347904D01*
X133062857Y-100347904D02*
X133091428Y-100395523D01*
X133091428Y-100395523D02*
X133091428Y-100466951D01*
X132691428Y-100157427D02*
X132691428Y-99966951D01*
X132491428Y-100085999D02*
X133005714Y-100085999D01*
X133005714Y-100085999D02*
X133062857Y-100062189D01*
X133062857Y-100062189D02*
X133091428Y-100014570D01*
X133091428Y-100014570D02*
X133091428Y-99966951D01*
X133091428Y-99728856D02*
X133062857Y-99776475D01*
X133062857Y-99776475D02*
X133034285Y-99800285D01*
X133034285Y-99800285D02*
X132977142Y-99824094D01*
X132977142Y-99824094D02*
X132805714Y-99824094D01*
X132805714Y-99824094D02*
X132748571Y-99800285D01*
X132748571Y-99800285D02*
X132720000Y-99776475D01*
X132720000Y-99776475D02*
X132691428Y-99728856D01*
X132691428Y-99728856D02*
X132691428Y-99657428D01*
X132691428Y-99657428D02*
X132720000Y-99609809D01*
X132720000Y-99609809D02*
X132748571Y-99585999D01*
X132748571Y-99585999D02*
X132805714Y-99562190D01*
X132805714Y-99562190D02*
X132977142Y-99562190D01*
X132977142Y-99562190D02*
X133034285Y-99585999D01*
X133034285Y-99585999D02*
X133062857Y-99609809D01*
X133062857Y-99609809D02*
X133091428Y-99657428D01*
X133091428Y-99657428D02*
X133091428Y-99728856D01*
X133091428Y-99347904D02*
X132691428Y-99347904D01*
X132805714Y-99347904D02*
X132748571Y-99324094D01*
X132748571Y-99324094D02*
X132720000Y-99300285D01*
X132720000Y-99300285D02*
X132691428Y-99252666D01*
X132691428Y-99252666D02*
X132691428Y-99205047D01*
X133091428Y-98738380D02*
X132491428Y-98738380D01*
X132491428Y-98738380D02*
X132491428Y-98547904D01*
X132491428Y-98547904D02*
X132520000Y-98500285D01*
X132520000Y-98500285D02*
X132548571Y-98476475D01*
X132548571Y-98476475D02*
X132605714Y-98452666D01*
X132605714Y-98452666D02*
X132691428Y-98452666D01*
X132691428Y-98452666D02*
X132748571Y-98476475D01*
X132748571Y-98476475D02*
X132777142Y-98500285D01*
X132777142Y-98500285D02*
X132805714Y-98547904D01*
X132805714Y-98547904D02*
X132805714Y-98738380D01*
X133091428Y-98166951D02*
X133062857Y-98214570D01*
X133062857Y-98214570D02*
X133034285Y-98238380D01*
X133034285Y-98238380D02*
X132977142Y-98262189D01*
X132977142Y-98262189D02*
X132805714Y-98262189D01*
X132805714Y-98262189D02*
X132748571Y-98238380D01*
X132748571Y-98238380D02*
X132720000Y-98214570D01*
X132720000Y-98214570D02*
X132691428Y-98166951D01*
X132691428Y-98166951D02*
X132691428Y-98095523D01*
X132691428Y-98095523D02*
X132720000Y-98047904D01*
X132720000Y-98047904D02*
X132748571Y-98024094D01*
X132748571Y-98024094D02*
X132805714Y-98000285D01*
X132805714Y-98000285D02*
X132977142Y-98000285D01*
X132977142Y-98000285D02*
X133034285Y-98024094D01*
X133034285Y-98024094D02*
X133062857Y-98047904D01*
X133062857Y-98047904D02*
X133091428Y-98095523D01*
X133091428Y-98095523D02*
X133091428Y-98166951D01*
X132691428Y-97833618D02*
X133091428Y-97738380D01*
X133091428Y-97738380D02*
X132805714Y-97643142D01*
X132805714Y-97643142D02*
X133091428Y-97547904D01*
X133091428Y-97547904D02*
X132691428Y-97452666D01*
X133062857Y-97071713D02*
X133091428Y-97119332D01*
X133091428Y-97119332D02*
X133091428Y-97214570D01*
X133091428Y-97214570D02*
X133062857Y-97262189D01*
X133062857Y-97262189D02*
X133005714Y-97285998D01*
X133005714Y-97285998D02*
X132777142Y-97285998D01*
X132777142Y-97285998D02*
X132720000Y-97262189D01*
X132720000Y-97262189D02*
X132691428Y-97214570D01*
X132691428Y-97214570D02*
X132691428Y-97119332D01*
X132691428Y-97119332D02*
X132720000Y-97071713D01*
X132720000Y-97071713D02*
X132777142Y-97047903D01*
X132777142Y-97047903D02*
X132834285Y-97047903D01*
X132834285Y-97047903D02*
X132891428Y-97285998D01*
X133091428Y-96833618D02*
X132691428Y-96833618D01*
X132805714Y-96833618D02*
X132748571Y-96809808D01*
X132748571Y-96809808D02*
X132720000Y-96785999D01*
X132720000Y-96785999D02*
X132691428Y-96738380D01*
X132691428Y-96738380D02*
X132691428Y-96690761D01*
X163086715Y-115576428D02*
X163396239Y-115576428D01*
X163396239Y-115576428D02*
X163229572Y-115805000D01*
X163229572Y-115805000D02*
X163301001Y-115805000D01*
X163301001Y-115805000D02*
X163348620Y-115833571D01*
X163348620Y-115833571D02*
X163372429Y-115862142D01*
X163372429Y-115862142D02*
X163396239Y-115919285D01*
X163396239Y-115919285D02*
X163396239Y-116062142D01*
X163396239Y-116062142D02*
X163372429Y-116119285D01*
X163372429Y-116119285D02*
X163348620Y-116147857D01*
X163348620Y-116147857D02*
X163301001Y-116176428D01*
X163301001Y-116176428D02*
X163158144Y-116176428D01*
X163158144Y-116176428D02*
X163110525Y-116147857D01*
X163110525Y-116147857D02*
X163086715Y-116119285D01*
X163610524Y-116119285D02*
X163634334Y-116147857D01*
X163634334Y-116147857D02*
X163610524Y-116176428D01*
X163610524Y-116176428D02*
X163586715Y-116147857D01*
X163586715Y-116147857D02*
X163610524Y-116119285D01*
X163610524Y-116119285D02*
X163610524Y-116176428D01*
X163801000Y-115576428D02*
X164110524Y-115576428D01*
X164110524Y-115576428D02*
X163943857Y-115805000D01*
X163943857Y-115805000D02*
X164015286Y-115805000D01*
X164015286Y-115805000D02*
X164062905Y-115833571D01*
X164062905Y-115833571D02*
X164086714Y-115862142D01*
X164086714Y-115862142D02*
X164110524Y-115919285D01*
X164110524Y-115919285D02*
X164110524Y-116062142D01*
X164110524Y-116062142D02*
X164086714Y-116119285D01*
X164086714Y-116119285D02*
X164062905Y-116147857D01*
X164062905Y-116147857D02*
X164015286Y-116176428D01*
X164015286Y-116176428D02*
X163872429Y-116176428D01*
X163872429Y-116176428D02*
X163824810Y-116147857D01*
X163824810Y-116147857D02*
X163801000Y-116119285D01*
X164277190Y-115776428D02*
X164396238Y-116176428D01*
X164396238Y-116176428D02*
X164515285Y-115776428D01*
X134297915Y-118508380D02*
X134466274Y-118340021D01*
X134385462Y-118663270D02*
X134079049Y-118121155D01*
X134079049Y-118121155D02*
X134621164Y-118427568D01*
X134314751Y-117885453D02*
X134658203Y-118228905D01*
X134658203Y-118228905D02*
X134715445Y-118252475D01*
X134715445Y-118252475D02*
X134752484Y-118255842D01*
X134752484Y-118255842D02*
X134806359Y-118242373D01*
X134806359Y-118242373D02*
X134873702Y-118175030D01*
X134873702Y-118175030D02*
X134887171Y-118121155D01*
X134887171Y-118121155D02*
X134883804Y-118084116D01*
X134883804Y-118084116D02*
X134860233Y-118026874D01*
X134860233Y-118026874D02*
X134516782Y-117683422D01*
X134651469Y-117548735D02*
X135311435Y-117737297D01*
X134887171Y-117313033D02*
X135075733Y-117972999D01*
D11*
X134320048Y-100242428D02*
X135081953Y-100242428D01*
X134701000Y-100623380D02*
X134701000Y-99861476D01*
D10*
X134180047Y-121685000D02*
X134132428Y-121656428D01*
X134132428Y-121656428D02*
X134060999Y-121656428D01*
X134060999Y-121656428D02*
X133989571Y-121685000D01*
X133989571Y-121685000D02*
X133941952Y-121742142D01*
X133941952Y-121742142D02*
X133918142Y-121799285D01*
X133918142Y-121799285D02*
X133894333Y-121913571D01*
X133894333Y-121913571D02*
X133894333Y-121999285D01*
X133894333Y-121999285D02*
X133918142Y-122113571D01*
X133918142Y-122113571D02*
X133941952Y-122170714D01*
X133941952Y-122170714D02*
X133989571Y-122227857D01*
X133989571Y-122227857D02*
X134060999Y-122256428D01*
X134060999Y-122256428D02*
X134108618Y-122256428D01*
X134108618Y-122256428D02*
X134180047Y-122227857D01*
X134180047Y-122227857D02*
X134203856Y-122199285D01*
X134203856Y-122199285D02*
X134203856Y-121999285D01*
X134203856Y-121999285D02*
X134108618Y-121999285D01*
X134418142Y-122256428D02*
X134418142Y-121656428D01*
X134418142Y-121656428D02*
X134703856Y-122256428D01*
X134703856Y-122256428D02*
X134703856Y-121656428D01*
X134941952Y-122256428D02*
X134941952Y-121656428D01*
X134941952Y-121656428D02*
X135061000Y-121656428D01*
X135061000Y-121656428D02*
X135132428Y-121685000D01*
X135132428Y-121685000D02*
X135180047Y-121742142D01*
X135180047Y-121742142D02*
X135203857Y-121799285D01*
X135203857Y-121799285D02*
X135227666Y-121913571D01*
X135227666Y-121913571D02*
X135227666Y-121999285D01*
X135227666Y-121999285D02*
X135203857Y-122113571D01*
X135203857Y-122113571D02*
X135180047Y-122170714D01*
X135180047Y-122170714D02*
X135132428Y-122227857D01*
X135132428Y-122227857D02*
X135061000Y-122256428D01*
X135061000Y-122256428D02*
X134941952Y-122256428D01*
X135453431Y-114267179D02*
X135399556Y-114280648D01*
X135399556Y-114280648D02*
X135349048Y-114331156D01*
X135349048Y-114331156D02*
X135318744Y-114401866D01*
X135318744Y-114401866D02*
X135325478Y-114475944D01*
X135325478Y-114475944D02*
X135349048Y-114533186D01*
X135349048Y-114533186D02*
X135413025Y-114630834D01*
X135413025Y-114630834D02*
X135473634Y-114691443D01*
X135473634Y-114691443D02*
X135571282Y-114755420D01*
X135571282Y-114755420D02*
X135628524Y-114778990D01*
X135628524Y-114778990D02*
X135702602Y-114785724D01*
X135702602Y-114785724D02*
X135773312Y-114755420D01*
X135773312Y-114755420D02*
X135806984Y-114721748D01*
X135806984Y-114721748D02*
X135837289Y-114651037D01*
X135837289Y-114651037D02*
X135833922Y-114613998D01*
X135833922Y-114613998D02*
X135692500Y-114472577D01*
X135692500Y-114472577D02*
X135625157Y-114539920D01*
X136025851Y-114502881D02*
X135601587Y-114078617D01*
X135601587Y-114078617D02*
X136227881Y-114300851D01*
X136227881Y-114300851D02*
X135803617Y-113876587D01*
X136396240Y-114132492D02*
X135971976Y-113708228D01*
X135971976Y-113708228D02*
X136056156Y-113624048D01*
X136056156Y-113624048D02*
X136126866Y-113593744D01*
X136126866Y-113593744D02*
X136200944Y-113600478D01*
X136200944Y-113600478D02*
X136258186Y-113624048D01*
X136258186Y-113624048D02*
X136355834Y-113688025D01*
X136355834Y-113688025D02*
X136416443Y-113748634D01*
X136416443Y-113748634D02*
X136480420Y-113846282D01*
X136480420Y-113846282D02*
X136503990Y-113903524D01*
X136503990Y-113903524D02*
X136510724Y-113977602D01*
X136510724Y-113977602D02*
X136480420Y-114048312D01*
X136480420Y-114048312D02*
X136396240Y-114132492D01*
X135347365Y-107541367D02*
X134923101Y-107117103D01*
X134923101Y-107117103D02*
X135057788Y-106982416D01*
X135057788Y-106982416D02*
X135111662Y-106968948D01*
X135111662Y-106968948D02*
X135148701Y-106972315D01*
X135148701Y-106972315D02*
X135205943Y-106995885D01*
X135205943Y-106995885D02*
X135266552Y-107056494D01*
X135266552Y-107056494D02*
X135290123Y-107113736D01*
X135290123Y-107113736D02*
X135293490Y-107150775D01*
X135293490Y-107150775D02*
X135280021Y-107204650D01*
X135280021Y-107204650D02*
X135145334Y-107339337D01*
X135242982Y-106797222D02*
X135751426Y-107137306D01*
X135751426Y-107137306D02*
X135515723Y-106766917D01*
X135515723Y-106766917D02*
X135886113Y-107002619D01*
X135886113Y-107002619D02*
X135546028Y-106494176D01*
X136104979Y-106783753D02*
X135680715Y-106359489D01*
X135680715Y-106359489D02*
X136101612Y-106544683D01*
X136101612Y-106544683D02*
X135916418Y-106123786D01*
X135916418Y-106123786D02*
X136340682Y-106548050D01*
X136616790Y-105827475D02*
X136687501Y-105797170D01*
X136687501Y-105797170D02*
X136724540Y-105800537D01*
X136724540Y-105800537D02*
X136781782Y-105824107D01*
X136781782Y-105824107D02*
X136842391Y-105884717D01*
X136842391Y-105884717D02*
X136865961Y-105941959D01*
X136865961Y-105941959D02*
X136869328Y-105978998D01*
X136869328Y-105978998D02*
X136855860Y-106032872D01*
X136855860Y-106032872D02*
X136721173Y-106167559D01*
X136721173Y-106167559D02*
X136296909Y-105743295D01*
X136296909Y-105743295D02*
X136414760Y-105625444D01*
X136414760Y-105625444D02*
X136468635Y-105611975D01*
X136468635Y-105611975D02*
X136505674Y-105615343D01*
X136505674Y-105615343D02*
X136562916Y-105638913D01*
X136562916Y-105638913D02*
X136603322Y-105679319D01*
X136603322Y-105679319D02*
X136626892Y-105736561D01*
X136626892Y-105736561D02*
X136630259Y-105773600D01*
X136630259Y-105773600D02*
X136616790Y-105827475D01*
X136616790Y-105827475D02*
X136498939Y-105945326D01*
X159610047Y-126400000D02*
X159562428Y-126371428D01*
X159562428Y-126371428D02*
X159490999Y-126371428D01*
X159490999Y-126371428D02*
X159419571Y-126400000D01*
X159419571Y-126400000D02*
X159371952Y-126457142D01*
X159371952Y-126457142D02*
X159348142Y-126514285D01*
X159348142Y-126514285D02*
X159324333Y-126628571D01*
X159324333Y-126628571D02*
X159324333Y-126714285D01*
X159324333Y-126714285D02*
X159348142Y-126828571D01*
X159348142Y-126828571D02*
X159371952Y-126885714D01*
X159371952Y-126885714D02*
X159419571Y-126942857D01*
X159419571Y-126942857D02*
X159490999Y-126971428D01*
X159490999Y-126971428D02*
X159538618Y-126971428D01*
X159538618Y-126971428D02*
X159610047Y-126942857D01*
X159610047Y-126942857D02*
X159633856Y-126914285D01*
X159633856Y-126914285D02*
X159633856Y-126714285D01*
X159633856Y-126714285D02*
X159538618Y-126714285D01*
X159848142Y-126971428D02*
X159848142Y-126371428D01*
X159848142Y-126371428D02*
X160133856Y-126971428D01*
X160133856Y-126971428D02*
X160133856Y-126371428D01*
X160371952Y-126971428D02*
X160371952Y-126371428D01*
X160371952Y-126371428D02*
X160491000Y-126371428D01*
X160491000Y-126371428D02*
X160562428Y-126400000D01*
X160562428Y-126400000D02*
X160610047Y-126457142D01*
X160610047Y-126457142D02*
X160633857Y-126514285D01*
X160633857Y-126514285D02*
X160657666Y-126628571D01*
X160657666Y-126628571D02*
X160657666Y-126714285D01*
X160657666Y-126714285D02*
X160633857Y-126828571D01*
X160633857Y-126828571D02*
X160610047Y-126885714D01*
X160610047Y-126885714D02*
X160562428Y-126942857D01*
X160562428Y-126942857D02*
X160491000Y-126971428D01*
X160491000Y-126971428D02*
X160371952Y-126971428D01*
X156617667Y-126942857D02*
X156689095Y-126971428D01*
X156689095Y-126971428D02*
X156808143Y-126971428D01*
X156808143Y-126971428D02*
X156855762Y-126942857D01*
X156855762Y-126942857D02*
X156879571Y-126914285D01*
X156879571Y-126914285D02*
X156903381Y-126857142D01*
X156903381Y-126857142D02*
X156903381Y-126800000D01*
X156903381Y-126800000D02*
X156879571Y-126742857D01*
X156879571Y-126742857D02*
X156855762Y-126714285D01*
X156855762Y-126714285D02*
X156808143Y-126685714D01*
X156808143Y-126685714D02*
X156712905Y-126657142D01*
X156712905Y-126657142D02*
X156665286Y-126628571D01*
X156665286Y-126628571D02*
X156641476Y-126600000D01*
X156641476Y-126600000D02*
X156617667Y-126542857D01*
X156617667Y-126542857D02*
X156617667Y-126485714D01*
X156617667Y-126485714D02*
X156641476Y-126428571D01*
X156641476Y-126428571D02*
X156665286Y-126400000D01*
X156665286Y-126400000D02*
X156712905Y-126371428D01*
X156712905Y-126371428D02*
X156831952Y-126371428D01*
X156831952Y-126371428D02*
X156903381Y-126400000D01*
X157070047Y-126371428D02*
X157189095Y-126971428D01*
X157189095Y-126971428D02*
X157284333Y-126542857D01*
X157284333Y-126542857D02*
X157379571Y-126971428D01*
X157379571Y-126971428D02*
X157498619Y-126371428D01*
X157689095Y-126971428D02*
X157689095Y-126371428D01*
X157927190Y-126971428D02*
X157927190Y-126371428D01*
X157927190Y-126371428D02*
X158093857Y-126800000D01*
X158093857Y-126800000D02*
X158260523Y-126371428D01*
X158260523Y-126371428D02*
X158260523Y-126971428D01*
X133169336Y-109719396D02*
X133000978Y-109887754D01*
X133000978Y-109887754D02*
X132576714Y-109463490D01*
X133287188Y-109601545D02*
X132862923Y-109177280D01*
X133455546Y-109433186D02*
X133031282Y-109008922D01*
X133031282Y-109008922D02*
X133657577Y-109231155D01*
X133657577Y-109231155D02*
X133233313Y-108806891D01*
X133900014Y-108746282D02*
X134068372Y-108577923D01*
X133987560Y-108901172D02*
X133681147Y-108359057D01*
X133681147Y-108359057D02*
X134223262Y-108665470D01*
X135554333Y-104286428D02*
X135554333Y-103686428D01*
X135554333Y-103686428D02*
X135721000Y-104115000D01*
X135721000Y-104115000D02*
X135887666Y-103686428D01*
X135887666Y-103686428D02*
X135887666Y-104286428D01*
X136292429Y-103972142D02*
X136363857Y-104000714D01*
X136363857Y-104000714D02*
X136387667Y-104029285D01*
X136387667Y-104029285D02*
X136411476Y-104086428D01*
X136411476Y-104086428D02*
X136411476Y-104172142D01*
X136411476Y-104172142D02*
X136387667Y-104229285D01*
X136387667Y-104229285D02*
X136363857Y-104257857D01*
X136363857Y-104257857D02*
X136316238Y-104286428D01*
X136316238Y-104286428D02*
X136125762Y-104286428D01*
X136125762Y-104286428D02*
X136125762Y-103686428D01*
X136125762Y-103686428D02*
X136292429Y-103686428D01*
X136292429Y-103686428D02*
X136340048Y-103715000D01*
X136340048Y-103715000D02*
X136363857Y-103743571D01*
X136363857Y-103743571D02*
X136387667Y-103800714D01*
X136387667Y-103800714D02*
X136387667Y-103857857D01*
X136387667Y-103857857D02*
X136363857Y-103915000D01*
X136363857Y-103915000D02*
X136340048Y-103943571D01*
X136340048Y-103943571D02*
X136292429Y-103972142D01*
X136292429Y-103972142D02*
X136125762Y-103972142D01*
X155633380Y-108556428D02*
X155633380Y-107956428D01*
X155633380Y-107956428D02*
X155800047Y-108385000D01*
X155800047Y-108385000D02*
X155966713Y-107956428D01*
X155966713Y-107956428D02*
X155966713Y-108556428D01*
X156204809Y-108556428D02*
X156204809Y-107956428D01*
X156442904Y-108556428D02*
X156442904Y-107956428D01*
X156442904Y-107956428D02*
X156728618Y-108556428D01*
X156728618Y-108556428D02*
X156728618Y-107956428D01*
X155561952Y-106016428D02*
X155561952Y-105416428D01*
X155561952Y-105416428D02*
X155728619Y-105845000D01*
X155728619Y-105845000D02*
X155895285Y-105416428D01*
X155895285Y-105416428D02*
X155895285Y-106016428D01*
X156109572Y-105845000D02*
X156347667Y-105845000D01*
X156061953Y-106016428D02*
X156228619Y-105416428D01*
X156228619Y-105416428D02*
X156395286Y-106016428D01*
X156514333Y-105416428D02*
X156847666Y-106016428D01*
X156847666Y-105416428D02*
X156514333Y-106016428D01*
X135911475Y-111963571D02*
X135863856Y-111935000D01*
X135863856Y-111935000D02*
X135816237Y-111877857D01*
X135816237Y-111877857D02*
X135744809Y-111792142D01*
X135744809Y-111792142D02*
X135697190Y-111763571D01*
X135697190Y-111763571D02*
X135649571Y-111763571D01*
X135673380Y-111906428D02*
X135625761Y-111877857D01*
X135625761Y-111877857D02*
X135578142Y-111820714D01*
X135578142Y-111820714D02*
X135554333Y-111706428D01*
X135554333Y-111706428D02*
X135554333Y-111506428D01*
X135554333Y-111506428D02*
X135578142Y-111392142D01*
X135578142Y-111392142D02*
X135625761Y-111335000D01*
X135625761Y-111335000D02*
X135673380Y-111306428D01*
X135673380Y-111306428D02*
X135768618Y-111306428D01*
X135768618Y-111306428D02*
X135816237Y-111335000D01*
X135816237Y-111335000D02*
X135863856Y-111392142D01*
X135863856Y-111392142D02*
X135887666Y-111506428D01*
X135887666Y-111506428D02*
X135887666Y-111706428D01*
X135887666Y-111706428D02*
X135863856Y-111820714D01*
X135863856Y-111820714D02*
X135816237Y-111877857D01*
X135816237Y-111877857D02*
X135768618Y-111906428D01*
X135768618Y-111906428D02*
X135673380Y-111906428D01*
X136268619Y-111592142D02*
X136340047Y-111620714D01*
X136340047Y-111620714D02*
X136363857Y-111649285D01*
X136363857Y-111649285D02*
X136387666Y-111706428D01*
X136387666Y-111706428D02*
X136387666Y-111792142D01*
X136387666Y-111792142D02*
X136363857Y-111849285D01*
X136363857Y-111849285D02*
X136340047Y-111877857D01*
X136340047Y-111877857D02*
X136292428Y-111906428D01*
X136292428Y-111906428D02*
X136101952Y-111906428D01*
X136101952Y-111906428D02*
X136101952Y-111306428D01*
X136101952Y-111306428D02*
X136268619Y-111306428D01*
X136268619Y-111306428D02*
X136316238Y-111335000D01*
X136316238Y-111335000D02*
X136340047Y-111363571D01*
X136340047Y-111363571D02*
X136363857Y-111420714D01*
X136363857Y-111420714D02*
X136363857Y-111477857D01*
X136363857Y-111477857D02*
X136340047Y-111535000D01*
X136340047Y-111535000D02*
X136316238Y-111563571D01*
X136316238Y-111563571D02*
X136268619Y-111592142D01*
X136268619Y-111592142D02*
X136101952Y-111592142D01*
X132832619Y-107516113D02*
X132408355Y-107091849D01*
X132408355Y-107091849D02*
X132543042Y-106957162D01*
X132543042Y-106957162D02*
X132596917Y-106943693D01*
X132596917Y-106943693D02*
X132633956Y-106947060D01*
X132633956Y-106947060D02*
X132691198Y-106970631D01*
X132691198Y-106970631D02*
X132751807Y-107031240D01*
X132751807Y-107031240D02*
X132775377Y-107088482D01*
X132775377Y-107088482D02*
X132778744Y-107125521D01*
X132778744Y-107125521D02*
X132765276Y-107179396D01*
X132765276Y-107179396D02*
X132630588Y-107314083D01*
X132728237Y-106771967D02*
X133236680Y-107112052D01*
X133236680Y-107112052D02*
X133000978Y-106741663D01*
X133000978Y-106741663D02*
X133371367Y-106977365D01*
X133371367Y-106977365D02*
X133031282Y-106468922D01*
X133590234Y-106758498D02*
X133165970Y-106334234D01*
X133165970Y-106334234D02*
X133586867Y-106519429D01*
X133586867Y-106519429D02*
X133401672Y-106098532D01*
X133401672Y-106098532D02*
X133825936Y-106522796D01*
X134068373Y-106037923D02*
X134236732Y-105869564D01*
X134155919Y-106192813D02*
X133849507Y-105650697D01*
X133849507Y-105650697D02*
X134391622Y-105957110D01*
X159638571Y-93742856D02*
X159610000Y-93799999D01*
X159610000Y-93799999D02*
X159552857Y-93857142D01*
X159552857Y-93857142D02*
X159467142Y-93942856D01*
X159467142Y-93942856D02*
X159438571Y-93999999D01*
X159438571Y-93999999D02*
X159438571Y-94057142D01*
X159581428Y-94028571D02*
X159552857Y-94085714D01*
X159552857Y-94085714D02*
X159495714Y-94142856D01*
X159495714Y-94142856D02*
X159381428Y-94171428D01*
X159381428Y-94171428D02*
X159181428Y-94171428D01*
X159181428Y-94171428D02*
X159067142Y-94142856D01*
X159067142Y-94142856D02*
X159010000Y-94085714D01*
X159010000Y-94085714D02*
X158981428Y-94028571D01*
X158981428Y-94028571D02*
X158981428Y-93914285D01*
X158981428Y-93914285D02*
X159010000Y-93857142D01*
X159010000Y-93857142D02*
X159067142Y-93799999D01*
X159067142Y-93799999D02*
X159181428Y-93771428D01*
X159181428Y-93771428D02*
X159381428Y-93771428D01*
X159381428Y-93771428D02*
X159495714Y-93799999D01*
X159495714Y-93799999D02*
X159552857Y-93857142D01*
X159552857Y-93857142D02*
X159581428Y-93914285D01*
X159581428Y-93914285D02*
X159581428Y-94028571D01*
X158981428Y-93571428D02*
X158981428Y-93200000D01*
X158981428Y-93200000D02*
X159210000Y-93400000D01*
X159210000Y-93400000D02*
X159210000Y-93314285D01*
X159210000Y-93314285D02*
X159238571Y-93257143D01*
X159238571Y-93257143D02*
X159267142Y-93228571D01*
X159267142Y-93228571D02*
X159324285Y-93200000D01*
X159324285Y-93200000D02*
X159467142Y-93200000D01*
X159467142Y-93200000D02*
X159524285Y-93228571D01*
X159524285Y-93228571D02*
X159552857Y-93257143D01*
X159552857Y-93257143D02*
X159581428Y-93314285D01*
X159581428Y-93314285D02*
X159581428Y-93485714D01*
X159581428Y-93485714D02*
X159552857Y-93542857D01*
X159552857Y-93542857D02*
X159524285Y-93571428D01*
X158981428Y-92828571D02*
X158981428Y-92771428D01*
X158981428Y-92771428D02*
X159010000Y-92714285D01*
X159010000Y-92714285D02*
X159038571Y-92685714D01*
X159038571Y-92685714D02*
X159095714Y-92657142D01*
X159095714Y-92657142D02*
X159210000Y-92628571D01*
X159210000Y-92628571D02*
X159352857Y-92628571D01*
X159352857Y-92628571D02*
X159467142Y-92657142D01*
X159467142Y-92657142D02*
X159524285Y-92685714D01*
X159524285Y-92685714D02*
X159552857Y-92714285D01*
X159552857Y-92714285D02*
X159581428Y-92771428D01*
X159581428Y-92771428D02*
X159581428Y-92828571D01*
X159581428Y-92828571D02*
X159552857Y-92885714D01*
X159552857Y-92885714D02*
X159524285Y-92914285D01*
X159524285Y-92914285D02*
X159467142Y-92942856D01*
X159467142Y-92942856D02*
X159352857Y-92971428D01*
X159352857Y-92971428D02*
X159210000Y-92971428D01*
X159210000Y-92971428D02*
X159095714Y-92942856D01*
X159095714Y-92942856D02*
X159038571Y-92914285D01*
X159038571Y-92914285D02*
X159010000Y-92885714D01*
X159010000Y-92885714D02*
X158981428Y-92828571D01*
X140038571Y-103742856D02*
X140010000Y-103799999D01*
X140010000Y-103799999D02*
X139952857Y-103857142D01*
X139952857Y-103857142D02*
X139867142Y-103942856D01*
X139867142Y-103942856D02*
X139838571Y-103999999D01*
X139838571Y-103999999D02*
X139838571Y-104057142D01*
X139981428Y-104028571D02*
X139952857Y-104085714D01*
X139952857Y-104085714D02*
X139895714Y-104142856D01*
X139895714Y-104142856D02*
X139781428Y-104171428D01*
X139781428Y-104171428D02*
X139581428Y-104171428D01*
X139581428Y-104171428D02*
X139467142Y-104142856D01*
X139467142Y-104142856D02*
X139410000Y-104085714D01*
X139410000Y-104085714D02*
X139381428Y-104028571D01*
X139381428Y-104028571D02*
X139381428Y-103914285D01*
X139381428Y-103914285D02*
X139410000Y-103857142D01*
X139410000Y-103857142D02*
X139467142Y-103799999D01*
X139467142Y-103799999D02*
X139581428Y-103771428D01*
X139581428Y-103771428D02*
X139781428Y-103771428D01*
X139781428Y-103771428D02*
X139895714Y-103799999D01*
X139895714Y-103799999D02*
X139952857Y-103857142D01*
X139952857Y-103857142D02*
X139981428Y-103914285D01*
X139981428Y-103914285D02*
X139981428Y-104028571D01*
X139981428Y-103200000D02*
X139981428Y-103542857D01*
X139981428Y-103371428D02*
X139381428Y-103371428D01*
X139381428Y-103371428D02*
X139467142Y-103428571D01*
X139467142Y-103428571D02*
X139524285Y-103485714D01*
X139524285Y-103485714D02*
X139552857Y-103542857D01*
X139381428Y-102828571D02*
X139381428Y-102771428D01*
X139381428Y-102771428D02*
X139410000Y-102714285D01*
X139410000Y-102714285D02*
X139438571Y-102685714D01*
X139438571Y-102685714D02*
X139495714Y-102657142D01*
X139495714Y-102657142D02*
X139610000Y-102628571D01*
X139610000Y-102628571D02*
X139752857Y-102628571D01*
X139752857Y-102628571D02*
X139867142Y-102657142D01*
X139867142Y-102657142D02*
X139924285Y-102685714D01*
X139924285Y-102685714D02*
X139952857Y-102714285D01*
X139952857Y-102714285D02*
X139981428Y-102771428D01*
X139981428Y-102771428D02*
X139981428Y-102828571D01*
X139981428Y-102828571D02*
X139952857Y-102885714D01*
X139952857Y-102885714D02*
X139924285Y-102914285D01*
X139924285Y-102914285D02*
X139867142Y-102942856D01*
X139867142Y-102942856D02*
X139752857Y-102971428D01*
X139752857Y-102971428D02*
X139610000Y-102971428D01*
X139610000Y-102971428D02*
X139495714Y-102942856D01*
X139495714Y-102942856D02*
X139438571Y-102914285D01*
X139438571Y-102914285D02*
X139410000Y-102885714D01*
X139410000Y-102885714D02*
X139381428Y-102828571D01*
X137918143Y-91020428D02*
X137918143Y-90420428D01*
X137918143Y-90420428D02*
X138084810Y-90849000D01*
X138084810Y-90849000D02*
X138251476Y-90420428D01*
X138251476Y-90420428D02*
X138251476Y-91020428D01*
X138703858Y-90620428D02*
X138703858Y-91020428D01*
X138584810Y-90391857D02*
X138465763Y-90820428D01*
X138465763Y-90820428D02*
X138775286Y-90820428D01*
X139061000Y-90420428D02*
X139108619Y-90420428D01*
X139108619Y-90420428D02*
X139156238Y-90449000D01*
X139156238Y-90449000D02*
X139180048Y-90477571D01*
X139180048Y-90477571D02*
X139203857Y-90534714D01*
X139203857Y-90534714D02*
X139227667Y-90649000D01*
X139227667Y-90649000D02*
X139227667Y-90791857D01*
X139227667Y-90791857D02*
X139203857Y-90906142D01*
X139203857Y-90906142D02*
X139180048Y-90963285D01*
X139180048Y-90963285D02*
X139156238Y-90991857D01*
X139156238Y-90991857D02*
X139108619Y-91020428D01*
X139108619Y-91020428D02*
X139061000Y-91020428D01*
X139061000Y-91020428D02*
X139013381Y-90991857D01*
X139013381Y-90991857D02*
X138989572Y-90963285D01*
X138989572Y-90963285D02*
X138965762Y-90906142D01*
X138965762Y-90906142D02*
X138941953Y-90791857D01*
X138941953Y-90791857D02*
X138941953Y-90649000D01*
X138941953Y-90649000D02*
X138965762Y-90534714D01*
X138965762Y-90534714D02*
X138989572Y-90477571D01*
X138989572Y-90477571D02*
X139013381Y-90449000D01*
X139013381Y-90449000D02*
X139061000Y-90420428D01*
X159981428Y-101321428D02*
X159695714Y-101488094D01*
X159981428Y-101607142D02*
X159381428Y-101607142D01*
X159381428Y-101607142D02*
X159381428Y-101416666D01*
X159381428Y-101416666D02*
X159410000Y-101369047D01*
X159410000Y-101369047D02*
X159438571Y-101345237D01*
X159438571Y-101345237D02*
X159495714Y-101321428D01*
X159495714Y-101321428D02*
X159581428Y-101321428D01*
X159581428Y-101321428D02*
X159638571Y-101345237D01*
X159638571Y-101345237D02*
X159667142Y-101369047D01*
X159667142Y-101369047D02*
X159695714Y-101416666D01*
X159695714Y-101416666D02*
X159695714Y-101607142D01*
X159438571Y-101130951D02*
X159410000Y-101107142D01*
X159410000Y-101107142D02*
X159381428Y-101059523D01*
X159381428Y-101059523D02*
X159381428Y-100940475D01*
X159381428Y-100940475D02*
X159410000Y-100892856D01*
X159410000Y-100892856D02*
X159438571Y-100869047D01*
X159438571Y-100869047D02*
X159495714Y-100845237D01*
X159495714Y-100845237D02*
X159552857Y-100845237D01*
X159552857Y-100845237D02*
X159638571Y-100869047D01*
X159638571Y-100869047D02*
X159981428Y-101154761D01*
X159981428Y-101154761D02*
X159981428Y-100845237D01*
X159981428Y-100369047D02*
X159981428Y-100654761D01*
X159981428Y-100511904D02*
X159381428Y-100511904D01*
X159381428Y-100511904D02*
X159467142Y-100559523D01*
X159467142Y-100559523D02*
X159524285Y-100607142D01*
X159524285Y-100607142D02*
X159552857Y-100654761D01*
X144121428Y-108719333D02*
X143835714Y-108885999D01*
X144121428Y-109005047D02*
X143521428Y-109005047D01*
X143521428Y-109005047D02*
X143521428Y-108814571D01*
X143521428Y-108814571D02*
X143550000Y-108766952D01*
X143550000Y-108766952D02*
X143578571Y-108743142D01*
X143578571Y-108743142D02*
X143635714Y-108719333D01*
X143635714Y-108719333D02*
X143721428Y-108719333D01*
X143721428Y-108719333D02*
X143778571Y-108743142D01*
X143778571Y-108743142D02*
X143807142Y-108766952D01*
X143807142Y-108766952D02*
X143835714Y-108814571D01*
X143835714Y-108814571D02*
X143835714Y-109005047D01*
X143578571Y-108528856D02*
X143550000Y-108505047D01*
X143550000Y-108505047D02*
X143521428Y-108457428D01*
X143521428Y-108457428D02*
X143521428Y-108338380D01*
X143521428Y-108338380D02*
X143550000Y-108290761D01*
X143550000Y-108290761D02*
X143578571Y-108266952D01*
X143578571Y-108266952D02*
X143635714Y-108243142D01*
X143635714Y-108243142D02*
X143692857Y-108243142D01*
X143692857Y-108243142D02*
X143778571Y-108266952D01*
X143778571Y-108266952D02*
X144121428Y-108552666D01*
X144121428Y-108552666D02*
X144121428Y-108243142D01*
X158581428Y-91357428D02*
X158295714Y-91524094D01*
X158581428Y-91643142D02*
X157981428Y-91643142D01*
X157981428Y-91643142D02*
X157981428Y-91452666D01*
X157981428Y-91452666D02*
X158010000Y-91405047D01*
X158010000Y-91405047D02*
X158038571Y-91381237D01*
X158038571Y-91381237D02*
X158095714Y-91357428D01*
X158095714Y-91357428D02*
X158181428Y-91357428D01*
X158181428Y-91357428D02*
X158238571Y-91381237D01*
X158238571Y-91381237D02*
X158267142Y-91405047D01*
X158267142Y-91405047D02*
X158295714Y-91452666D01*
X158295714Y-91452666D02*
X158295714Y-91643142D01*
X158581428Y-90881237D02*
X158581428Y-91166951D01*
X158581428Y-91024094D02*
X157981428Y-91024094D01*
X157981428Y-91024094D02*
X158067142Y-91071713D01*
X158067142Y-91071713D02*
X158124285Y-91119332D01*
X158124285Y-91119332D02*
X158152857Y-91166951D01*
X158038571Y-90690761D02*
X158010000Y-90666952D01*
X158010000Y-90666952D02*
X157981428Y-90619333D01*
X157981428Y-90619333D02*
X157981428Y-90500285D01*
X157981428Y-90500285D02*
X158010000Y-90452666D01*
X158010000Y-90452666D02*
X158038571Y-90428857D01*
X158038571Y-90428857D02*
X158095714Y-90405047D01*
X158095714Y-90405047D02*
X158152857Y-90405047D01*
X158152857Y-90405047D02*
X158238571Y-90428857D01*
X158238571Y-90428857D02*
X158581428Y-90714571D01*
X158581428Y-90714571D02*
X158581428Y-90405047D01*
X156881428Y-93557428D02*
X156595714Y-93724094D01*
X156881428Y-93843142D02*
X156281428Y-93843142D01*
X156281428Y-93843142D02*
X156281428Y-93652666D01*
X156281428Y-93652666D02*
X156310000Y-93605047D01*
X156310000Y-93605047D02*
X156338571Y-93581237D01*
X156338571Y-93581237D02*
X156395714Y-93557428D01*
X156395714Y-93557428D02*
X156481428Y-93557428D01*
X156481428Y-93557428D02*
X156538571Y-93581237D01*
X156538571Y-93581237D02*
X156567142Y-93605047D01*
X156567142Y-93605047D02*
X156595714Y-93652666D01*
X156595714Y-93652666D02*
X156595714Y-93843142D01*
X156881428Y-93081237D02*
X156881428Y-93366951D01*
X156881428Y-93224094D02*
X156281428Y-93224094D01*
X156281428Y-93224094D02*
X156367142Y-93271713D01*
X156367142Y-93271713D02*
X156424285Y-93319332D01*
X156424285Y-93319332D02*
X156452857Y-93366951D01*
X156881428Y-92605047D02*
X156881428Y-92890761D01*
X156881428Y-92747904D02*
X156281428Y-92747904D01*
X156281428Y-92747904D02*
X156367142Y-92795523D01*
X156367142Y-92795523D02*
X156424285Y-92843142D01*
X156424285Y-92843142D02*
X156452857Y-92890761D01*
X144581428Y-102257428D02*
X144295714Y-102424094D01*
X144581428Y-102543142D02*
X143981428Y-102543142D01*
X143981428Y-102543142D02*
X143981428Y-102352666D01*
X143981428Y-102352666D02*
X144010000Y-102305047D01*
X144010000Y-102305047D02*
X144038571Y-102281237D01*
X144038571Y-102281237D02*
X144095714Y-102257428D01*
X144095714Y-102257428D02*
X144181428Y-102257428D01*
X144181428Y-102257428D02*
X144238571Y-102281237D01*
X144238571Y-102281237D02*
X144267142Y-102305047D01*
X144267142Y-102305047D02*
X144295714Y-102352666D01*
X144295714Y-102352666D02*
X144295714Y-102543142D01*
X143981428Y-102090761D02*
X143981428Y-101781237D01*
X143981428Y-101781237D02*
X144210000Y-101947904D01*
X144210000Y-101947904D02*
X144210000Y-101876475D01*
X144210000Y-101876475D02*
X144238571Y-101828856D01*
X144238571Y-101828856D02*
X144267142Y-101805047D01*
X144267142Y-101805047D02*
X144324285Y-101781237D01*
X144324285Y-101781237D02*
X144467142Y-101781237D01*
X144467142Y-101781237D02*
X144524285Y-101805047D01*
X144524285Y-101805047D02*
X144552857Y-101828856D01*
X144552857Y-101828856D02*
X144581428Y-101876475D01*
X144581428Y-101876475D02*
X144581428Y-102019332D01*
X144581428Y-102019332D02*
X144552857Y-102066951D01*
X144552857Y-102066951D02*
X144524285Y-102090761D01*
X144038571Y-101590761D02*
X144010000Y-101566952D01*
X144010000Y-101566952D02*
X143981428Y-101519333D01*
X143981428Y-101519333D02*
X143981428Y-101400285D01*
X143981428Y-101400285D02*
X144010000Y-101352666D01*
X144010000Y-101352666D02*
X144038571Y-101328857D01*
X144038571Y-101328857D02*
X144095714Y-101305047D01*
X144095714Y-101305047D02*
X144152857Y-101305047D01*
X144152857Y-101305047D02*
X144238571Y-101328857D01*
X144238571Y-101328857D02*
X144581428Y-101614571D01*
X144581428Y-101614571D02*
X144581428Y-101305047D01*
X147857547Y-118781428D02*
X147857547Y-119267142D01*
X147857547Y-119267142D02*
X147881357Y-119324285D01*
X147881357Y-119324285D02*
X147905166Y-119352857D01*
X147905166Y-119352857D02*
X147952785Y-119381428D01*
X147952785Y-119381428D02*
X148048023Y-119381428D01*
X148048023Y-119381428D02*
X148095642Y-119352857D01*
X148095642Y-119352857D02*
X148119452Y-119324285D01*
X148119452Y-119324285D02*
X148143261Y-119267142D01*
X148143261Y-119267142D02*
X148143261Y-118781428D01*
X148643262Y-119381428D02*
X148357548Y-119381428D01*
X148500405Y-119381428D02*
X148500405Y-118781428D01*
X148500405Y-118781428D02*
X148452786Y-118867142D01*
X148452786Y-118867142D02*
X148405167Y-118924285D01*
X148405167Y-118924285D02*
X148357548Y-118952857D01*
X158077666Y-117456428D02*
X157911000Y-117170714D01*
X157791952Y-117456428D02*
X157791952Y-116856428D01*
X157791952Y-116856428D02*
X157982428Y-116856428D01*
X157982428Y-116856428D02*
X158030047Y-116885000D01*
X158030047Y-116885000D02*
X158053857Y-116913571D01*
X158053857Y-116913571D02*
X158077666Y-116970714D01*
X158077666Y-116970714D02*
X158077666Y-117056428D01*
X158077666Y-117056428D02*
X158053857Y-117113571D01*
X158053857Y-117113571D02*
X158030047Y-117142142D01*
X158030047Y-117142142D02*
X157982428Y-117170714D01*
X157982428Y-117170714D02*
X157791952Y-117170714D01*
X158530047Y-116856428D02*
X158291952Y-116856428D01*
X158291952Y-116856428D02*
X158268143Y-117142142D01*
X158268143Y-117142142D02*
X158291952Y-117113571D01*
X158291952Y-117113571D02*
X158339571Y-117085000D01*
X158339571Y-117085000D02*
X158458619Y-117085000D01*
X158458619Y-117085000D02*
X158506238Y-117113571D01*
X158506238Y-117113571D02*
X158530047Y-117142142D01*
X158530047Y-117142142D02*
X158553857Y-117199285D01*
X158553857Y-117199285D02*
X158553857Y-117342142D01*
X158553857Y-117342142D02*
X158530047Y-117399285D01*
X158530047Y-117399285D02*
X158506238Y-117427857D01*
X158506238Y-117427857D02*
X158458619Y-117456428D01*
X158458619Y-117456428D02*
X158339571Y-117456428D01*
X158339571Y-117456428D02*
X158291952Y-117427857D01*
X158291952Y-117427857D02*
X158268143Y-117399285D01*
X158077666Y-120056428D02*
X157911000Y-119770714D01*
X157791952Y-120056428D02*
X157791952Y-119456428D01*
X157791952Y-119456428D02*
X157982428Y-119456428D01*
X157982428Y-119456428D02*
X158030047Y-119485000D01*
X158030047Y-119485000D02*
X158053857Y-119513571D01*
X158053857Y-119513571D02*
X158077666Y-119570714D01*
X158077666Y-119570714D02*
X158077666Y-119656428D01*
X158077666Y-119656428D02*
X158053857Y-119713571D01*
X158053857Y-119713571D02*
X158030047Y-119742142D01*
X158030047Y-119742142D02*
X157982428Y-119770714D01*
X157982428Y-119770714D02*
X157791952Y-119770714D01*
X158506238Y-119656428D02*
X158506238Y-120056428D01*
X158387190Y-119427857D02*
X158268143Y-119856428D01*
X158268143Y-119856428D02*
X158577666Y-119856428D01*
X153124285Y-124219333D02*
X153152857Y-124243142D01*
X153152857Y-124243142D02*
X153181428Y-124314571D01*
X153181428Y-124314571D02*
X153181428Y-124362190D01*
X153181428Y-124362190D02*
X153152857Y-124433618D01*
X153152857Y-124433618D02*
X153095714Y-124481237D01*
X153095714Y-124481237D02*
X153038571Y-124505047D01*
X153038571Y-124505047D02*
X152924285Y-124528856D01*
X152924285Y-124528856D02*
X152838571Y-124528856D01*
X152838571Y-124528856D02*
X152724285Y-124505047D01*
X152724285Y-124505047D02*
X152667142Y-124481237D01*
X152667142Y-124481237D02*
X152610000Y-124433618D01*
X152610000Y-124433618D02*
X152581428Y-124362190D01*
X152581428Y-124362190D02*
X152581428Y-124314571D01*
X152581428Y-124314571D02*
X152610000Y-124243142D01*
X152610000Y-124243142D02*
X152638571Y-124219333D01*
X153181428Y-123743142D02*
X153181428Y-124028856D01*
X153181428Y-123885999D02*
X152581428Y-123885999D01*
X152581428Y-123885999D02*
X152667142Y-123933618D01*
X152667142Y-123933618D02*
X152724285Y-123981237D01*
X152724285Y-123981237D02*
X152752857Y-124028856D01*
X143118143Y-95620428D02*
X143118143Y-95020428D01*
X143118143Y-95020428D02*
X143284810Y-95449000D01*
X143284810Y-95449000D02*
X143451476Y-95020428D01*
X143451476Y-95020428D02*
X143451476Y-95620428D01*
X143641953Y-95020428D02*
X143951477Y-95020428D01*
X143951477Y-95020428D02*
X143784810Y-95249000D01*
X143784810Y-95249000D02*
X143856239Y-95249000D01*
X143856239Y-95249000D02*
X143903858Y-95277571D01*
X143903858Y-95277571D02*
X143927667Y-95306142D01*
X143927667Y-95306142D02*
X143951477Y-95363285D01*
X143951477Y-95363285D02*
X143951477Y-95506142D01*
X143951477Y-95506142D02*
X143927667Y-95563285D01*
X143927667Y-95563285D02*
X143903858Y-95591857D01*
X143903858Y-95591857D02*
X143856239Y-95620428D01*
X143856239Y-95620428D02*
X143713382Y-95620428D01*
X143713382Y-95620428D02*
X143665763Y-95591857D01*
X143665763Y-95591857D02*
X143641953Y-95563285D01*
X144261000Y-95020428D02*
X144308619Y-95020428D01*
X144308619Y-95020428D02*
X144356238Y-95049000D01*
X144356238Y-95049000D02*
X144380048Y-95077571D01*
X144380048Y-95077571D02*
X144403857Y-95134714D01*
X144403857Y-95134714D02*
X144427667Y-95249000D01*
X144427667Y-95249000D02*
X144427667Y-95391857D01*
X144427667Y-95391857D02*
X144403857Y-95506142D01*
X144403857Y-95506142D02*
X144380048Y-95563285D01*
X144380048Y-95563285D02*
X144356238Y-95591857D01*
X144356238Y-95591857D02*
X144308619Y-95620428D01*
X144308619Y-95620428D02*
X144261000Y-95620428D01*
X144261000Y-95620428D02*
X144213381Y-95591857D01*
X144213381Y-95591857D02*
X144189572Y-95563285D01*
X144189572Y-95563285D02*
X144165762Y-95506142D01*
X144165762Y-95506142D02*
X144141953Y-95391857D01*
X144141953Y-95391857D02*
X144141953Y-95249000D01*
X144141953Y-95249000D02*
X144165762Y-95134714D01*
X144165762Y-95134714D02*
X144189572Y-95077571D01*
X144189572Y-95077571D02*
X144213381Y-95049000D01*
X144213381Y-95049000D02*
X144261000Y-95020428D01*
X145381428Y-126405047D02*
X144781428Y-126405047D01*
X144781428Y-126405047D02*
X144781428Y-126285999D01*
X144781428Y-126285999D02*
X144810000Y-126214571D01*
X144810000Y-126214571D02*
X144867142Y-126166952D01*
X144867142Y-126166952D02*
X144924285Y-126143142D01*
X144924285Y-126143142D02*
X145038571Y-126119333D01*
X145038571Y-126119333D02*
X145124285Y-126119333D01*
X145124285Y-126119333D02*
X145238571Y-126143142D01*
X145238571Y-126143142D02*
X145295714Y-126166952D01*
X145295714Y-126166952D02*
X145352857Y-126214571D01*
X145352857Y-126214571D02*
X145381428Y-126285999D01*
X145381428Y-126285999D02*
X145381428Y-126405047D01*
X144981428Y-125690761D02*
X145381428Y-125690761D01*
X144752857Y-125809809D02*
X145181428Y-125928856D01*
X145181428Y-125928856D02*
X145181428Y-125619333D01*
X153181428Y-103242856D02*
X152581428Y-103242856D01*
X152581428Y-103242856D02*
X153010000Y-103076189D01*
X153010000Y-103076189D02*
X152581428Y-102909523D01*
X152581428Y-102909523D02*
X153181428Y-102909523D01*
X152638571Y-102695236D02*
X152610000Y-102671427D01*
X152610000Y-102671427D02*
X152581428Y-102623808D01*
X152581428Y-102623808D02*
X152581428Y-102504760D01*
X152581428Y-102504760D02*
X152610000Y-102457141D01*
X152610000Y-102457141D02*
X152638571Y-102433332D01*
X152638571Y-102433332D02*
X152695714Y-102409522D01*
X152695714Y-102409522D02*
X152752857Y-102409522D01*
X152752857Y-102409522D02*
X152838571Y-102433332D01*
X152838571Y-102433332D02*
X153181428Y-102719046D01*
X153181428Y-102719046D02*
X153181428Y-102409522D01*
X152581428Y-102099999D02*
X152581428Y-102052380D01*
X152581428Y-102052380D02*
X152610000Y-102004761D01*
X152610000Y-102004761D02*
X152638571Y-101980951D01*
X152638571Y-101980951D02*
X152695714Y-101957142D01*
X152695714Y-101957142D02*
X152810000Y-101933332D01*
X152810000Y-101933332D02*
X152952857Y-101933332D01*
X152952857Y-101933332D02*
X153067142Y-101957142D01*
X153067142Y-101957142D02*
X153124285Y-101980951D01*
X153124285Y-101980951D02*
X153152857Y-102004761D01*
X153152857Y-102004761D02*
X153181428Y-102052380D01*
X153181428Y-102052380D02*
X153181428Y-102099999D01*
X153181428Y-102099999D02*
X153152857Y-102147618D01*
X153152857Y-102147618D02*
X153124285Y-102171427D01*
X153124285Y-102171427D02*
X153067142Y-102195237D01*
X153067142Y-102195237D02*
X152952857Y-102219046D01*
X152952857Y-102219046D02*
X152810000Y-102219046D01*
X152810000Y-102219046D02*
X152695714Y-102195237D01*
X152695714Y-102195237D02*
X152638571Y-102171427D01*
X152638571Y-102171427D02*
X152610000Y-102147618D01*
X152610000Y-102147618D02*
X152581428Y-102099999D01*
X152318143Y-98220428D02*
X152318143Y-97620428D01*
X152318143Y-97620428D02*
X152484810Y-98049000D01*
X152484810Y-98049000D02*
X152651476Y-97620428D01*
X152651476Y-97620428D02*
X152651476Y-98220428D01*
X153151477Y-98220428D02*
X152865763Y-98220428D01*
X153008620Y-98220428D02*
X153008620Y-97620428D01*
X153008620Y-97620428D02*
X152961001Y-97706142D01*
X152961001Y-97706142D02*
X152913382Y-97763285D01*
X152913382Y-97763285D02*
X152865763Y-97791857D01*
X153461000Y-97620428D02*
X153508619Y-97620428D01*
X153508619Y-97620428D02*
X153556238Y-97649000D01*
X153556238Y-97649000D02*
X153580048Y-97677571D01*
X153580048Y-97677571D02*
X153603857Y-97734714D01*
X153603857Y-97734714D02*
X153627667Y-97849000D01*
X153627667Y-97849000D02*
X153627667Y-97991857D01*
X153627667Y-97991857D02*
X153603857Y-98106142D01*
X153603857Y-98106142D02*
X153580048Y-98163285D01*
X153580048Y-98163285D02*
X153556238Y-98191857D01*
X153556238Y-98191857D02*
X153508619Y-98220428D01*
X153508619Y-98220428D02*
X153461000Y-98220428D01*
X153461000Y-98220428D02*
X153413381Y-98191857D01*
X153413381Y-98191857D02*
X153389572Y-98163285D01*
X153389572Y-98163285D02*
X153365762Y-98106142D01*
X153365762Y-98106142D02*
X153341953Y-97991857D01*
X153341953Y-97991857D02*
X153341953Y-97849000D01*
X153341953Y-97849000D02*
X153365762Y-97734714D01*
X153365762Y-97734714D02*
X153389572Y-97677571D01*
X153389572Y-97677571D02*
X153413381Y-97649000D01*
X153413381Y-97649000D02*
X153461000Y-97620428D01*
X137581428Y-95121428D02*
X137295714Y-95288094D01*
X137581428Y-95407142D02*
X136981428Y-95407142D01*
X136981428Y-95407142D02*
X136981428Y-95216666D01*
X136981428Y-95216666D02*
X137010000Y-95169047D01*
X137010000Y-95169047D02*
X137038571Y-95145237D01*
X137038571Y-95145237D02*
X137095714Y-95121428D01*
X137095714Y-95121428D02*
X137181428Y-95121428D01*
X137181428Y-95121428D02*
X137238571Y-95145237D01*
X137238571Y-95145237D02*
X137267142Y-95169047D01*
X137267142Y-95169047D02*
X137295714Y-95216666D01*
X137295714Y-95216666D02*
X137295714Y-95407142D01*
X137181428Y-94692856D02*
X137581428Y-94692856D01*
X136952857Y-94811904D02*
X137381428Y-94930951D01*
X137381428Y-94930951D02*
X137381428Y-94621428D01*
X137581428Y-94169047D02*
X137581428Y-94454761D01*
X137581428Y-94311904D02*
X136981428Y-94311904D01*
X136981428Y-94311904D02*
X137067142Y-94359523D01*
X137067142Y-94359523D02*
X137124285Y-94407142D01*
X137124285Y-94407142D02*
X137152857Y-94454761D01*
X158077666Y-114956428D02*
X157911000Y-114670714D01*
X157791952Y-114956428D02*
X157791952Y-114356428D01*
X157791952Y-114356428D02*
X157982428Y-114356428D01*
X157982428Y-114356428D02*
X158030047Y-114385000D01*
X158030047Y-114385000D02*
X158053857Y-114413571D01*
X158053857Y-114413571D02*
X158077666Y-114470714D01*
X158077666Y-114470714D02*
X158077666Y-114556428D01*
X158077666Y-114556428D02*
X158053857Y-114613571D01*
X158053857Y-114613571D02*
X158030047Y-114642142D01*
X158030047Y-114642142D02*
X157982428Y-114670714D01*
X157982428Y-114670714D02*
X157791952Y-114670714D01*
X158506238Y-114356428D02*
X158411000Y-114356428D01*
X158411000Y-114356428D02*
X158363381Y-114385000D01*
X158363381Y-114385000D02*
X158339571Y-114413571D01*
X158339571Y-114413571D02*
X158291952Y-114499285D01*
X158291952Y-114499285D02*
X158268143Y-114613571D01*
X158268143Y-114613571D02*
X158268143Y-114842142D01*
X158268143Y-114842142D02*
X158291952Y-114899285D01*
X158291952Y-114899285D02*
X158315762Y-114927857D01*
X158315762Y-114927857D02*
X158363381Y-114956428D01*
X158363381Y-114956428D02*
X158458619Y-114956428D01*
X158458619Y-114956428D02*
X158506238Y-114927857D01*
X158506238Y-114927857D02*
X158530047Y-114899285D01*
X158530047Y-114899285D02*
X158553857Y-114842142D01*
X158553857Y-114842142D02*
X158553857Y-114699285D01*
X158553857Y-114699285D02*
X158530047Y-114642142D01*
X158530047Y-114642142D02*
X158506238Y-114613571D01*
X158506238Y-114613571D02*
X158458619Y-114585000D01*
X158458619Y-114585000D02*
X158363381Y-114585000D01*
X158363381Y-114585000D02*
X158315762Y-114613571D01*
X158315762Y-114613571D02*
X158291952Y-114642142D01*
X158291952Y-114642142D02*
X158268143Y-114699285D01*
X158077666Y-122656428D02*
X157911000Y-122370714D01*
X157791952Y-122656428D02*
X157791952Y-122056428D01*
X157791952Y-122056428D02*
X157982428Y-122056428D01*
X157982428Y-122056428D02*
X158030047Y-122085000D01*
X158030047Y-122085000D02*
X158053857Y-122113571D01*
X158053857Y-122113571D02*
X158077666Y-122170714D01*
X158077666Y-122170714D02*
X158077666Y-122256428D01*
X158077666Y-122256428D02*
X158053857Y-122313571D01*
X158053857Y-122313571D02*
X158030047Y-122342142D01*
X158030047Y-122342142D02*
X157982428Y-122370714D01*
X157982428Y-122370714D02*
X157791952Y-122370714D01*
X158244333Y-122056428D02*
X158553857Y-122056428D01*
X158553857Y-122056428D02*
X158387190Y-122285000D01*
X158387190Y-122285000D02*
X158458619Y-122285000D01*
X158458619Y-122285000D02*
X158506238Y-122313571D01*
X158506238Y-122313571D02*
X158530047Y-122342142D01*
X158530047Y-122342142D02*
X158553857Y-122399285D01*
X158553857Y-122399285D02*
X158553857Y-122542142D01*
X158553857Y-122542142D02*
X158530047Y-122599285D01*
X158530047Y-122599285D02*
X158506238Y-122627857D01*
X158506238Y-122627857D02*
X158458619Y-122656428D01*
X158458619Y-122656428D02*
X158315762Y-122656428D01*
X158315762Y-122656428D02*
X158268143Y-122627857D01*
X158268143Y-122627857D02*
X158244333Y-122599285D01*
X153181428Y-126119333D02*
X152895714Y-126285999D01*
X153181428Y-126405047D02*
X152581428Y-126405047D01*
X152581428Y-126405047D02*
X152581428Y-126214571D01*
X152581428Y-126214571D02*
X152610000Y-126166952D01*
X152610000Y-126166952D02*
X152638571Y-126143142D01*
X152638571Y-126143142D02*
X152695714Y-126119333D01*
X152695714Y-126119333D02*
X152781428Y-126119333D01*
X152781428Y-126119333D02*
X152838571Y-126143142D01*
X152838571Y-126143142D02*
X152867142Y-126166952D01*
X152867142Y-126166952D02*
X152895714Y-126214571D01*
X152895714Y-126214571D02*
X152895714Y-126405047D01*
X152581428Y-125952666D02*
X152581428Y-125619333D01*
X152581428Y-125619333D02*
X153181428Y-125833618D01*
X151481428Y-90943142D02*
X150881428Y-90943142D01*
X150881428Y-90943142D02*
X150881428Y-90824094D01*
X150881428Y-90824094D02*
X150910000Y-90752666D01*
X150910000Y-90752666D02*
X150967142Y-90705047D01*
X150967142Y-90705047D02*
X151024285Y-90681237D01*
X151024285Y-90681237D02*
X151138571Y-90657428D01*
X151138571Y-90657428D02*
X151224285Y-90657428D01*
X151224285Y-90657428D02*
X151338571Y-90681237D01*
X151338571Y-90681237D02*
X151395714Y-90705047D01*
X151395714Y-90705047D02*
X151452857Y-90752666D01*
X151452857Y-90752666D02*
X151481428Y-90824094D01*
X151481428Y-90824094D02*
X151481428Y-90943142D01*
X151481428Y-90181237D02*
X151481428Y-90466951D01*
X151481428Y-90324094D02*
X150881428Y-90324094D01*
X150881428Y-90324094D02*
X150967142Y-90371713D01*
X150967142Y-90371713D02*
X151024285Y-90419332D01*
X151024285Y-90419332D02*
X151052857Y-90466951D01*
X151481428Y-89705047D02*
X151481428Y-89990761D01*
X151481428Y-89847904D02*
X150881428Y-89847904D01*
X150881428Y-89847904D02*
X150967142Y-89895523D01*
X150967142Y-89895523D02*
X151024285Y-89943142D01*
X151024285Y-89943142D02*
X151052857Y-89990761D01*
X154181428Y-114605047D02*
X153581428Y-114605047D01*
X153581428Y-114605047D02*
X153581428Y-114485999D01*
X153581428Y-114485999D02*
X153610000Y-114414571D01*
X153610000Y-114414571D02*
X153667142Y-114366952D01*
X153667142Y-114366952D02*
X153724285Y-114343142D01*
X153724285Y-114343142D02*
X153838571Y-114319333D01*
X153838571Y-114319333D02*
X153924285Y-114319333D01*
X153924285Y-114319333D02*
X154038571Y-114343142D01*
X154038571Y-114343142D02*
X154095714Y-114366952D01*
X154095714Y-114366952D02*
X154152857Y-114414571D01*
X154152857Y-114414571D02*
X154181428Y-114485999D01*
X154181428Y-114485999D02*
X154181428Y-114605047D01*
X153638571Y-114128856D02*
X153610000Y-114105047D01*
X153610000Y-114105047D02*
X153581428Y-114057428D01*
X153581428Y-114057428D02*
X153581428Y-113938380D01*
X153581428Y-113938380D02*
X153610000Y-113890761D01*
X153610000Y-113890761D02*
X153638571Y-113866952D01*
X153638571Y-113866952D02*
X153695714Y-113843142D01*
X153695714Y-113843142D02*
X153752857Y-113843142D01*
X153752857Y-113843142D02*
X153838571Y-113866952D01*
X153838571Y-113866952D02*
X154181428Y-114152666D01*
X154181428Y-114152666D02*
X154181428Y-113843142D01*
X160581428Y-98521428D02*
X160295714Y-98688094D01*
X160581428Y-98807142D02*
X159981428Y-98807142D01*
X159981428Y-98807142D02*
X159981428Y-98616666D01*
X159981428Y-98616666D02*
X160010000Y-98569047D01*
X160010000Y-98569047D02*
X160038571Y-98545237D01*
X160038571Y-98545237D02*
X160095714Y-98521428D01*
X160095714Y-98521428D02*
X160181428Y-98521428D01*
X160181428Y-98521428D02*
X160238571Y-98545237D01*
X160238571Y-98545237D02*
X160267142Y-98569047D01*
X160267142Y-98569047D02*
X160295714Y-98616666D01*
X160295714Y-98616666D02*
X160295714Y-98807142D01*
X159981428Y-98354761D02*
X159981428Y-98045237D01*
X159981428Y-98045237D02*
X160210000Y-98211904D01*
X160210000Y-98211904D02*
X160210000Y-98140475D01*
X160210000Y-98140475D02*
X160238571Y-98092856D01*
X160238571Y-98092856D02*
X160267142Y-98069047D01*
X160267142Y-98069047D02*
X160324285Y-98045237D01*
X160324285Y-98045237D02*
X160467142Y-98045237D01*
X160467142Y-98045237D02*
X160524285Y-98069047D01*
X160524285Y-98069047D02*
X160552857Y-98092856D01*
X160552857Y-98092856D02*
X160581428Y-98140475D01*
X160581428Y-98140475D02*
X160581428Y-98283332D01*
X160581428Y-98283332D02*
X160552857Y-98330951D01*
X160552857Y-98330951D02*
X160524285Y-98354761D01*
X159981428Y-97878571D02*
X159981428Y-97569047D01*
X159981428Y-97569047D02*
X160210000Y-97735714D01*
X160210000Y-97735714D02*
X160210000Y-97664285D01*
X160210000Y-97664285D02*
X160238571Y-97616666D01*
X160238571Y-97616666D02*
X160267142Y-97592857D01*
X160267142Y-97592857D02*
X160324285Y-97569047D01*
X160324285Y-97569047D02*
X160467142Y-97569047D01*
X160467142Y-97569047D02*
X160524285Y-97592857D01*
X160524285Y-97592857D02*
X160552857Y-97616666D01*
X160552857Y-97616666D02*
X160581428Y-97664285D01*
X160581428Y-97664285D02*
X160581428Y-97807142D01*
X160581428Y-97807142D02*
X160552857Y-97854761D01*
X160552857Y-97854761D02*
X160524285Y-97878571D01*
X144581428Y-99957428D02*
X144295714Y-100124094D01*
X144581428Y-100243142D02*
X143981428Y-100243142D01*
X143981428Y-100243142D02*
X143981428Y-100052666D01*
X143981428Y-100052666D02*
X144010000Y-100005047D01*
X144010000Y-100005047D02*
X144038571Y-99981237D01*
X144038571Y-99981237D02*
X144095714Y-99957428D01*
X144095714Y-99957428D02*
X144181428Y-99957428D01*
X144181428Y-99957428D02*
X144238571Y-99981237D01*
X144238571Y-99981237D02*
X144267142Y-100005047D01*
X144267142Y-100005047D02*
X144295714Y-100052666D01*
X144295714Y-100052666D02*
X144295714Y-100243142D01*
X143981428Y-99790761D02*
X143981428Y-99481237D01*
X143981428Y-99481237D02*
X144210000Y-99647904D01*
X144210000Y-99647904D02*
X144210000Y-99576475D01*
X144210000Y-99576475D02*
X144238571Y-99528856D01*
X144238571Y-99528856D02*
X144267142Y-99505047D01*
X144267142Y-99505047D02*
X144324285Y-99481237D01*
X144324285Y-99481237D02*
X144467142Y-99481237D01*
X144467142Y-99481237D02*
X144524285Y-99505047D01*
X144524285Y-99505047D02*
X144552857Y-99528856D01*
X144552857Y-99528856D02*
X144581428Y-99576475D01*
X144581428Y-99576475D02*
X144581428Y-99719332D01*
X144581428Y-99719332D02*
X144552857Y-99766951D01*
X144552857Y-99766951D02*
X144524285Y-99790761D01*
X144581428Y-99005047D02*
X144581428Y-99290761D01*
X144581428Y-99147904D02*
X143981428Y-99147904D01*
X143981428Y-99147904D02*
X144067142Y-99195523D01*
X144067142Y-99195523D02*
X144124285Y-99243142D01*
X144124285Y-99243142D02*
X144152857Y-99290761D01*
X154181428Y-119405047D02*
X153581428Y-119405047D01*
X153581428Y-119405047D02*
X153581428Y-119285999D01*
X153581428Y-119285999D02*
X153610000Y-119214571D01*
X153610000Y-119214571D02*
X153667142Y-119166952D01*
X153667142Y-119166952D02*
X153724285Y-119143142D01*
X153724285Y-119143142D02*
X153838571Y-119119333D01*
X153838571Y-119119333D02*
X153924285Y-119119333D01*
X153924285Y-119119333D02*
X154038571Y-119143142D01*
X154038571Y-119143142D02*
X154095714Y-119166952D01*
X154095714Y-119166952D02*
X154152857Y-119214571D01*
X154152857Y-119214571D02*
X154181428Y-119285999D01*
X154181428Y-119285999D02*
X154181428Y-119405047D01*
X154181428Y-118643142D02*
X154181428Y-118928856D01*
X154181428Y-118785999D02*
X153581428Y-118785999D01*
X153581428Y-118785999D02*
X153667142Y-118833618D01*
X153667142Y-118833618D02*
X153724285Y-118881237D01*
X153724285Y-118881237D02*
X153752857Y-118928856D01*
X146181428Y-91043142D02*
X145581428Y-91043142D01*
X145581428Y-91043142D02*
X145581428Y-90924094D01*
X145581428Y-90924094D02*
X145610000Y-90852666D01*
X145610000Y-90852666D02*
X145667142Y-90805047D01*
X145667142Y-90805047D02*
X145724285Y-90781237D01*
X145724285Y-90781237D02*
X145838571Y-90757428D01*
X145838571Y-90757428D02*
X145924285Y-90757428D01*
X145924285Y-90757428D02*
X146038571Y-90781237D01*
X146038571Y-90781237D02*
X146095714Y-90805047D01*
X146095714Y-90805047D02*
X146152857Y-90852666D01*
X146152857Y-90852666D02*
X146181428Y-90924094D01*
X146181428Y-90924094D02*
X146181428Y-91043142D01*
X145581428Y-90590761D02*
X145581428Y-90281237D01*
X145581428Y-90281237D02*
X145810000Y-90447904D01*
X145810000Y-90447904D02*
X145810000Y-90376475D01*
X145810000Y-90376475D02*
X145838571Y-90328856D01*
X145838571Y-90328856D02*
X145867142Y-90305047D01*
X145867142Y-90305047D02*
X145924285Y-90281237D01*
X145924285Y-90281237D02*
X146067142Y-90281237D01*
X146067142Y-90281237D02*
X146124285Y-90305047D01*
X146124285Y-90305047D02*
X146152857Y-90328856D01*
X146152857Y-90328856D02*
X146181428Y-90376475D01*
X146181428Y-90376475D02*
X146181428Y-90519332D01*
X146181428Y-90519332D02*
X146152857Y-90566951D01*
X146152857Y-90566951D02*
X146124285Y-90590761D01*
X146181428Y-89805047D02*
X146181428Y-90090761D01*
X146181428Y-89947904D02*
X145581428Y-89947904D01*
X145581428Y-89947904D02*
X145667142Y-89995523D01*
X145667142Y-89995523D02*
X145724285Y-90043142D01*
X145724285Y-90043142D02*
X145752857Y-90090761D01*
X145124285Y-124119333D02*
X145152857Y-124143142D01*
X145152857Y-124143142D02*
X145181428Y-124214571D01*
X145181428Y-124214571D02*
X145181428Y-124262190D01*
X145181428Y-124262190D02*
X145152857Y-124333618D01*
X145152857Y-124333618D02*
X145095714Y-124381237D01*
X145095714Y-124381237D02*
X145038571Y-124405047D01*
X145038571Y-124405047D02*
X144924285Y-124428856D01*
X144924285Y-124428856D02*
X144838571Y-124428856D01*
X144838571Y-124428856D02*
X144724285Y-124405047D01*
X144724285Y-124405047D02*
X144667142Y-124381237D01*
X144667142Y-124381237D02*
X144610000Y-124333618D01*
X144610000Y-124333618D02*
X144581428Y-124262190D01*
X144581428Y-124262190D02*
X144581428Y-124214571D01*
X144581428Y-124214571D02*
X144610000Y-124143142D01*
X144610000Y-124143142D02*
X144638571Y-124119333D01*
X144638571Y-123928856D02*
X144610000Y-123905047D01*
X144610000Y-123905047D02*
X144581428Y-123857428D01*
X144581428Y-123857428D02*
X144581428Y-123738380D01*
X144581428Y-123738380D02*
X144610000Y-123690761D01*
X144610000Y-123690761D02*
X144638571Y-123666952D01*
X144638571Y-123666952D02*
X144695714Y-123643142D01*
X144695714Y-123643142D02*
X144752857Y-123643142D01*
X144752857Y-123643142D02*
X144838571Y-123666952D01*
X144838571Y-123666952D02*
X145181428Y-123952666D01*
X145181428Y-123952666D02*
X145181428Y-123643142D01*
X138681428Y-112719333D02*
X138395714Y-112885999D01*
X138681428Y-113005047D02*
X138081428Y-113005047D01*
X138081428Y-113005047D02*
X138081428Y-112814571D01*
X138081428Y-112814571D02*
X138110000Y-112766952D01*
X138110000Y-112766952D02*
X138138571Y-112743142D01*
X138138571Y-112743142D02*
X138195714Y-112719333D01*
X138195714Y-112719333D02*
X138281428Y-112719333D01*
X138281428Y-112719333D02*
X138338571Y-112743142D01*
X138338571Y-112743142D02*
X138367142Y-112766952D01*
X138367142Y-112766952D02*
X138395714Y-112814571D01*
X138395714Y-112814571D02*
X138395714Y-113005047D01*
X138681428Y-112243142D02*
X138681428Y-112528856D01*
X138681428Y-112385999D02*
X138081428Y-112385999D01*
X138081428Y-112385999D02*
X138167142Y-112433618D01*
X138167142Y-112433618D02*
X138224285Y-112481237D01*
X138224285Y-112481237D02*
X138252857Y-112528856D01*
X136981428Y-98957428D02*
X136695714Y-99124094D01*
X136981428Y-99243142D02*
X136381428Y-99243142D01*
X136381428Y-99243142D02*
X136381428Y-99052666D01*
X136381428Y-99052666D02*
X136410000Y-99005047D01*
X136410000Y-99005047D02*
X136438571Y-98981237D01*
X136438571Y-98981237D02*
X136495714Y-98957428D01*
X136495714Y-98957428D02*
X136581428Y-98957428D01*
X136581428Y-98957428D02*
X136638571Y-98981237D01*
X136638571Y-98981237D02*
X136667142Y-99005047D01*
X136667142Y-99005047D02*
X136695714Y-99052666D01*
X136695714Y-99052666D02*
X136695714Y-99243142D01*
X136981428Y-98481237D02*
X136981428Y-98766951D01*
X136981428Y-98624094D02*
X136381428Y-98624094D01*
X136381428Y-98624094D02*
X136467142Y-98671713D01*
X136467142Y-98671713D02*
X136524285Y-98719332D01*
X136524285Y-98719332D02*
X136552857Y-98766951D01*
X136381428Y-98314571D02*
X136381428Y-98005047D01*
X136381428Y-98005047D02*
X136610000Y-98171714D01*
X136610000Y-98171714D02*
X136610000Y-98100285D01*
X136610000Y-98100285D02*
X136638571Y-98052666D01*
X136638571Y-98052666D02*
X136667142Y-98028857D01*
X136667142Y-98028857D02*
X136724285Y-98005047D01*
X136724285Y-98005047D02*
X136867142Y-98005047D01*
X136867142Y-98005047D02*
X136924285Y-98028857D01*
X136924285Y-98028857D02*
X136952857Y-98052666D01*
X136952857Y-98052666D02*
X136981428Y-98100285D01*
X136981428Y-98100285D02*
X136981428Y-98243142D01*
X136981428Y-98243142D02*
X136952857Y-98290761D01*
X136952857Y-98290761D02*
X136924285Y-98314571D01*
D12*
X156601000Y-95000000D02*
X156601000Y-94350000D01*
X159721000Y-95000000D02*
X159721000Y-94350000D01*
X156601000Y-95000000D02*
X156601000Y-96675000D01*
X159721000Y-95000000D02*
X159721000Y-95650000D01*
X140121000Y-101662500D02*
X140121000Y-102312500D01*
X137001000Y-101662500D02*
X137001000Y-102312500D01*
X140121000Y-101662500D02*
X140121000Y-99987500D01*
X137001000Y-101662500D02*
X137001000Y-101012500D01*
X138401000Y-92000000D02*
X138401000Y-93675000D01*
X138401000Y-92000000D02*
X138401000Y-91350000D01*
X141521000Y-92000000D02*
X141521000Y-92650000D01*
X141521000Y-92000000D02*
X141521000Y-91350000D01*
X145961000Y-108396000D02*
X145961000Y-107066000D01*
X147291000Y-108396000D02*
X145961000Y-108396000D01*
X148561000Y-108396000D02*
X151161000Y-108396000D01*
X148561000Y-108396000D02*
X148561000Y-105736000D01*
X151161000Y-108396000D02*
X151161000Y-105736000D01*
X148561000Y-105736000D02*
X151161000Y-105736000D01*
X145961000Y-100776000D02*
X145961000Y-99446000D01*
X147291000Y-100776000D02*
X145961000Y-100776000D01*
X148561000Y-100776000D02*
X151161000Y-100776000D01*
X148561000Y-100776000D02*
X148561000Y-98116000D01*
X151161000Y-100776000D02*
X151161000Y-98116000D01*
X148561000Y-98116000D02*
X151161000Y-98116000D01*
X162591000Y-107006000D02*
X162591000Y-108336000D01*
X161261000Y-107006000D02*
X162591000Y-107006000D01*
X159991000Y-107006000D02*
X157391000Y-107006000D01*
X159991000Y-107006000D02*
X159991000Y-109666000D01*
X157391000Y-107006000D02*
X157391000Y-109666000D01*
X159991000Y-109666000D02*
X157391000Y-109666000D01*
X157426000Y-101227064D02*
X157426000Y-100772936D01*
X158896000Y-101227064D02*
X158896000Y-100772936D01*
X162591000Y-104466000D02*
X162591000Y-105796000D01*
X161261000Y-104466000D02*
X162591000Y-104466000D01*
X159991000Y-104466000D02*
X157391000Y-104466000D01*
X159991000Y-104466000D02*
X159991000Y-107126000D01*
X157391000Y-104466000D02*
X157391000Y-107126000D01*
X159991000Y-107126000D02*
X157391000Y-107126000D01*
X143296000Y-108408936D02*
X143296000Y-108863064D01*
X141826000Y-108408936D02*
X141826000Y-108863064D01*
X156133936Y-90301000D02*
X156588064Y-90301000D01*
X156133936Y-91771000D02*
X156588064Y-91771000D01*
X154333936Y-92576000D02*
X154788064Y-92576000D01*
X154333936Y-94046000D02*
X154788064Y-94046000D01*
X141933936Y-101101000D02*
X142388064Y-101101000D01*
X141933936Y-102571000D02*
X142388064Y-102571000D01*
X145961000Y-110936000D02*
X145961000Y-109606000D01*
X147291000Y-110936000D02*
X145961000Y-110936000D01*
X148561000Y-110936000D02*
X151161000Y-110936000D01*
X148561000Y-110936000D02*
X148561000Y-108276000D01*
X151161000Y-110936000D02*
X151161000Y-108276000D01*
X148561000Y-108276000D02*
X151161000Y-108276000D01*
X148238500Y-115511000D02*
X144638500Y-115511000D01*
X148238500Y-115511000D02*
X150438500Y-115511000D01*
X148238500Y-122281000D02*
X146038500Y-122281000D01*
X148238500Y-122281000D02*
X150438500Y-122281000D01*
X139061000Y-118436000D02*
G75*
G03*
X139061000Y-118436000I-700000J0D01*
G01*
X157933936Y-115221000D02*
X158388064Y-115221000D01*
X157933936Y-116691000D02*
X158388064Y-116691000D01*
X158388064Y-119231000D02*
X157933936Y-119231000D01*
X158388064Y-117761000D02*
X157933936Y-117761000D01*
X151022252Y-124771000D02*
X150499748Y-124771000D01*
X151022252Y-123301000D02*
X150499748Y-123301000D01*
X140601000Y-96646000D02*
X140601000Y-98321000D01*
X140601000Y-96646000D02*
X140601000Y-95996000D01*
X143721000Y-96646000D02*
X143721000Y-97296000D01*
X143721000Y-96646000D02*
X143721000Y-95996000D01*
X148846000Y-126996000D02*
X148846000Y-125076000D01*
X148846000Y-125076000D02*
X146161000Y-125076000D01*
X146161000Y-126996000D02*
X148846000Y-126996000D01*
X154361000Y-102560000D02*
X156036000Y-102560000D01*
X154361000Y-102560000D02*
X153711000Y-102560000D01*
X154361000Y-99440000D02*
X155011000Y-99440000D01*
X154361000Y-99440000D02*
X153711000Y-99440000D01*
X153001000Y-96596000D02*
X153001000Y-97246000D01*
X153001000Y-96596000D02*
X153001000Y-95946000D01*
X156121000Y-96596000D02*
X156121000Y-97246000D01*
X156121000Y-96596000D02*
X156121000Y-94921000D01*
X139296000Y-95572936D02*
X139296000Y-96027064D01*
X137826000Y-95572936D02*
X137826000Y-96027064D01*
X157933936Y-112701000D02*
X158388064Y-112701000D01*
X157933936Y-114171000D02*
X158388064Y-114171000D01*
X147231000Y-112086000D02*
X148561000Y-112086000D01*
X147231000Y-113416000D02*
X147231000Y-112086000D01*
X147231000Y-114686000D02*
X147231000Y-114746000D01*
X147231000Y-114686000D02*
X149891000Y-114686000D01*
X147231000Y-114746000D02*
X149891000Y-114746000D01*
X149891000Y-114686000D02*
X149891000Y-114746000D01*
X158388064Y-121771000D02*
X157933936Y-121771000D01*
X158388064Y-120301000D02*
X157933936Y-120301000D01*
X150533936Y-125301000D02*
X150988064Y-125301000D01*
X150533936Y-126771000D02*
X150988064Y-126771000D01*
X160691000Y-124846000D02*
G75*
G03*
X160691000Y-124846000I-700000J0D01*
G01*
X155611000Y-124846000D02*
G75*
G03*
X155611000Y-124846000I-700000J0D01*
G01*
X150151000Y-96496000D02*
X152371000Y-96496000D01*
X152371000Y-96496000D02*
X152371000Y-92086000D01*
X150151000Y-92086000D02*
X150151000Y-96496000D01*
X147231000Y-91766000D02*
X148561000Y-91766000D01*
X147231000Y-93096000D02*
X147231000Y-91766000D01*
X147231000Y-94366000D02*
X147231000Y-96966000D01*
X147231000Y-94366000D02*
X149891000Y-94366000D01*
X147231000Y-96966000D02*
X149891000Y-96966000D01*
X149891000Y-94366000D02*
X149891000Y-96966000D01*
X156321000Y-112651000D02*
X154401000Y-112651000D01*
X154401000Y-112651000D02*
X154401000Y-115336000D01*
X156321000Y-115336000D02*
X156321000Y-112651000D01*
X157933936Y-97465000D02*
X158388064Y-97465000D01*
X157933936Y-98935000D02*
X158388064Y-98935000D01*
X142388064Y-100371000D02*
X141933936Y-100371000D01*
X142388064Y-98901000D02*
X141933936Y-98901000D01*
X156321000Y-117351000D02*
X154401000Y-117351000D01*
X154401000Y-117351000D02*
X154401000Y-120036000D01*
X156321000Y-120036000D02*
X156321000Y-117351000D01*
X144751000Y-96496000D02*
X146971000Y-96496000D01*
X146971000Y-96496000D02*
X146971000Y-92086000D01*
X144751000Y-92086000D02*
X144751000Y-96496000D01*
X145961000Y-105856000D02*
X145961000Y-104526000D01*
X147291000Y-105856000D02*
X145961000Y-105856000D01*
X148561000Y-105856000D02*
X151161000Y-105856000D01*
X148561000Y-105856000D02*
X148561000Y-103196000D01*
X151161000Y-105856000D02*
X151161000Y-103196000D01*
X148561000Y-103196000D02*
X151161000Y-103196000D01*
X145961000Y-103316000D02*
X145961000Y-101986000D01*
X147291000Y-103316000D02*
X145961000Y-103316000D01*
X148561000Y-103316000D02*
X151161000Y-103316000D01*
X148561000Y-103316000D02*
X148561000Y-100656000D01*
X151161000Y-103316000D02*
X151161000Y-100656000D01*
X148561000Y-100656000D02*
X151161000Y-100656000D01*
X146899748Y-123301000D02*
X147422252Y-123301000D01*
X146899748Y-124771000D02*
X147422252Y-124771000D01*
X139096000Y-114608936D02*
X139096000Y-115063064D01*
X137626000Y-114608936D02*
X137626000Y-115063064D01*
X138788064Y-99371000D02*
X138333936Y-99371000D01*
X138788064Y-97901000D02*
X138333936Y-97901000D01*
X158151000Y-124846000D02*
G75*
G03*
X158151000Y-124846000I-700000J0D01*
G01*
X163231000Y-124846000D02*
G75*
G03*
X163231000Y-124846000I-700000J0D01*
G01*
X162591000Y-109546000D02*
X162591000Y-110876000D01*
X161261000Y-109546000D02*
X162591000Y-109546000D01*
X159991000Y-109546000D02*
X157391000Y-109546000D01*
X159991000Y-109546000D02*
X159991000Y-112206000D01*
X157391000Y-109546000D02*
X157391000Y-112206000D01*
X159991000Y-112206000D02*
X157391000Y-112206000D01*
M02*
