G04 #@! TF.GenerationSoftware,KiCad,Pcbnew,(7.0.0)*
G04 #@! TF.CreationDate,2023-04-26T14:40:12+01:00*
G04 #@! TF.ProjectId,Tims_I2C_AI_DC_Motor_Driver 2P 2N,54696d73-5f49-4324-935f-41495f44435f,rev?*
G04 #@! TF.SameCoordinates,Original*
G04 #@! TF.FileFunction,Soldermask,Bot*
G04 #@! TF.FilePolarity,Negative*
%FSLAX46Y46*%
G04 Gerber Fmt 4.6, Leading zero omitted, Abs format (unit mm)*
G04 Created by KiCad (PCBNEW (7.0.0)) date 2023-04-26 14:40:12*
%MOMM*%
%LPD*%
G01*
G04 APERTURE LIST*
G04 Aperture macros list*
%AMRoundRect*
0 Rectangle with rounded corners*
0 $1 Rounding radius*
0 $2 $3 $4 $5 $6 $7 $8 $9 X,Y pos of 4 corners*
0 Add a 4 corners polygon primitive as box body*
4,1,4,$2,$3,$4,$5,$6,$7,$8,$9,$2,$3,0*
0 Add four circle primitives for the rounded corners*
1,1,$1+$1,$2,$3*
1,1,$1+$1,$4,$5*
1,1,$1+$1,$6,$7*
1,1,$1+$1,$8,$9*
0 Add four rect primitives between the rounded corners*
20,1,$1+$1,$2,$3,$4,$5,0*
20,1,$1+$1,$4,$5,$6,$7,0*
20,1,$1+$1,$6,$7,$8,$9,0*
20,1,$1+$1,$8,$9,$2,$3,0*%
G04 Aperture macros list end*
%ADD10R,1.700000X1.700000*%
%ADD11O,1.700000X1.700000*%
%ADD12R,1.500000X2.000000*%
%ADD13R,3.800000X2.000000*%
%ADD14RoundRect,0.243750X-0.456250X0.243750X-0.456250X-0.243750X0.456250X-0.243750X0.456250X0.243750X0*%
%ADD15RoundRect,0.250000X0.475000X-0.250000X0.475000X0.250000X-0.475000X0.250000X-0.475000X-0.250000X0*%
%ADD16RoundRect,0.250000X-0.450000X0.262500X-0.450000X-0.262500X0.450000X-0.262500X0.450000X0.262500X0*%
G04 APERTURE END LIST*
D10*
X147290999Y-107065999D03*
D11*
X149830999Y-107065999D03*
D10*
X147290999Y-99445999D03*
D11*
X149830999Y-99445999D03*
D10*
X161260999Y-108335999D03*
D11*
X158720999Y-108335999D03*
D10*
X161260999Y-105795999D03*
D11*
X158720999Y-105795999D03*
D10*
X147290999Y-109605999D03*
D11*
X149830999Y-109605999D03*
D10*
X148560999Y-113415999D03*
X148560999Y-93095999D03*
D11*
X148560999Y-95635999D03*
D10*
X147290999Y-104525999D03*
D11*
X149830999Y-104525999D03*
D10*
X147290999Y-101985999D03*
D11*
X149830999Y-101985999D03*
D10*
X161260999Y-110875999D03*
D11*
X158720999Y-110875999D03*
D12*
X138640999Y-103305999D03*
X140940999Y-103305999D03*
D13*
X140940999Y-109605999D03*
D12*
X143240999Y-103305999D03*
D10*
X142210999Y-121035999D03*
D11*
X142210999Y-118495999D03*
X142210999Y-115955999D03*
X142210999Y-113415999D03*
D10*
X142210999Y-123575999D03*
D11*
X139670999Y-123575999D03*
D10*
X134590999Y-123575999D03*
D11*
X137130999Y-123575999D03*
D14*
X143161000Y-99198500D03*
X143161000Y-101073500D03*
D15*
X138661000Y-101186000D03*
X138661000Y-99286000D03*
D10*
X161260999Y-121035999D03*
D11*
X161260999Y-118495999D03*
X161260999Y-115955999D03*
X161260999Y-113415999D03*
D16*
X140861000Y-98123500D03*
X140861000Y-99948500D03*
M02*
